<svg width="24" height="23" viewBox="0 0 24 23" fill="none" xmlns="http://www.w3.org/2000/svg">
<path d="M18.9787 8.30666C18.9787 8.67986 18.6191 8.9825 18.1753 8.9825H5.80337C5.35959 8.9825 5 8.67986 5 8.30666V7.67584C5 7.30264 5.35959 7 5.80337 7H18.1753C18.6191 7 18.9787 7.30264 18.9787 7.67584V8.30666Z" fill="#A7A9AC"/>
<path d="M16.5686 11.8153C16.5686 12.1887 16.209 12.4912 15.7652 12.4912H8.21353C7.76975 12.4912 7.41016 12.1887 7.41016 11.8153V11.1846C7.41016 10.8113 7.76975 10.5088 8.21353 10.5088H15.7652C16.209 10.5088 16.5686 10.8113 16.5686 11.1846V11.8153Z" fill="#A7A9AC"/>
<path d="M14.1585 15.3242C14.1585 15.6974 13.7989 16.0001 13.3552 16.0001H10.6237C10.1799 16.0001 9.82031 15.6974 9.82031 15.3242V14.6934C9.82031 14.3202 10.1799 14.0176 10.6237 14.0176H13.3552C13.7989 14.0176 14.1585 14.3202 14.1585 14.6934V15.3242Z" fill="#A7A9AC"/>
</svg>
