<svg width="24" height="23" viewBox="0 0 24 23" fill="none" xmlns="http://www.w3.org/2000/svg">
<path d="M10.9423 14.5242L6.28654 9.01397C6.13115 8.83034 6.0345 8.60979 6.00766 8.37753C5.98081 8.14528 6.02486 7.91069 6.13474 7.70059C6.24463 7.49049 6.41594 7.31337 6.62906 7.18948C6.84219 7.06559 7.08854 6.99992 7.33994 7H16.6601C16.9115 6.99992 17.1578 7.06559 17.3709 7.18948C17.5841 7.31337 17.7554 7.49049 17.8653 7.70059C17.9751 7.91069 18.0192 8.14528 17.9923 8.37753C17.9655 8.60979 17.8688 8.83034 17.7135 9.01397L13.0491 14.5242C12.9237 14.6724 12.7638 14.7923 12.5813 14.8747C12.3988 14.9572 12.1986 15 11.9957 15C11.7928 15 11.5925 14.9572 11.41 14.8747C11.2276 14.7923 11.0676 14.6724 10.9423 14.5242Z" fill="#A7A9AC"/>
</svg>
