<svg width="90" height="90" viewBox="0 0 90 90" fill="none" xmlns="http://www.w3.org/2000/svg">
<g filter="url(#filter0_d)">
<rect x="10" y="6" width="70" height="70" rx="35" fill="white"/>
</g>
<path d="M56.1919 39.5262L41.8733 30.3002C40.6521 29.512 39 30.3697 39 31.7837V50.2127C39 51.6499 40.6521 52.4844 41.8733 51.6963L56.1919 42.4702C57.2694 41.798 57.2694 40.2217 56.1919 39.5262Z" fill="white"/>
<path d="M55.1105 34.4688C54.9509 34.2209 54.6993 34.0467 54.411 33.9846C54.1228 33.9226 53.8216 33.9777 53.5737 34.1378C53.3258 34.2979 53.1514 34.55 53.089 34.8385C53.0266 35.1271 53.0812 35.4284 53.2409 35.6763C54.0352 36.9075 54.54 38.3033 54.7171 39.7587C54.9576 41.6785 54.6246 43.6275 53.7598 45.3596C52.8951 47.0918 51.5375 48.5295 49.8583 49.4914C48.1791 50.4534 46.2536 50.8964 44.3246 50.7646C42.3956 50.6329 40.5496 49.9322 39.0196 48.751C37.4895 47.5699 36.3439 45.9611 35.7274 44.1278C35.1108 42.2945 35.0509 40.3187 35.5551 38.4497C36.0594 36.5807 37.1052 34.9023 38.5607 33.6263C40.0163 32.3502 41.8162 31.5336 43.7335 31.2796L42.7602 32.5311C42.5793 32.7641 42.4982 33.0593 42.5346 33.3519C42.571 33.6444 42.722 33.9104 42.9545 34.0913C42.9949 34.1232 43.0377 34.152 43.0824 34.1777C43.3147 34.3111 43.5875 34.356 43.8505 34.304C44.1135 34.252 44.349 34.1066 44.5136 33.8947L47.8229 29.6381L43.5744 26.3303C43.3402 26.154 43.0465 26.0759 42.7555 26.1125C42.4645 26.1492 42.199 26.2978 42.0153 26.5269C41.8343 26.7598 41.7532 27.0551 41.7896 27.3476C41.826 27.6402 41.977 27.9061 42.2095 28.087L43.4718 29.0697C41.1193 29.3771 38.9095 30.3749 37.1214 31.9373C35.3333 33.4996 34.047 35.5565 33.4248 37.8482C32.8027 40.1399 32.8726 42.5638 33.6258 44.8139C34.3789 47.064 35.7816 49.0392 37.6566 50.4907C39.5316 51.9421 41.7951 52.8043 44.1612 52.9688C46.5273 53.1333 48.89 52.5924 50.9511 51.4145C53.0122 50.2366 54.6794 48.4745 55.7422 46.3507C56.8047 44.2268 57.2154 41.8363 56.9221 39.481C56.7054 37.694 56.086 35.9802 55.1105 34.4688Z" fill="#5C5D6F"/>
<defs>
<filter id="filter0_d" x="0" y="0" width="90" height="90" filterUnits="userSpaceOnUse" color-interpolation-filters="sRGB">
<feFlood flood-opacity="0" result="BackgroundImageFix"/>
<feColorMatrix in="SourceAlpha" type="matrix" values="0 0 0 0 0 0 0 0 0 0 0 0 0 0 0 0 0 0 127 0"/>
<feOffset dy="4"/>
<feGaussianBlur stdDeviation="5"/>
<feColorMatrix type="matrix" values="0 0 0 0 0 0 0 0 0 0 0 0 0 0 0 0 0 0 0.1 0"/>
<feBlend mode="normal" in2="BackgroundImageFix" result="effect1_dropShadow"/>
<feBlend mode="normal" in="SourceGraphic" in2="effect1_dropShadow" result="shape"/>
</filter>
</defs>
</svg>
