<svg width="67" height="70" viewBox="0 0 67 70" fill="none" xmlns="http://www.w3.org/2000/svg">
<path d="M64.5246 10.8333H46.1244V5.83333C46.1244 2.58333 43.5665 0 40.3485 0H26.6515C23.4335 0 20.8756 2.58333 20.8756 5.83333V10.8333H2.47537C1.07266 10.8333 0 11.9167 0 13.3333C0 14.75 1.07266 15.8333 2.47537 15.8333H7.3436L10.8091 63.8333C11.0567 67.25 13.9446 70 17.4101 70H49.5074C52.9729 70 55.8608 67.3333 56.1084 63.8333L59.6564 15.8333H64.5246C65.9273 15.8333 67 14.75 67 13.3333C67 11.9167 65.9273 10.8333 64.5246 10.8333ZM25.8264 5.83333C25.8264 5.41667 26.2389 5 26.6515 5H40.3485C40.7611 5 41.1736 5.41667 41.1736 5.83333V10.8333H25.8264V5.83333Z" fill="#5C5D6F" fill-opacity="0.6"/>
</svg>
