<svg width="427" height="390" viewBox="0 0 427 390" fill="none" xmlns="http://www.w3.org/2000/svg">
<path d="M326.088 389.456C325.895 389.455 325.707 389.396 325.548 389.288L319.444 384.952C319.344 384.882 319.259 384.792 319.194 384.688C319.128 384.584 319.084 384.468 319.063 384.347C319.042 384.226 319.046 384.103 319.073 383.983C319.1 383.863 319.15 383.75 319.221 383.65C319.292 383.55 319.382 383.464 319.486 383.399C319.59 383.334 319.705 383.289 319.826 383.268C319.947 383.248 320.071 383.251 320.191 383.278C320.31 383.305 320.424 383.356 320.524 383.427L326.627 387.688C326.826 387.833 326.961 388.051 327.003 388.294C327.044 388.537 326.99 388.787 326.85 388.99C326.774 389.127 326.664 389.241 326.53 389.323C326.396 389.404 326.244 389.45 326.088 389.456Z" fill="#5C5D6F"/>
<path d="M315.686 380.784C315.439 380.784 315.202 380.686 315.028 380.512C314.853 380.337 314.755 380.101 314.755 379.854V372.411C314.755 372.164 314.853 371.927 315.028 371.753C315.202 371.578 315.439 371.48 315.686 371.48C315.932 371.48 316.169 371.578 316.343 371.753C316.518 371.927 316.616 372.164 316.616 372.411V379.854C316.616 380.101 316.518 380.337 316.343 380.512C316.169 380.686 315.932 380.784 315.686 380.784Z" fill="#5C5D6F"/>
<path d="M305.283 389.456C305.134 389.458 304.986 389.424 304.853 389.356C304.72 389.287 304.606 389.188 304.52 389.065C304.381 388.861 304.326 388.612 304.368 388.368C304.41 388.125 304.545 387.908 304.744 387.762L310.847 383.501C311.05 383.358 311.301 383.301 311.545 383.343C311.789 383.385 312.007 383.522 312.15 383.724C312.293 383.927 312.35 384.178 312.308 384.422C312.266 384.666 312.129 384.884 311.927 385.027L305.823 389.288C305.664 389.396 305.476 389.455 305.283 389.456Z" fill="#5C5D6F"/>
<path d="M102.283 7.09404H91.1179C90.8711 7.09404 90.6345 6.99603 90.46 6.82154C90.2855 6.64706 90.1875 6.41039 90.1875 6.16363C90.1875 5.91687 90.2855 5.68023 90.46 5.50574C90.6345 5.33125 90.8711 5.23322 91.1179 5.23322H102.283C102.53 5.23322 102.766 5.33125 102.941 5.50574C103.115 5.68023 103.213 5.91687 103.213 6.16363C103.213 6.41039 103.115 6.64706 102.941 6.82154C102.766 6.99603 102.53 7.09404 102.283 7.09404ZM79.9529 7.09404H68.788C68.5412 7.09404 68.3046 6.99603 68.1301 6.82154C67.9556 6.64706 67.8576 6.41039 67.8576 6.16363C67.8576 5.91687 67.9556 5.68023 68.1301 5.50574C68.3046 5.33125 68.5412 5.23322 68.788 5.23322H79.9529C80.1997 5.23322 80.4364 5.33125 80.6109 5.50574C80.7853 5.68023 80.8834 5.91687 80.8834 6.16363C80.8834 6.41039 80.7853 6.64706 80.6109 6.82154C80.4364 6.99603 80.1997 7.09404 79.9529 7.09404ZM57.6231 7.09404H46.4582C46.2114 7.09404 45.9747 6.99603 45.8003 6.82154C45.6258 6.64706 45.5277 6.41039 45.5277 6.16363C45.5277 5.91687 45.6258 5.68023 45.8003 5.50574C45.9747 5.33125 46.2114 5.23322 46.4582 5.23322H57.6231C57.8698 5.23322 58.1065 5.33125 58.281 5.50574C58.4555 5.68023 58.5535 5.91687 58.5535 6.16363C58.5535 6.41039 58.4555 6.64706 58.281 6.82154C58.1065 6.99603 57.8698 7.09404 57.6231 7.09404ZM35.2932 7.09404H24.1283C23.8815 7.09404 23.6449 6.99603 23.4704 6.82154C23.2959 6.64706 23.1979 6.41039 23.1979 6.16363C23.1979 5.91687 23.2959 5.68023 23.4704 5.50574C23.6449 5.33125 23.8815 5.23322 24.1283 5.23322H35.2932C35.54 5.23322 35.7766 5.33125 35.9511 5.50574C36.1256 5.68023 36.2236 5.91687 36.2236 6.16363C36.2236 6.41039 36.1256 6.64706 35.9511 6.82154C35.7766 6.99603 35.54 7.09404 35.2932 7.09404Z" fill="#5C5D6F"/>
<path d="M20.2204 12.3231C20.001 12.326 19.7884 12.2463 19.625 12.0998L13.3354 6.87087C13.227 6.78423 13.1404 6.67352 13.0822 6.54755C13.0241 6.42158 12.9961 6.28382 13.0004 6.14515C12.9997 6.0078 13.0313 5.87222 13.0928 5.74937C13.1542 5.62652 13.2437 5.51985 13.354 5.43803L19.9041 0.209121C20.0001 0.130903 20.1107 0.0726388 20.2295 0.037735C20.3483 0.00283121 20.4729 -0.00801602 20.596 0.00584866C20.719 0.0197133 20.8381 0.0579925 20.9461 0.118459C21.0542 0.178925 21.1491 0.260372 21.2253 0.35799C21.3774 0.5508 21.4471 0.795943 21.4192 1.03995C21.3914 1.28397 21.2681 1.50705 21.0764 1.66056L15.4009 6.18237L20.8159 10.6669C21.0033 10.829 21.1199 11.0579 21.1407 11.3048C21.1616 11.5517 21.0851 11.7969 20.9275 11.9881C20.8388 12.0892 20.7302 12.1711 20.6086 12.2287C20.487 12.2863 20.3549 12.3184 20.2204 12.3231Z" fill="#5C5D6F"/>
<path d="M238.348 355.696C316.412 355.696 379.696 292.412 379.696 214.348C379.696 136.284 316.412 73 238.348 73C160.284 73 97 136.284 97 214.348C97 292.412 160.284 355.696 238.348 355.696Z" fill="#F1F1F3"/>
<path d="M392.649 226.392C392.282 226.395 391.919 226.323 391.58 226.183C391.241 226.042 390.934 225.835 390.677 225.573L389.579 224.475C389.061 223.949 388.77 223.241 388.77 222.503C388.77 221.764 389.061 221.056 389.579 220.53L390.677 219.432C391.202 218.914 391.911 218.624 392.649 218.624C393.387 218.624 394.096 218.914 394.622 219.432L395.72 220.53C396.238 221.056 396.528 221.764 396.528 222.503C396.528 223.241 396.238 223.949 395.72 224.475L394.622 225.573C394.365 225.835 394.058 226.042 393.719 226.183C393.38 226.323 393.016 226.395 392.649 226.392ZM392.649 220.474C392.527 220.473 392.406 220.497 392.294 220.545C392.182 220.593 392.081 220.664 391.998 220.753L390.9 221.851C390.813 221.938 390.744 222.041 390.696 222.154C390.649 222.268 390.625 222.389 390.625 222.512C390.625 222.635 390.649 222.756 390.696 222.87C390.744 222.983 390.813 223.086 390.9 223.173L391.998 224.27C392.172 224.441 392.406 224.536 392.649 224.536C392.893 224.536 393.127 224.441 393.301 224.27L394.398 223.173C394.486 223.086 394.555 222.983 394.602 222.87C394.649 222.756 394.674 222.635 394.674 222.512C394.674 222.389 394.649 222.268 394.602 222.154C394.555 222.041 394.486 221.938 394.398 221.851L393.301 220.753C393.217 220.664 393.117 220.593 393.004 220.545C392.892 220.497 392.771 220.473 392.649 220.474Z" fill="#5C5D6F"/>
<path d="M403.126 226.392C402.759 226.396 402.395 226.325 402.056 226.184C401.717 226.044 401.41 225.836 401.153 225.573L400.055 224.475C399.537 223.949 399.247 223.241 399.247 222.503C399.247 221.764 399.537 221.056 400.055 220.53L401.153 219.432C401.679 218.914 402.387 218.624 403.126 218.624C403.864 218.624 404.572 218.914 405.098 219.432L406.196 220.53C406.457 220.788 406.664 221.095 406.806 221.434C406.947 221.772 407.02 222.136 407.02 222.503C407.02 222.87 406.947 223.233 406.806 223.572C406.664 223.91 406.457 224.217 406.196 224.475L405.098 225.573C404.842 225.836 404.535 226.044 404.196 226.184C403.857 226.325 403.493 226.396 403.126 226.392ZM403.126 220.474C403.004 220.473 402.883 220.497 402.77 220.545C402.658 220.593 402.557 220.664 402.474 220.753L401.376 221.851C401.289 221.938 401.22 222.041 401.173 222.154C401.126 222.268 401.101 222.389 401.101 222.512C401.101 222.635 401.126 222.756 401.173 222.87C401.22 222.983 401.289 223.086 401.376 223.173L402.474 224.27C402.648 224.441 402.882 224.536 403.126 224.536C403.369 224.536 403.603 224.441 403.777 224.27L404.875 223.173C404.962 223.086 405.031 222.983 405.078 222.87C405.126 222.756 405.15 222.635 405.15 222.512C405.15 222.389 405.126 222.268 405.078 222.154C405.031 222.041 404.962 221.938 404.875 221.851L403.777 220.753C403.694 220.664 403.593 220.593 403.481 220.545C403.369 220.497 403.248 220.473 403.126 220.474Z" fill="#5C5D6F"/>
<path d="M413.658 226.392C413.291 226.396 412.927 226.325 412.588 226.184C412.249 226.044 411.942 225.836 411.685 225.573L410.587 224.475C410.069 223.949 409.779 223.241 409.779 222.503C409.779 221.764 410.069 221.056 410.587 220.53L411.685 219.432C412.211 218.914 412.92 218.624 413.658 218.624C414.396 218.624 415.105 218.914 415.63 219.432L416.728 220.53C416.989 220.788 417.197 221.095 417.338 221.434C417.479 221.772 417.552 222.136 417.552 222.503C417.552 222.87 417.479 223.233 417.338 223.572C417.197 223.91 416.989 224.217 416.728 224.475L415.63 225.573C415.374 225.836 415.067 226.044 414.728 226.184C414.389 226.325 414.025 226.396 413.658 226.392ZM413.658 220.474C413.536 220.473 413.415 220.497 413.303 220.545C413.19 220.593 413.09 220.664 413.007 220.753L411.909 221.851C411.821 221.938 411.752 222.041 411.705 222.154C411.658 222.268 411.633 222.389 411.633 222.512C411.633 222.635 411.658 222.756 411.705 222.87C411.752 222.983 411.821 223.086 411.909 223.173L413.007 224.27C413.18 224.441 413.414 224.536 413.658 224.536C413.901 224.536 414.135 224.441 414.309 224.27L415.407 223.173C415.494 223.086 415.563 222.983 415.611 222.87C415.658 222.756 415.682 222.635 415.682 222.512C415.682 222.389 415.658 222.268 415.611 222.154C415.563 222.041 415.494 221.938 415.407 221.851L414.309 220.753C414.226 220.664 414.125 220.593 414.013 220.545C413.901 220.497 413.78 220.473 413.658 220.474Z" fill="#5C5D6F"/>
<path d="M19.2193 223.433C18.8526 223.435 18.4892 223.363 18.1505 223.223C17.8118 223.082 17.5046 222.875 17.2469 222.614L16.149 221.516C15.6308 220.991 15.3403 220.282 15.3403 219.544C15.3403 218.806 15.6308 218.097 16.149 217.571L17.2469 216.474C17.7757 215.954 18.4874 215.663 19.2286 215.663C19.9699 215.663 20.6815 215.954 21.2104 216.474L22.2897 217.571C22.5507 217.829 22.758 218.137 22.8995 218.475C23.0409 218.814 23.1138 219.177 23.1138 219.544C23.1138 219.911 23.0409 220.274 22.8995 220.613C22.758 220.951 22.5507 221.259 22.2897 221.516L21.2104 222.614C20.9499 222.877 20.6395 223.084 20.2976 223.225C19.9556 223.365 19.589 223.436 19.2193 223.433ZM19.2193 217.516C18.9739 217.519 18.7398 217.619 18.568 217.795L17.4702 218.893C17.2985 219.07 17.2025 219.307 17.2025 219.553C17.2025 219.8 17.2985 220.037 17.4702 220.214L18.568 221.312C18.7451 221.483 18.982 221.579 19.2286 221.579C19.4752 221.579 19.7122 221.483 19.8892 221.312L20.9871 220.214C21.1588 220.037 21.2548 219.8 21.2548 219.553C21.2548 219.307 21.1588 219.07 20.9871 218.893L19.8892 217.795C19.8045 217.7 19.7015 217.623 19.5864 217.569C19.4713 217.514 19.3465 217.484 19.2193 217.478V217.516Z" fill="#5C5D6F"/>
<path d="M29.7889 223.433C29.422 223.436 29.0583 223.365 28.7195 223.224C28.3806 223.083 28.0735 222.876 27.8164 222.614L26.7372 221.516C26.4761 221.259 26.2689 220.951 26.1274 220.613C25.9859 220.274 25.9131 219.911 25.9131 219.544C25.9131 219.177 25.9859 218.814 26.1274 218.475C26.2689 218.137 26.4761 217.829 26.7372 217.571L27.8164 216.474C28.3541 215.971 29.0624 215.692 29.7982 215.692C30.534 215.692 31.2424 215.971 31.78 216.474L32.8593 217.571C33.382 218.095 33.6756 218.804 33.6756 219.544C33.6756 220.284 33.382 220.993 32.8593 221.516L31.7614 222.614C31.5037 222.875 31.1965 223.082 30.8578 223.223C30.519 223.363 30.1557 223.435 29.7889 223.433ZM29.7889 217.478C29.5447 217.488 29.3127 217.587 29.1376 217.758L28.0397 218.855C27.8681 219.032 27.7721 219.269 27.7721 219.516C27.7721 219.763 27.8681 220 28.0397 220.177L29.1376 221.275C29.3147 221.446 29.5516 221.542 29.7982 221.542C30.0448 221.542 30.2818 221.446 30.4588 221.275L31.5567 220.177C31.7284 220 31.8244 219.763 31.8244 219.516C31.8244 219.269 31.7284 219.032 31.5567 218.855L30.4588 217.758C30.2791 217.583 30.0396 217.483 29.7889 217.478Z" fill="#5C5D6F"/>
<path d="M40.3025 223.433C39.9327 223.437 39.5658 223.367 39.2237 223.226C38.8816 223.086 38.5713 222.878 38.3114 222.614L37.2322 221.516C36.9711 221.259 36.7638 220.951 36.6224 220.613C36.4809 220.274 36.4081 219.911 36.4081 219.544C36.4081 219.177 36.4809 218.814 36.6224 218.475C36.7638 218.137 36.9711 217.829 37.2322 217.572L38.3301 216.474C38.8646 215.973 39.5698 215.694 40.3025 215.694C41.0352 215.694 41.7404 215.973 42.275 216.474L43.3729 217.572C43.8911 218.097 44.1816 218.806 44.1816 219.544C44.1816 220.282 43.8911 220.991 43.3729 221.516L42.275 222.614C42.0179 222.876 41.7108 223.084 41.372 223.224C41.0331 223.365 40.6694 223.436 40.3025 223.433ZM40.3025 217.516C40.0519 217.52 39.8123 217.62 39.6326 217.795L38.5347 218.893C38.3631 219.07 38.2671 219.307 38.2671 219.553C38.2671 219.8 38.3631 220.037 38.5347 220.214L39.6326 221.312C39.8097 221.483 40.0466 221.579 40.2932 221.579C40.5398 221.579 40.7768 221.483 40.9538 221.312L42.0517 220.214C42.2234 220.037 42.3194 219.8 42.3194 219.553C42.3194 219.307 42.2234 219.07 42.0517 218.893L40.9538 217.795C40.7847 217.611 40.5519 217.498 40.3025 217.478V217.516Z" fill="#5C5D6F"/>
<path d="M52.6211 344.61C52.4286 344.609 52.2407 344.551 52.0815 344.442L45.978 340.181C45.878 340.112 45.7927 340.024 45.7272 339.922C45.6616 339.82 45.6172 339.706 45.5964 339.586C45.5756 339.466 45.5789 339.344 45.606 339.226C45.6332 339.107 45.6838 338.996 45.7547 338.897C45.894 338.696 46.1068 338.558 46.3471 338.513C46.5873 338.468 46.8358 338.519 47.0386 338.655L53.1421 342.916C53.3037 343.029 53.4253 343.19 53.4895 343.377C53.5536 343.563 53.5569 343.765 53.499 343.953C53.441 344.141 53.3248 344.306 53.167 344.424C53.0093 344.542 52.8181 344.607 52.6211 344.61Z" fill="#5C5D6F"/>
<path d="M42.2192 335.957C41.9725 335.957 41.7358 335.859 41.5613 335.685C41.3868 335.51 41.2888 335.273 41.2888 335.027V327.583C41.2888 327.337 41.3868 327.1 41.5613 326.925C41.7358 326.751 41.9725 326.653 42.2192 326.653C42.466 326.653 42.7026 326.751 42.8771 326.925C43.0516 327.1 43.1496 327.337 43.1496 327.583V335.027C43.1449 335.272 43.0453 335.506 42.8719 335.679C42.6984 335.853 42.4645 335.952 42.2192 335.957Z" fill="#5C5D6F"/>
<path d="M31.8172 344.61C31.6675 344.614 31.5191 344.58 31.3858 344.512C31.2525 344.444 31.1385 344.343 31.0543 344.219C30.9829 344.119 30.932 344.006 30.9046 343.886C30.8772 343.766 30.8737 343.642 30.8945 343.521C30.9152 343.4 30.9598 343.284 31.0255 343.18C31.0913 343.077 31.177 342.987 31.2776 342.916L37.3811 338.655C37.5869 338.518 37.8382 338.466 38.0816 338.511C38.3249 338.556 38.541 338.695 38.6837 338.897C38.7537 338.997 38.803 339.109 38.8288 339.228C38.8545 339.347 38.8562 339.47 38.8336 339.59C38.8111 339.71 38.7648 339.824 38.6975 339.925C38.6302 340.027 38.5432 340.114 38.4417 340.181L32.3383 344.442C32.187 344.552 32.0043 344.611 31.8172 344.61Z" fill="#5C5D6F"/>
<path d="M87.4743 173.675H76.3094C76.0626 173.675 75.8259 173.577 75.6515 173.402C75.477 173.228 75.3789 172.991 75.3789 172.744C75.3789 172.498 75.477 172.261 75.6515 172.086C75.8259 171.912 76.0626 171.814 76.3094 171.814H87.4743C87.7196 171.819 87.9534 171.918 88.1269 172.092C88.3004 172.265 88.3999 172.499 88.4047 172.744C88.4047 172.991 88.3067 173.228 88.1322 173.402C87.9577 173.577 87.721 173.675 87.4743 173.675ZM65.1444 173.675H53.9795C53.7327 173.675 53.4961 173.577 53.3216 173.402C53.1471 173.228 53.0491 172.991 53.0491 172.744C53.0491 172.498 53.1471 172.261 53.3216 172.086C53.4961 171.912 53.7327 171.814 53.9795 171.814H65.1444C65.3897 171.819 65.6236 171.918 65.797 172.092C65.9705 172.265 66.0701 172.499 66.0748 172.744C66.0748 172.991 65.9768 173.228 65.8023 173.402C65.6278 173.577 65.3912 173.675 65.1444 173.675Z" fill="#5C5D6F"/>
<path d="M379.623 362.958C378.884 362.955 378.175 362.661 377.651 362.139L376.553 361.041C376.035 360.515 375.744 359.807 375.744 359.068C375.744 358.33 376.035 357.622 376.553 357.096L377.651 355.998C377.909 355.737 378.216 355.53 378.555 355.388C378.893 355.247 379.256 355.174 379.623 355.174C379.99 355.174 380.354 355.247 380.692 355.388C381.031 355.53 381.338 355.737 381.596 355.998L382.694 357.096C382.955 357.354 383.162 357.661 383.304 358C383.445 358.338 383.518 358.701 383.518 359.068C383.518 359.435 383.445 359.799 383.304 360.137C383.162 360.476 382.955 360.783 382.694 361.041L381.596 362.139C381.072 362.661 380.363 362.955 379.623 362.958ZM379.623 357.04C379.501 357.039 379.38 357.063 379.268 357.111C379.156 357.159 379.055 357.23 378.972 357.319L377.874 358.417C377.785 358.501 377.714 358.602 377.666 358.714C377.617 358.826 377.592 358.946 377.592 359.068C377.592 359.19 377.617 359.311 377.666 359.423C377.714 359.535 377.785 359.636 377.874 359.72L378.972 360.818C379.056 360.907 379.157 360.978 379.269 361.026C379.381 361.075 379.501 361.1 379.623 361.1C379.746 361.1 379.866 361.075 379.978 361.026C380.09 360.978 380.191 360.907 380.275 360.818L381.373 359.72C381.462 359.636 381.533 359.535 381.581 359.423C381.63 359.311 381.655 359.19 381.655 359.068C381.655 358.946 381.63 358.826 381.581 358.714C381.533 358.602 381.462 358.501 381.373 358.417L380.275 357.319C380.192 357.23 380.091 357.159 379.979 357.111C379.866 357.063 379.745 357.039 379.623 357.04Z" fill="#5C5D6F"/>
<path d="M390.1 362.958C389.36 362.957 388.65 362.662 388.127 362.139L387.03 361.041C386.511 360.515 386.221 359.807 386.221 359.068C386.221 358.33 386.511 357.622 387.03 357.096L388.127 355.998C388.66 355.493 389.366 355.211 390.1 355.211C390.834 355.211 391.54 355.493 392.072 355.998L393.17 357.096C393.431 357.354 393.639 357.661 393.78 358C393.921 358.338 393.994 358.701 393.994 359.068C393.994 359.435 393.921 359.799 393.78 360.137C393.639 360.476 393.431 360.783 393.17 361.041L392.072 362.139C391.549 362.662 390.84 362.957 390.1 362.958ZM390.1 357.04C389.978 357.039 389.857 357.063 389.745 357.111C389.633 357.159 389.532 357.23 389.449 357.319L388.351 358.417C388.262 358.501 388.191 358.602 388.142 358.714C388.094 358.826 388.069 358.946 388.069 359.068C388.069 359.19 388.094 359.311 388.142 359.423C388.191 359.535 388.262 359.636 388.351 359.72L389.449 360.818C389.623 360.988 389.856 361.084 390.1 361.084C390.343 361.084 390.577 360.988 390.751 360.818L391.849 359.72C391.938 359.636 392.009 359.535 392.057 359.423C392.106 359.311 392.131 359.19 392.131 359.068C392.131 358.946 392.106 358.826 392.057 358.714C392.009 358.602 391.938 358.501 391.849 358.417L390.751 357.319C390.668 357.23 390.567 357.159 390.455 357.111C390.343 357.063 390.222 357.039 390.1 357.04Z" fill="#5C5D6F"/>
<path d="M400.632 362.958C399.892 362.957 399.183 362.662 398.66 362.139L397.562 361.041C397.044 360.515 396.753 359.807 396.753 359.068C396.753 358.33 397.044 357.622 397.562 357.096L398.66 355.998C399.192 355.493 399.898 355.211 400.632 355.211C401.366 355.211 402.072 355.493 402.605 355.998L403.703 357.096C403.964 357.354 404.171 357.661 404.312 358C404.454 358.338 404.527 358.701 404.527 359.068C404.527 359.435 404.454 359.799 404.312 360.137C404.171 360.476 403.964 360.783 403.703 361.041L402.605 362.139C402.082 362.662 401.372 362.957 400.632 362.958ZM400.632 357.04C400.51 357.039 400.389 357.063 400.277 357.111C400.165 357.159 400.064 357.23 399.981 357.319L398.883 358.417C398.794 358.501 398.723 358.602 398.675 358.714C398.626 358.826 398.601 358.946 398.601 359.068C398.601 359.19 398.626 359.311 398.675 359.423C398.723 359.535 398.794 359.636 398.883 359.72L399.981 360.818C400.155 360.988 400.389 361.084 400.632 361.084C400.876 361.084 401.11 360.988 401.284 360.818L402.381 359.72C402.47 359.636 402.541 359.535 402.59 359.423C402.638 359.311 402.663 359.19 402.663 359.068C402.663 358.946 402.638 358.826 402.59 358.714C402.541 358.602 402.47 358.501 402.381 358.417L401.284 357.319C401.2 357.23 401.1 357.159 400.987 357.111C400.875 357.063 400.754 357.039 400.632 357.04Z" fill="#5C5D6F"/>
<path d="M80.0311 232.365C79.9019 232.366 79.774 232.34 79.6555 232.289C79.537 232.237 79.4304 232.162 79.3426 232.067C79.2559 231.982 79.1871 231.881 79.1401 231.769C79.0931 231.657 79.0689 231.537 79.0689 231.416C79.0689 231.295 79.0931 231.175 79.1401 231.063C79.1871 230.951 79.2559 230.85 79.3426 230.765C89.6885 221.186 102.749 215.049 116.727 213.199C116.973 213.166 117.223 213.234 117.42 213.386C117.617 213.537 117.746 213.761 117.778 214.008C117.81 214.255 117.743 214.504 117.591 214.701C117.439 214.899 117.215 215.027 116.968 215.059C103.391 216.841 90.7001 222.79 80.6452 232.086C80.4826 232.252 80.2635 232.352 80.0311 232.365Z" fill="#5C5D6F"/>
<path d="M58.8177 272.447H58.6875C58.5665 272.429 58.4502 272.387 58.3454 272.324C58.2406 272.261 58.1492 272.178 58.0766 272.079C58.004 271.98 57.9516 271.869 57.9223 271.75C57.893 271.631 57.8875 271.507 57.9059 271.386C59.6167 259.547 64.4033 248.364 71.7877 238.952C71.9407 238.757 72.1648 238.631 72.4109 238.602C72.6569 238.572 72.9046 238.641 73.0996 238.794C73.2945 238.947 73.4207 239.171 73.4503 239.417C73.48 239.663 73.4107 239.911 73.2577 240.106C66.0636 249.287 61.4052 260.195 59.7482 271.74C59.6942 271.945 59.5733 272.126 59.4047 272.254C59.2361 272.382 59.0295 272.45 58.8177 272.447Z" fill="#5C5D6F"/>
<path d="M71.6016 322.745C71.4566 322.748 71.3131 322.716 71.1834 322.651C71.0538 322.586 70.9418 322.491 70.8573 322.373C63.9569 313.178 59.4779 302.396 57.8315 291.018C57.7995 290.772 57.8654 290.523 58.015 290.324C58.1646 290.126 58.386 289.994 58.6317 289.958C58.8759 289.926 59.1227 289.992 59.3181 290.142C59.5134 290.292 59.6413 290.514 59.6737 290.758C61.2668 301.821 65.6112 312.308 72.3087 321.257C72.4521 321.456 72.5128 321.702 72.4781 321.945C72.4434 322.188 72.316 322.408 72.1226 322.559C71.9724 322.674 71.7904 322.739 71.6016 322.745Z" fill="#5C5D6F"/>
<path d="M117.88 349.467H117.769C102.702 347.653 88.6534 340.923 77.798 330.319C77.7108 330.232 77.6416 330.129 77.5944 330.016C77.5472 329.903 77.5228 329.781 77.5228 329.658C77.5228 329.535 77.5472 329.414 77.5944 329.3C77.6416 329.187 77.7108 329.084 77.798 328.997C77.8816 328.908 77.9825 328.838 78.0945 328.789C78.2065 328.741 78.3273 328.716 78.4493 328.716C78.5714 328.716 78.6922 328.741 78.8042 328.789C78.9162 328.838 79.0171 328.908 79.1006 328.997C89.6596 339.316 103.332 345.858 117.992 347.606C118.239 347.621 118.469 347.733 118.633 347.918C118.797 348.103 118.881 348.345 118.866 348.592C118.852 348.839 118.739 349.069 118.554 349.234C118.369 349.398 118.127 349.481 117.88 349.467Z" fill="#5C5D6F"/>
<path d="M126.105 238.487C112.1 238.514 98.4246 234.233 86.9347 226.224C86.8326 226.155 86.7453 226.067 86.6777 225.963C86.6102 225.86 86.5638 225.745 86.5413 225.624C86.5188 225.502 86.5206 225.378 86.5466 225.258C86.5726 225.137 86.6223 225.023 86.6928 224.922C86.8383 224.723 87.0557 224.588 87.2988 224.546C87.542 224.504 87.7918 224.559 87.9954 224.698C99.172 232.494 112.478 236.659 126.105 236.626C126.352 236.626 126.588 236.724 126.763 236.899C126.937 237.073 127.035 237.31 127.035 237.557C127.035 237.804 126.937 238.04 126.763 238.215C126.588 238.389 126.352 238.487 126.105 238.487Z" fill="#5C5D6F"/>
<path d="M90.005 338.302C89.8059 338.297 89.6135 338.229 89.4561 338.107C89.2986 337.985 89.1844 337.816 89.1303 337.624C89.0761 337.433 89.0849 337.229 89.1552 337.043C89.2256 336.856 89.3538 336.698 89.5212 336.59C100.25 330.073 112.566 326.635 125.119 326.653C125.365 326.653 125.602 326.751 125.777 326.925C125.951 327.1 126.049 327.337 126.049 327.583C126.044 327.829 125.945 328.062 125.771 328.236C125.598 328.409 125.364 328.509 125.119 328.514C112.903 328.501 100.918 331.841 90.4702 338.171C90.3304 338.258 90.1692 338.303 90.005 338.302Z" fill="#5C5D6F"/>
<path d="M91.9218 276.578C91.6766 276.564 91.4466 276.455 91.2801 276.274C91.1135 276.094 91.0234 275.856 91.0286 275.611C92.294 246.544 102.882 222.242 117.359 215.171C117.469 215.117 117.589 215.086 117.711 215.078C117.833 215.07 117.955 215.087 118.071 215.127C118.187 215.167 118.294 215.229 118.386 215.31C118.477 215.391 118.552 215.489 118.606 215.599C118.66 215.709 118.691 215.828 118.699 215.951C118.706 216.073 118.69 216.195 118.65 216.311C118.61 216.427 118.548 216.534 118.467 216.625C118.386 216.717 118.288 216.792 118.178 216.846C104.222 223.638 94.0803 247.252 92.8522 275.685C92.8426 275.925 92.7403 276.152 92.5669 276.319C92.3934 276.485 92.1622 276.578 91.9218 276.578Z" fill="#5C5D6F"/>
<path d="M118.104 348.127C117.961 348.134 117.82 348.102 117.694 348.034C102.808 341.13 92.1079 316.493 90.9541 286.775C90.9492 286.653 90.9683 286.531 91.0105 286.416C91.0527 286.302 91.1172 286.196 91.2001 286.106C91.2831 286.017 91.3829 285.944 91.494 285.893C91.6051 285.841 91.7251 285.813 91.8473 285.808C92.0928 285.803 92.3308 285.893 92.5113 286.059C92.6917 286.226 92.8006 286.456 92.815 286.701C93.9315 315.302 104.482 339.827 118.494 346.359C118.605 346.409 118.705 346.481 118.788 346.57C118.871 346.659 118.935 346.764 118.977 346.879C119.018 346.993 119.037 347.115 119.031 347.237C119.024 347.358 118.994 347.477 118.941 347.587C118.865 347.746 118.747 347.88 118.599 347.976C118.451 348.071 118.279 348.123 118.104 348.127Z" fill="#5C5D6F"/>
<path d="M120.969 261.394C98.5276 260.743 78.3563 255.681 67.0053 247.828C66.9053 247.76 66.82 247.672 66.7545 247.569C66.689 247.467 66.6445 247.353 66.6237 247.233C66.6029 247.114 66.6062 246.991 66.6334 246.873C66.6606 246.755 66.7111 246.643 66.782 246.545C66.8494 246.443 66.9363 246.356 67.0378 246.289C67.1393 246.221 67.2533 246.175 67.373 246.153C67.4926 246.13 67.6156 246.132 67.7347 246.157C67.8537 246.183 67.9663 246.233 68.066 246.303C79.1379 253.951 98.9556 258.882 121.044 259.533C121.166 259.538 121.286 259.567 121.397 259.618C121.508 259.669 121.608 259.742 121.691 259.832C121.774 259.922 121.838 260.027 121.88 260.142C121.923 260.256 121.942 260.378 121.937 260.501C121.935 260.624 121.907 260.745 121.857 260.857C121.807 260.969 121.734 261.07 121.644 261.154C121.553 261.237 121.447 261.302 121.331 261.343C121.215 261.384 121.092 261.401 120.969 261.394Z" fill="#5C5D6F"/>
<path d="M67.3961 315.358C67.2464 315.362 67.098 315.328 66.9647 315.26C66.8314 315.192 66.7174 315.091 66.6332 314.967C66.4938 314.763 66.4391 314.514 66.4808 314.27C66.5225 314.027 66.6572 313.81 66.8565 313.664C78.2075 305.849 98.3788 300.769 120.82 300.118C121.061 300.122 121.292 300.215 121.468 300.38C121.643 300.546 121.751 300.77 121.769 301.011C121.774 301.133 121.755 301.255 121.713 301.37C121.671 301.485 121.606 301.59 121.523 301.68C121.44 301.77 121.341 301.842 121.229 301.894C121.118 301.945 120.998 301.974 120.876 301.978C98.7882 302.63 79.0076 307.561 67.9357 315.19C67.7839 315.313 67.5908 315.373 67.3961 315.358Z" fill="#5C5D6F"/>
<path d="M125.863 340.683C125.616 340.683 125.38 340.585 125.205 340.411C125.031 340.236 124.933 340 124.933 339.753V306.128C124.933 305.881 125.031 305.645 125.205 305.47C125.38 305.296 125.616 305.198 125.863 305.198C126.11 305.198 126.346 305.296 126.521 305.47C126.695 305.645 126.793 305.881 126.793 306.128V339.753C126.793 340 126.695 340.236 126.521 340.411C126.346 340.585 126.11 340.683 125.863 340.683Z" fill="#5C5D6F"/>
<path d="M125.863 296.936C125.616 296.936 125.38 296.838 125.205 296.663C125.031 296.489 124.933 296.252 124.933 296.005V265.432C124.933 265.185 125.031 264.948 125.205 264.774C125.38 264.599 125.616 264.501 125.863 264.501C126.108 264.506 126.342 264.606 126.516 264.779C126.689 264.953 126.789 265.187 126.793 265.432V296.005C126.793 296.252 126.695 296.489 126.521 296.663C126.346 296.838 126.11 296.936 125.863 296.936Z" fill="#5C5D6F"/>
<path d="M125.863 256.37C125.616 256.37 125.38 256.272 125.205 256.097C125.031 255.923 124.933 255.686 124.933 255.439V222.782C124.933 222.535 125.031 222.298 125.205 222.124C125.38 221.949 125.616 221.851 125.863 221.851C126.11 221.851 126.346 221.949 126.521 222.124C126.695 222.298 126.793 222.535 126.793 222.782V255.439C126.793 255.686 126.695 255.923 126.521 256.097C126.346 256.272 126.11 256.37 125.863 256.37Z" fill="#5C5D6F"/>
<path d="M125.733 282.198H96.7784C96.5317 282.198 96.295 282.1 96.1205 281.925C95.946 281.751 95.848 281.514 95.848 281.267C95.848 281.021 95.946 280.784 96.1205 280.61C96.295 280.435 96.5317 280.337 96.7784 280.337H125.733C125.98 280.337 126.216 280.435 126.391 280.61C126.565 280.784 126.663 281.021 126.663 281.267C126.663 281.514 126.565 281.751 126.391 281.925C126.216 282.1 125.98 282.198 125.733 282.198Z" fill="#5C5D6F"/>
<path d="M87.1022 282.198H68.0474C67.8006 282.198 67.5639 282.1 67.3895 281.925C67.215 281.751 67.1169 281.514 67.1169 281.267C67.1169 281.021 67.215 280.784 67.3895 280.61C67.5639 280.435 67.8006 280.337 68.0474 280.337H87.1022C87.3489 280.337 87.5856 280.435 87.7601 280.61C87.9346 280.784 88.0326 281.021 88.0326 281.267C88.0326 281.514 87.9346 281.751 87.7601 281.925C87.5856 282.1 87.3489 282.198 87.1022 282.198Z" fill="#5C5D6F"/>
<path d="M58.1292 290.702C56.2633 290.702 54.4392 290.148 52.8877 289.112C51.3363 288.075 50.127 286.602 49.413 284.878C48.6989 283.154 48.5121 281.257 48.8761 279.427C49.2401 277.597 50.1387 275.916 51.4581 274.596C52.7775 273.277 54.4586 272.378 56.2886 272.014C58.1187 271.65 60.0157 271.837 61.7396 272.551C63.4635 273.265 64.9369 274.475 65.9736 276.026C67.0103 277.577 67.5636 279.401 67.5636 281.267C67.5587 283.768 66.5631 286.165 64.7949 287.933C63.0266 289.701 60.6298 290.697 58.1292 290.702ZM58.1292 273.694C56.6313 273.694 55.167 274.138 53.9216 274.97C52.6761 275.802 51.7054 276.985 51.1322 278.369C50.5589 279.753 50.4089 281.276 50.7012 282.745C50.9934 284.214 51.7147 285.564 52.7739 286.623C53.8331 287.682 55.1825 288.403 56.6517 288.695C58.1208 288.988 59.6436 288.838 61.0275 288.264C62.4114 287.691 63.5942 286.721 64.4264 285.475C65.2586 284.23 65.7027 282.765 65.7027 281.267C65.6978 279.26 64.8983 277.337 63.4791 275.918C62.0598 274.498 60.1363 273.699 58.1292 273.694Z" fill="#5C5D6F"/>
<path d="M125.379 222.279C123.587 222.279 121.835 221.748 120.345 220.752C118.854 219.756 117.693 218.341 117.007 216.685C116.321 215.029 116.142 213.207 116.491 211.449C116.841 209.691 117.704 208.077 118.971 206.809C120.239 205.542 121.853 204.679 123.611 204.329C125.369 203.979 127.191 204.159 128.847 204.845C130.503 205.531 131.918 206.692 132.914 208.182C133.91 209.673 134.441 211.425 134.441 213.217C134.441 214.407 134.207 215.586 133.752 216.685C133.296 217.785 132.629 218.784 131.787 219.625C130.946 220.467 129.947 221.134 128.847 221.59C127.748 222.045 126.569 222.279 125.379 222.279ZM125.379 206.016C123.955 206.016 122.563 206.438 121.378 207.229C120.194 208.021 119.271 209.145 118.726 210.461C118.181 211.777 118.038 213.225 118.316 214.622C118.594 216.019 119.28 217.302 120.287 218.309C121.294 219.316 122.577 220.002 123.974 220.28C125.371 220.558 126.819 220.415 128.135 219.87C129.451 219.325 130.576 218.402 131.367 217.218C132.158 216.034 132.581 214.641 132.581 213.217C132.581 211.307 131.822 209.476 130.471 208.125C129.121 206.775 127.289 206.016 125.379 206.016Z" fill="#5C5D6F"/>
<path d="M126.235 358.175C124.443 358.175 122.691 357.644 121.201 356.648C119.71 355.652 118.549 354.237 117.863 352.581C117.177 350.925 116.998 349.103 117.347 347.345C117.697 345.587 118.56 343.972 119.827 342.705C121.095 341.438 122.709 340.575 124.467 340.225C126.225 339.875 128.047 340.055 129.703 340.741C131.359 341.427 132.774 342.588 133.77 344.078C134.766 345.569 135.298 347.321 135.298 349.113C135.293 351.515 134.336 353.817 132.638 355.516C130.939 357.214 128.637 358.17 126.235 358.175ZM126.235 341.912C124.811 341.912 123.419 342.334 122.234 343.125C121.05 343.917 120.127 345.041 119.582 346.357C119.037 347.673 118.894 349.121 119.172 350.518C119.45 351.915 120.136 353.198 121.143 354.205C122.15 355.212 123.433 355.898 124.83 356.176C126.227 356.454 127.675 356.311 128.991 355.766C130.307 355.221 131.432 354.298 132.223 353.114C133.014 351.93 133.437 350.537 133.437 349.113C133.437 347.203 132.678 345.371 131.327 344.021C129.977 342.67 128.145 341.912 126.235 341.912Z" fill="#5C5D6F"/>
<path d="M91.7915 286.887C90.6873 286.887 89.608 286.56 88.69 285.946C87.772 285.333 87.0565 284.461 86.6339 283.441C86.2114 282.421 86.1009 281.298 86.3163 280.216C86.5317 279.133 87.0633 278.138 87.8441 277.357C88.6248 276.577 89.6195 276.045 90.7024 275.829C91.7853 275.614 92.9077 275.725 93.9278 276.147C94.9478 276.57 95.8197 277.285 96.4331 278.203C97.0465 279.121 97.3739 280.201 97.3739 281.305C97.3739 282.785 96.7858 284.205 95.7389 285.252C94.6919 286.299 93.272 286.887 91.7915 286.887ZM91.7915 277.583C91.0554 277.583 90.3358 277.801 89.7238 278.21C89.1118 278.619 88.6348 279.2 88.3531 279.88C88.0714 280.561 87.9977 281.309 88.1413 282.031C88.2849 282.753 88.6394 283.416 89.1599 283.936C89.6803 284.457 90.3435 284.811 91.0654 284.955C91.7873 285.098 92.5356 285.025 93.2157 284.743C93.8957 284.461 94.477 283.984 94.8859 283.372C95.2948 282.76 95.5131 282.041 95.5131 281.305C95.523 280.81 95.434 280.318 95.2515 279.858C95.0689 279.397 94.7963 278.978 94.4497 278.625C94.1031 278.271 93.6895 277.991 93.2331 277.799C92.7766 277.607 92.2865 277.509 91.7915 277.509V277.583Z" fill="#5C5D6F"/>
<path d="M126.049 306.593C124.945 306.593 123.866 306.266 122.948 305.652C122.03 305.039 121.314 304.167 120.892 303.147C120.469 302.127 120.359 301.005 120.574 299.922C120.789 298.839 121.321 297.844 122.102 297.063C122.883 296.283 123.877 295.751 124.96 295.536C126.043 295.32 127.166 295.431 128.186 295.853C129.206 296.276 130.078 296.991 130.691 297.909C131.304 298.827 131.632 299.907 131.632 301.011C131.632 302.491 131.044 303.911 129.997 304.958C128.95 306.005 127.53 306.593 126.049 306.593ZM126.049 297.289C125.313 297.289 124.594 297.507 123.982 297.916C123.37 298.325 122.893 298.907 122.611 299.587C122.329 300.267 122.256 301.015 122.399 301.737C122.543 302.459 122.897 303.122 123.418 303.642C123.938 304.163 124.601 304.517 125.323 304.661C126.045 304.805 126.793 304.731 127.473 304.449C128.154 304.167 128.735 303.69 129.144 303.078C129.553 302.466 129.771 301.747 129.771 301.011C129.781 300.516 129.692 300.024 129.509 299.564C129.327 299.104 129.054 298.684 128.708 298.331C128.361 297.977 127.947 297.697 127.491 297.505C127.034 297.313 126.544 297.215 126.049 297.215V297.289Z" fill="#5C5D6F"/>
<path d="M125.863 266.158C124.759 266.158 123.68 265.83 122.762 265.217C121.844 264.603 121.128 263.732 120.706 262.711C120.283 261.691 120.173 260.569 120.388 259.486C120.603 258.403 121.135 257.408 121.916 256.628C122.696 255.847 123.691 255.315 124.774 255.1C125.857 254.885 126.979 254.995 127.999 255.418C129.019 255.84 129.891 256.556 130.505 257.474C131.118 258.392 131.446 259.471 131.446 260.575C131.446 262.056 130.857 263.476 129.811 264.523C128.764 265.569 127.344 266.158 125.863 266.158ZM125.863 256.854C125.127 256.854 124.407 257.072 123.795 257.481C123.183 257.89 122.706 258.471 122.425 259.151C122.143 259.831 122.069 260.579 122.213 261.301C122.357 262.023 122.711 262.686 123.232 263.207C123.752 263.727 124.415 264.082 125.137 264.225C125.859 264.369 126.607 264.295 127.287 264.013C127.967 263.732 128.549 263.255 128.958 262.643C129.366 262.031 129.585 261.311 129.585 260.575C129.595 260.08 129.506 259.588 129.323 259.128C129.141 258.668 128.868 258.249 128.521 257.895C128.175 257.542 127.761 257.261 127.305 257.069C126.848 256.878 126.358 256.779 125.863 256.779V256.854Z" fill="#5C5D6F"/>
<path d="M76.3094 241.148C75.2053 241.148 74.126 240.821 73.2079 240.207C72.2899 239.594 71.5744 238.722 71.1519 237.702C70.7294 236.682 70.6188 235.559 70.8342 234.477C71.0496 233.394 71.5813 232.399 72.362 231.618C73.1427 230.838 74.1374 230.306 75.2203 230.09C76.3032 229.875 77.4256 229.986 78.4457 230.408C79.4658 230.831 80.3376 231.546 80.951 232.464C81.5645 233.382 81.8919 234.462 81.8919 235.566C81.8919 237.046 81.3037 238.466 80.2568 239.513C79.2099 240.56 77.79 241.148 76.3094 241.148ZM76.3094 231.844C75.5733 231.844 74.8538 232.062 74.2418 232.471C73.6297 232.88 73.1527 233.461 72.871 234.141C72.5894 234.822 72.5157 235.57 72.6593 236.292C72.8029 237.014 73.1573 237.677 73.6778 238.197C74.1983 238.718 74.8614 239.072 75.5833 239.216C76.3053 239.359 77.0536 239.286 77.7336 239.004C78.4136 238.722 78.9949 238.245 79.4038 237.633C79.8128 237.021 80.031 236.302 80.031 235.566C80.0384 235.072 79.9476 234.582 79.7639 234.124C79.5802 233.666 79.3073 233.249 78.9609 232.898C78.6146 232.546 78.2018 232.267 77.7466 232.077C77.2914 231.886 76.8029 231.788 76.3094 231.788V231.844Z" fill="#5C5D6F"/>
<path d="M75.1557 331.752C74.0515 331.752 72.9722 331.424 72.0542 330.811C71.1362 330.197 70.4206 329.325 69.9981 328.305C69.5756 327.285 69.465 326.163 69.6805 325.08C69.8959 323.997 70.4275 323.002 71.2082 322.222C71.989 321.441 72.9837 320.909 74.0666 320.694C75.1495 320.479 76.2719 320.589 77.292 321.012C78.312 321.434 79.1839 322.15 79.7973 323.068C80.4107 323.986 80.7381 325.065 80.7381 326.169C80.7381 327.65 80.15 329.07 79.103 330.117C78.0561 331.163 76.6362 331.752 75.1557 331.752ZM75.1557 322.447C74.4196 322.447 73.7 322.666 73.088 323.075C72.476 323.484 71.999 324.065 71.7173 324.745C71.4356 325.425 71.3619 326.173 71.5055 326.895C71.6491 327.617 72.0036 328.28 72.524 328.801C73.0445 329.321 73.7077 329.676 74.4296 329.819C75.1515 329.963 75.8998 329.889 76.5799 329.607C77.2599 329.326 77.8411 328.849 78.2501 328.237C78.659 327.625 78.8773 326.905 78.8773 326.169C78.8847 325.676 78.7939 325.186 78.6102 324.728C78.4265 324.27 78.1535 323.853 77.8072 323.501C77.4609 323.15 77.0481 322.871 76.5929 322.68C76.1377 322.49 75.6491 322.392 75.1557 322.392V322.447Z" fill="#5C5D6F"/>
<path d="M172.328 232.365C172.215 232.367 172.102 232.347 171.997 232.306C171.891 232.264 171.795 232.202 171.714 232.123C161.654 222.816 148.958 216.855 135.372 215.059C135.25 215.044 135.132 215.004 135.025 214.942C134.918 214.881 134.825 214.799 134.749 214.701C134.598 214.504 134.53 214.255 134.562 214.008C134.594 213.761 134.723 213.537 134.92 213.386C135.118 213.234 135.367 213.166 135.614 213.199C149.576 215.039 162.624 221.163 172.96 230.728C173.093 230.855 173.185 231.02 173.224 231.2C173.263 231.38 173.248 231.568 173.18 231.74C173.112 231.911 172.995 232.059 172.843 232.163C172.692 232.268 172.512 232.325 172.328 232.328V232.365Z" fill="#5C5D6F"/>
<path d="M193.541 272.447C193.319 272.445 193.104 272.363 192.937 272.216C192.77 272.069 192.661 271.867 192.629 271.647C190.972 260.102 186.314 249.194 179.12 240.013C179.042 239.919 178.984 239.809 178.95 239.692C178.915 239.575 178.904 239.452 178.918 239.33C178.932 239.209 178.97 239.091 179.03 238.985C179.091 238.878 179.172 238.785 179.269 238.71C179.363 238.633 179.472 238.575 179.59 238.54C179.707 238.505 179.83 238.495 179.952 238.509C180.073 238.523 180.191 238.561 180.297 238.621C180.404 238.681 180.497 238.762 180.571 238.859C187.971 248.318 192.758 259.553 194.453 271.442C194.471 271.565 194.465 271.689 194.435 271.809C194.404 271.929 194.35 272.042 194.276 272.141C194.201 272.239 194.108 272.322 194.001 272.385C193.894 272.447 193.776 272.487 193.653 272.503L193.541 272.447Z" fill="#5C5D6F"/>
<path d="M180.757 322.745C180.555 322.749 180.358 322.684 180.199 322.559C180.002 322.411 179.871 322.191 179.836 321.946C179.801 321.702 179.865 321.454 180.013 321.257C186.705 312.307 191.043 301.82 192.629 290.758C192.646 290.635 192.687 290.518 192.75 290.411C192.813 290.305 192.895 290.212 192.994 290.138C193.092 290.064 193.205 290.009 193.324 289.978C193.443 289.947 193.568 289.94 193.69 289.957C193.812 289.975 193.93 290.016 194.036 290.078C194.143 290.141 194.235 290.224 194.31 290.322C194.384 290.421 194.438 290.533 194.469 290.652C194.5 290.772 194.507 290.896 194.49 291.018C192.834 302.393 188.356 313.173 181.464 322.373C181.381 322.483 181.274 322.573 181.152 322.637C181.03 322.701 180.895 322.738 180.757 322.745Z" fill="#5C5D6F"/>
<path d="M134.479 349.467C134.232 349.481 133.989 349.398 133.804 349.234C133.62 349.07 133.507 348.839 133.493 348.592C133.478 348.345 133.562 348.103 133.726 347.918C133.89 347.733 134.12 347.621 134.367 347.606C149.021 345.854 162.686 339.313 173.24 328.998C173.324 328.901 173.427 328.823 173.543 328.768C173.659 328.713 173.785 328.682 173.913 328.678C174.041 328.674 174.168 328.697 174.287 328.744C174.406 328.792 174.514 328.864 174.604 328.955C174.694 329.046 174.765 329.155 174.811 329.275C174.856 329.394 174.877 329.522 174.871 329.65C174.865 329.778 174.833 329.904 174.777 330.019C174.72 330.134 174.64 330.236 174.542 330.319C163.689 340.927 149.64 347.657 134.572 349.467H134.479Z" fill="#5C5D6F"/>
<path d="M126.235 238.487C125.989 238.487 125.752 238.389 125.577 238.215C125.403 238.04 125.305 237.804 125.305 237.557C125.305 237.31 125.403 237.073 125.577 236.899C125.752 236.724 125.989 236.626 126.235 236.626C139.863 236.663 153.17 232.497 164.345 224.698C164.547 224.555 164.798 224.498 165.042 224.54C165.287 224.582 165.504 224.719 165.647 224.922C165.791 225.124 165.847 225.375 165.806 225.619C165.764 225.864 165.627 226.081 165.424 226.224C153.927 234.233 140.247 238.514 126.235 238.487Z" fill="#5C5D6F"/>
<path d="M162.354 338.302C162.183 338.305 162.016 338.26 161.87 338.171C151.429 331.842 139.45 328.501 127.24 328.514C126.993 328.514 126.757 328.416 126.582 328.241C126.408 328.067 126.31 327.83 126.31 327.583C126.31 327.337 126.408 327.1 126.582 326.925C126.757 326.751 126.993 326.653 127.24 326.653C139.791 326.632 152.106 330.064 162.838 336.571C163.005 336.679 163.133 336.838 163.204 337.024C163.274 337.21 163.283 337.414 163.229 337.606C163.174 337.798 163.06 337.967 162.903 338.089C162.745 338.21 162.553 338.279 162.354 338.283V338.302Z" fill="#5C5D6F"/>
<path d="M160.437 276.578C160.197 276.578 159.966 276.485 159.792 276.319C159.619 276.152 159.516 275.925 159.507 275.685C158.26 247.27 148.1 223.582 134.2 216.846C133.978 216.737 133.808 216.545 133.727 216.311C133.647 216.077 133.663 215.821 133.772 215.599C133.88 215.377 134.073 215.207 134.306 215.127C134.54 215.047 134.796 215.062 135.018 215.171C149.496 222.242 160.084 246.544 161.368 275.611C161.368 275.855 161.277 276.09 161.111 276.27C160.945 276.449 160.718 276.559 160.474 276.578H160.437Z" fill="#5C5D6F"/>
<path d="M134.255 348.127C134.077 348.125 133.902 348.073 133.751 347.978C133.6 347.882 133.478 347.747 133.399 347.587C133.299 347.363 133.291 347.107 133.378 346.877C133.466 346.647 133.64 346.461 133.865 346.359C147.858 339.827 158.409 315.302 159.525 286.701C159.54 286.456 159.649 286.226 159.829 286.059C160.01 285.893 160.248 285.803 160.493 285.808C160.615 285.813 160.735 285.841 160.846 285.893C160.957 285.944 161.057 286.017 161.14 286.106C161.223 286.196 161.288 286.302 161.33 286.416C161.372 286.531 161.391 286.653 161.386 286.775C160.233 316.549 149.477 341.13 134.646 348.034C134.527 348.099 134.392 348.131 134.255 348.127Z" fill="#5C5D6F"/>
<path d="M131.483 261.394C131.236 261.394 130.999 261.296 130.825 261.121C130.65 260.947 130.552 260.71 130.552 260.463C130.552 260.217 130.65 259.98 130.825 259.806C130.999 259.631 131.236 259.533 131.483 259.533C153.589 258.882 173.389 253.951 184.46 246.303C184.56 246.225 184.675 246.169 184.797 246.137C184.919 246.106 185.046 246.099 185.171 246.118C185.296 246.137 185.416 246.182 185.523 246.248C185.63 246.315 185.722 246.403 185.794 246.507C185.866 246.611 185.917 246.728 185.942 246.851C185.967 246.975 185.967 247.103 185.942 247.226C185.916 247.35 185.866 247.467 185.793 247.571C185.721 247.674 185.628 247.762 185.521 247.828C174.17 255.681 153.887 260.743 131.557 261.394H131.483Z" fill="#5C5D6F"/>
<path d="M184.944 315.358C184.757 315.363 184.573 315.304 184.423 315.19C173.351 307.561 153.571 302.63 131.483 301.978C131.361 301.974 131.241 301.945 131.129 301.894C131.018 301.842 130.919 301.77 130.836 301.68C130.753 301.59 130.688 301.485 130.646 301.37C130.604 301.255 130.585 301.133 130.59 301.011C130.616 300.773 130.726 300.553 130.9 300.389C131.074 300.226 131.3 300.129 131.539 300.118C153.869 300.769 174.133 305.849 185.503 313.664C185.665 313.778 185.788 313.941 185.851 314.129C185.915 314.317 185.917 314.521 185.856 314.71C185.796 314.899 185.677 315.064 185.516 315.181C185.355 315.297 185.161 315.359 184.963 315.358H184.944Z" fill="#5C5D6F"/>
<path d="M155.673 282.198H126.552C126.305 282.198 126.068 282.1 125.894 281.925C125.719 281.751 125.621 281.514 125.621 281.267C125.621 281.021 125.719 280.784 125.894 280.61C126.068 280.435 126.305 280.337 126.552 280.337H155.673C155.92 280.337 156.157 280.435 156.331 280.61C156.506 280.784 156.604 281.021 156.604 281.267C156.604 281.514 156.506 281.751 156.331 281.925C156.157 282.1 155.92 282.198 155.673 282.198Z" fill="#5C5D6F"/>
<path d="M184.237 282.198H165.238C164.991 282.198 164.755 282.1 164.58 281.925C164.406 281.751 164.308 281.514 164.308 281.267C164.308 281.021 164.406 280.784 164.58 280.61C164.755 280.435 164.991 280.337 165.238 280.337H184.237C184.484 280.337 184.721 280.435 184.895 280.61C185.07 280.784 185.168 281.021 185.168 281.267C185.168 281.514 185.07 281.751 184.895 281.925C184.721 282.1 184.484 282.198 184.237 282.198Z" fill="#5C5D6F"/>
<path d="M194.23 290.702C192.364 290.702 190.54 290.148 188.988 289.112C187.437 288.075 186.228 286.602 185.514 284.878C184.799 283.154 184.613 281.257 184.977 279.427C185.341 277.597 186.239 275.916 187.559 274.596C188.878 273.277 190.559 272.378 192.389 272.014C194.219 271.65 196.116 271.837 197.84 272.551C199.564 273.265 201.038 274.475 202.074 276.026C203.111 277.577 203.664 279.401 203.664 281.267C203.659 283.768 202.664 286.165 200.895 287.933C199.127 289.701 196.73 290.697 194.23 290.702ZM194.23 273.694C192.732 273.694 191.268 274.138 190.022 274.97C188.777 275.802 187.806 276.985 187.233 278.369C186.66 279.753 186.51 281.276 186.802 282.745C187.094 284.214 187.815 285.564 188.874 286.623C189.934 287.682 191.283 288.403 192.752 288.695C194.221 288.988 195.744 288.838 197.128 288.264C198.512 287.691 199.695 286.721 200.527 285.475C201.359 284.23 201.803 282.765 201.803 281.267C201.798 279.26 200.999 277.337 199.58 275.918C198.16 274.498 196.237 273.699 194.23 273.694Z" fill="#5C5D6F"/>
<path d="M160.549 286.887C159.445 286.887 158.365 286.56 157.447 285.946C156.529 285.333 155.814 284.461 155.391 283.441C154.969 282.421 154.858 281.298 155.074 280.216C155.289 279.133 155.821 278.138 156.602 277.357C157.382 276.577 158.377 276.045 159.46 275.829C160.543 275.614 161.665 275.725 162.685 276.147C163.705 276.57 164.577 277.285 165.191 278.203C165.804 279.121 166.131 280.201 166.131 281.305C166.131 282.785 165.543 284.205 164.496 285.252C163.449 286.299 162.029 286.887 160.549 286.887ZM160.549 277.583C159.813 277.583 159.093 277.801 158.481 278.21C157.869 278.619 157.392 279.2 157.111 279.88C156.829 280.561 156.755 281.309 156.899 282.031C157.042 282.753 157.397 283.416 157.917 283.936C158.438 284.457 159.101 284.811 159.823 284.955C160.545 285.098 161.293 285.025 161.973 284.743C162.653 284.461 163.234 283.984 163.643 283.372C164.052 282.76 164.271 282.041 164.271 281.305C164.28 280.81 164.191 280.318 164.009 279.858C163.826 279.397 163.554 278.978 163.207 278.625C162.861 278.271 162.447 277.991 161.991 277.799C161.534 277.607 161.044 277.509 160.549 277.509V277.583Z" fill="#5C5D6F"/>
<path d="M176.05 241.148C174.945 241.148 173.866 240.821 172.948 240.207C172.03 239.594 171.315 238.722 170.892 237.702C170.469 236.682 170.359 235.559 170.574 234.477C170.79 233.394 171.321 232.399 172.102 231.618C172.883 230.838 173.878 230.306 174.96 230.09C176.043 229.875 177.166 229.986 178.186 230.408C179.206 230.831 180.078 231.546 180.691 232.464C181.305 233.382 181.632 234.462 181.632 235.566C181.632 237.046 181.044 238.466 179.997 239.513C178.95 240.56 177.53 241.148 176.05 241.148ZM176.05 231.844C175.313 231.844 174.594 232.062 173.982 232.471C173.37 232.88 172.893 233.461 172.611 234.141C172.329 234.822 172.256 235.57 172.399 236.292C172.543 237.014 172.897 237.677 173.418 238.197C173.938 238.718 174.602 239.072 175.323 239.216C176.045 239.359 176.794 239.286 177.474 239.004C178.154 238.722 178.735 238.245 179.144 237.633C179.553 237.021 179.771 236.302 179.771 235.566C179.779 235.072 179.688 234.582 179.504 234.124C179.32 233.666 179.047 233.249 178.701 232.898C178.355 232.546 177.942 232.267 177.487 232.077C177.032 231.886 176.543 231.788 176.05 231.788V231.844Z" fill="#5C5D6F"/>
<path d="M177.185 331.752C176.08 331.752 175.001 331.424 174.083 330.811C173.165 330.197 172.45 329.325 172.027 328.305C171.604 327.285 171.494 326.163 171.709 325.08C171.925 323.997 172.456 323.002 173.237 322.222C174.018 321.441 175.013 320.909 176.095 320.694C177.178 320.479 178.301 320.589 179.321 321.012C180.341 321.434 181.213 322.15 181.826 323.068C182.44 323.986 182.767 325.065 182.767 326.169C182.767 327.65 182.179 329.07 181.132 330.117C180.085 331.163 178.665 331.752 177.185 331.752ZM177.185 322.447C176.448 322.447 175.729 322.666 175.117 323.075C174.505 323.484 174.028 324.065 173.746 324.745C173.464 325.425 173.391 326.173 173.534 326.895C173.678 327.617 174.032 328.28 174.553 328.801C175.073 329.321 175.737 329.676 176.458 329.819C177.18 329.963 177.929 329.889 178.609 329.607C179.289 329.326 179.87 328.849 180.279 328.237C180.688 327.625 180.906 326.905 180.906 326.169C180.914 325.676 180.823 325.186 180.639 324.728C180.455 324.27 180.182 323.853 179.836 323.501C179.49 323.15 179.077 322.871 178.622 322.68C178.167 322.49 177.678 322.392 177.185 322.392V322.447Z" fill="#5C5D6F"/>
<path d="M414.979 328.495H352.865C352.677 328.495 352.497 328.421 352.365 328.288C352.232 328.155 352.158 327.975 352.158 327.788C352.158 327.696 352.176 327.605 352.212 327.52C352.248 327.435 352.3 327.359 352.366 327.294C352.432 327.23 352.51 327.18 352.596 327.146C352.681 327.113 352.773 327.097 352.865 327.099H414.979C415.66 327.099 416.313 326.829 416.795 326.347C417.276 325.866 417.547 325.213 417.547 324.532V257.542C417.547 256.861 417.276 256.208 416.795 255.726C416.313 255.245 415.66 254.974 414.979 254.974H346.705C346.369 254.974 346.036 255.041 345.726 255.17C345.415 255.299 345.133 255.489 344.896 255.727C344.659 255.966 344.472 256.249 344.345 256.561C344.218 256.872 344.154 257.206 344.156 257.542V296.619C344.151 296.803 344.075 296.979 343.943 297.107C343.81 297.236 343.633 297.308 343.449 297.308C343.266 297.308 343.091 297.235 342.962 297.106C342.833 296.977 342.761 296.802 342.761 296.619V257.542C342.758 257.022 342.858 256.507 343.055 256.027C343.253 255.546 343.543 255.109 343.909 254.74C344.276 254.372 344.712 254.08 345.192 253.88C345.671 253.681 346.186 253.578 346.705 253.578H414.979C416.03 253.578 417.038 253.996 417.782 254.739C418.525 255.483 418.943 256.491 418.943 257.542V324.532C418.938 325.581 418.519 326.587 417.776 327.329C417.034 328.071 416.029 328.49 414.979 328.495Z" fill="#5C5D6F"/>
<path d="M414.328 254.955H407.927V245.391H414.328V254.955ZM409.322 253.56H412.932V246.824H409.397L409.322 253.56Z" fill="#5C5D6F"/>
<path d="M405.675 254.955H399.274V245.391H405.675V254.955ZM400.669 253.56H404.279V246.824H400.669V253.56Z" fill="#5C5D6F"/>
<path d="M396.892 254.955H390.491V245.391H396.892V254.955ZM391.886 253.56H395.496V246.824H391.886V253.56Z" fill="#5C5D6F"/>
<path d="M388.183 254.955H381.763V245.391H388.183V254.955ZM383.159 253.56H386.788V246.824H383.159V253.56Z" fill="#5C5D6F"/>
<path d="M379.456 254.955H373.055V245.391H379.456V254.955ZM374.45 253.56H378.06V246.824H374.45V253.56Z" fill="#5C5D6F"/>
<path d="M370.747 254.955H364.328V245.391H370.747V254.955ZM365.723 253.56H369.352V246.824H365.723V253.56Z" fill="#5C5D6F"/>
<path d="M362.02 254.955H355.619V245.391H362.02V254.955ZM357.015 253.56H360.624V246.824H357.015V253.56Z" fill="#5C5D6F"/>
<path d="M353.311 254.955H346.892V245.391H353.311V254.955ZM348.287 253.56H352.009V246.824H348.287V253.56Z" fill="#5C5D6F"/>
<path d="M414.532 336.571H408.113V327.044H414.532V336.571ZM409.508 335.175H413.118V328.439H409.49L409.508 335.175Z" fill="#5C5D6F"/>
<path d="M405.805 336.571H399.404V327.044H405.805V336.571ZM400.8 335.175H404.41V328.439H400.8V335.175Z" fill="#5C5D6F"/>
<path d="M397.097 336.571H390.677V327.044H397.097V336.571ZM392.072 335.175H395.701V328.439H392.072V335.175Z" fill="#5C5D6F"/>
<path d="M388.369 336.571H381.968V327.044H388.369V336.571ZM383.364 335.175H387.067V328.439H383.345L383.364 335.175Z" fill="#5C5D6F"/>
<path d="M379.624 336.571H373.204V327.044H379.624V336.571ZM374.599 335.175H378.321V328.439H374.599V335.175Z" fill="#5C5D6F"/>
<path d="M370.933 336.571H364.532V327.044H370.933V336.571ZM365.928 335.175H369.538V328.439H365.928V335.175Z" fill="#5C5D6F"/>
<path d="M403.256 317.032H358.373C357.692 317.032 357.039 316.762 356.557 316.28C356.075 315.799 355.805 315.146 355.805 314.464V268.577C355.805 267.896 356.075 267.242 356.557 266.761C357.039 266.279 357.692 266.009 358.373 266.009H403.256C403.934 266.014 404.582 266.286 405.06 266.767C405.537 267.248 405.805 267.899 405.805 268.577V314.464C405.805 315.142 405.537 315.793 405.06 316.274C404.582 316.755 403.934 317.027 403.256 317.032ZM358.373 267.404C358.062 267.404 357.764 267.528 357.544 267.748C357.324 267.968 357.201 268.266 357.201 268.577V314.464C357.201 314.775 357.324 315.074 357.544 315.293C357.764 315.513 358.062 315.637 358.373 315.637H403.256C403.564 315.632 403.857 315.506 404.073 315.287C404.289 315.068 404.41 314.772 404.41 314.464V268.577C404.41 268.269 404.289 267.973 404.073 267.754C403.857 267.535 403.564 267.409 403.256 267.404H358.373Z" fill="#5C5D6F"/>
<path d="M344.156 263.999H334.629V257.598H344.156V263.999ZM336.024 262.603H342.76V258.993H336.024V262.603Z" fill="#5C5D6F"/>
<path d="M344.156 272.67H334.629V266.251H344.156V272.67ZM336.024 271.275H342.76V267.553H336.024V271.275Z" fill="#5C5D6F"/>
<path d="M344.156 281.379H334.629V274.978H344.156V281.379ZM336.024 279.983H342.76V276.373H336.024V279.983Z" fill="#5C5D6F"/>
<path d="M427 263.72H417.473V257.3H427V263.72ZM418.868 262.324H425.604V258.696H418.868V262.324Z" fill="#5C5D6F"/>
<path d="M427 272.429H417.473V266.027H427V272.429ZM418.868 271.033H425.604V267.423H418.868V271.033Z" fill="#5C5D6F"/>
<path d="M427 281.156H417.473V274.736H427V281.156ZM418.868 279.76H425.604V276.132H418.868V279.76Z" fill="#5C5D6F"/>
<path d="M427 289.864H417.473V283.463H427V289.864ZM418.868 288.469H425.604V284.859H418.868V288.469Z" fill="#5C5D6F"/>
<path d="M427 298.592H417.473V292.172H427V298.592ZM418.868 297.196H425.604V293.474H418.868V297.196Z" fill="#5C5D6F"/>
<path d="M427 307.3H417.473V300.899H427V307.3ZM418.868 305.905H425.604V302.295H418.868V305.905Z" fill="#5C5D6F"/>
<path d="M427 316.102H417.473V309.682H427V316.102ZM418.868 314.706H425.604V310.985H418.868V314.706Z" fill="#5C5D6F"/>
<path d="M427 324.736H417.473V318.335H427V324.736ZM418.868 323.341H425.604V319.824H418.868V323.341Z" fill="#5C5D6F"/>
<path d="M381.038 288.32C379.617 288.32 378.228 287.899 377.047 287.109C375.866 286.32 374.945 285.198 374.402 283.886C373.858 282.573 373.716 281.129 373.993 279.736C374.27 278.343 374.954 277.063 375.959 276.058C376.963 275.054 378.243 274.37 379.636 274.092C381.03 273.815 382.474 273.958 383.786 274.501C385.099 275.045 386.221 275.965 387.01 277.147C387.799 278.328 388.22 279.717 388.22 281.137C388.22 282.08 388.035 283.014 387.674 283.886C387.313 284.757 386.784 285.549 386.117 286.216C385.45 286.883 384.658 287.412 383.786 287.773C382.915 288.134 381.981 288.32 381.038 288.32ZM381.038 275.294C379.893 275.294 378.774 275.634 377.822 276.27C376.871 276.905 376.129 277.809 375.691 278.867C375.253 279.924 375.138 281.088 375.362 282.21C375.585 283.333 376.136 284.364 376.945 285.174C377.755 285.983 378.786 286.534 379.909 286.757C381.031 286.981 382.195 286.866 383.252 286.428C384.31 285.99 385.214 285.248 385.849 284.297C386.485 283.345 386.825 282.226 386.825 281.081C386.81 279.556 386.194 278.099 385.11 277.025C384.026 275.952 382.563 275.35 381.038 275.35V275.294Z" fill="#5C5D6F"/>
<path d="M398.585 299.169H363.471C363.287 299.164 363.112 299.087 362.983 298.955C362.855 298.823 362.783 298.646 362.783 298.462C362.783 298.279 362.855 298.104 362.985 297.975C363.114 297.846 363.289 297.773 363.471 297.773H398.585C398.677 297.771 398.769 297.786 398.854 297.82C398.94 297.853 399.018 297.904 399.084 297.968C399.15 298.032 399.202 298.109 399.238 298.194C399.274 298.278 399.292 298.37 399.292 298.462C399.292 298.649 399.218 298.829 399.085 298.961C398.953 299.094 398.773 299.169 398.585 299.169Z" fill="#5C5D6F"/>
<path d="M394.957 307.04H367.044C366.943 307.056 366.84 307.051 366.741 307.023C366.642 306.996 366.55 306.947 366.472 306.881C366.394 306.815 366.331 306.732 366.288 306.639C366.245 306.546 366.223 306.445 366.223 306.342C366.223 306.24 366.245 306.138 366.288 306.045C366.331 305.952 366.394 305.87 366.472 305.803C366.55 305.737 366.642 305.688 366.741 305.661C366.84 305.633 366.943 305.628 367.044 305.644H394.957C395.122 305.671 395.273 305.756 395.381 305.884C395.49 306.012 395.549 306.174 395.549 306.342C395.549 306.51 395.49 306.672 395.381 306.8C395.273 306.928 395.122 307.013 394.957 307.04Z" fill="#5C5D6F"/>
<path d="M346.575 314.893C346.391 314.893 346.214 314.821 346.082 314.692C345.95 314.563 345.873 314.388 345.868 314.204V305.905C345.868 304.285 345.549 302.68 344.929 301.183C344.309 299.687 343.4 298.327 342.255 297.181C341.109 296.035 339.749 295.127 338.252 294.507C336.755 293.887 335.151 293.567 333.531 293.567C331.911 293.567 330.307 293.887 328.81 294.507C327.313 295.127 325.953 296.035 324.807 297.181C323.662 298.327 322.753 299.687 322.133 301.183C321.513 302.68 321.194 304.285 321.194 305.905V314.241C321.194 314.424 321.121 314.599 320.992 314.728C320.863 314.857 320.688 314.93 320.505 314.93C320.321 314.93 320.144 314.858 320.012 314.729C319.88 314.601 319.803 314.426 319.798 314.241V305.942C319.798 302.3 321.245 298.807 323.82 296.231C326.396 293.656 329.889 292.209 333.531 292.209C337.173 292.209 340.666 293.656 343.242 296.231C345.817 298.807 347.264 302.3 347.264 305.942V314.241C347.25 314.416 347.172 314.579 347.045 314.699C346.918 314.82 346.75 314.888 346.575 314.893Z" fill="#5C5D6F"/>
<path d="M348.25 347.736H319.407C318.234 347.731 317.111 347.263 316.281 346.433C315.452 345.604 314.983 344.48 314.979 343.307V318.54C314.983 317.368 315.452 316.247 316.282 315.42C317.112 314.594 318.236 314.13 319.407 314.13H348.25C349.421 314.13 350.545 314.594 351.375 315.42C352.205 316.247 352.674 317.368 352.679 318.54V343.326C352.669 344.496 352.199 345.615 351.37 346.44C350.541 347.265 349.42 347.731 348.25 347.736ZM319.407 315.507C318.606 315.506 317.837 315.824 317.269 316.388C316.701 316.953 316.379 317.72 316.374 318.521V343.307C316.374 344.112 316.694 344.883 317.263 345.452C317.831 346.021 318.603 346.34 319.407 346.34H348.25C349.054 346.34 349.826 346.021 350.395 345.452C350.964 344.883 351.283 344.112 351.283 343.307V318.54C351.278 317.738 350.957 316.972 350.388 316.407C349.82 315.842 349.051 315.525 348.25 315.525L319.407 315.507Z" fill="#5C5D6F"/>
<path d="M333.829 334.878C333.049 334.878 332.286 334.646 331.637 334.213C330.988 333.779 330.483 333.163 330.184 332.442C329.886 331.722 329.807 330.928 329.96 330.163C330.112 329.398 330.488 328.695 331.039 328.143C331.591 327.592 332.294 327.216 333.059 327.064C333.824 326.911 334.618 326.989 335.338 327.288C336.059 327.587 336.675 328.092 337.109 328.741C337.542 329.39 337.774 330.153 337.774 330.933C337.774 331.979 337.358 332.982 336.618 333.722C335.878 334.462 334.875 334.878 333.829 334.878ZM333.829 328.383C333.325 328.383 332.832 328.533 332.412 328.813C331.993 329.093 331.666 329.491 331.473 329.957C331.281 330.423 331.23 330.936 331.328 331.43C331.427 331.925 331.67 332.379 332.026 332.735C332.383 333.092 332.837 333.335 333.331 333.433C333.826 333.531 334.338 333.481 334.804 333.288C335.27 333.095 335.668 332.768 335.948 332.349C336.229 331.93 336.378 331.437 336.378 330.933C336.373 330.258 336.103 329.613 335.626 329.135C335.149 328.658 334.503 328.388 333.829 328.383Z" fill="#5C5D6F"/>
<path d="M362.225 336.571H355.805V327.044H362.225V336.571ZM357.201 335.175H360.922V328.439H357.201V335.175Z" fill="#5C5D6F"/>
<path d="M344.156 289.864H334.629V283.463H344.156V289.864ZM336.024 288.469H342.76V284.859H336.024V288.469Z" fill="#5C5D6F"/>
<path d="M34.7759 87.9652H8.16612C6.31326 87.9688 4.51449 87.3409 3.0663 86.1851C1.61812 85.0293 0.606961 83.4146 0.199514 81.6071C-0.207933 79.7996 0.012648 77.9072 0.824897 76.2419C1.63715 74.5766 2.99258 73.2377 4.66777 72.446C4.64037 71.9005 4.64037 71.3539 4.66777 70.8084C4.69491 67.163 5.88251 63.621 8.05837 60.696C10.2342 57.771 13.2852 55.6151 16.7689 54.541C20.2526 53.4669 23.9879 53.5303 27.4331 54.7221C30.8783 55.9139 33.8543 58.1722 35.9296 61.1694C36.5466 61.0882 37.1681 61.0447 37.7904 61.0391C40.4346 61.0478 43.0124 61.868 45.1755 63.3888C47.3386 64.9096 48.9828 67.0578 49.8858 69.5431C51.6039 69.0227 53.4336 68.9945 55.167 69.4615C56.9004 69.9286 58.4682 70.8723 59.6923 72.1854C59.7945 72.2703 59.8773 72.376 59.9352 72.4955C59.9931 72.6149 60.0248 72.7454 60.0281 72.8782C60.0314 73.0109 60.0062 73.1428 59.9543 73.2651C59.9024 73.3873 59.8249 73.497 59.7271 73.5868C59.6293 73.6765 59.5133 73.7443 59.3871 73.7856C59.2609 73.8269 59.1273 73.8407 58.9954 73.826C58.8634 73.8114 58.7361 73.7687 58.622 73.7007C58.5079 73.6328 58.4097 73.5412 58.3339 73.4322C57.2562 72.2725 55.8482 71.472 54.3005 71.1392C52.7528 70.8064 51.1402 70.9572 49.6811 71.5714L48.6948 72.018L48.3971 70.9945C47.7606 68.6643 46.3757 66.6079 44.4558 65.1419C42.5359 63.6759 40.1874 62.8816 37.7718 62.8813C37.0599 62.8849 36.3499 62.9534 35.6505 63.086L35.0364 63.2163L34.6828 62.6766C32.9142 59.8762 30.2844 57.7255 27.1887 56.5479C24.093 55.3702 20.6987 55.2292 17.516 56.146C14.3333 57.0629 11.5341 58.988 9.53934 61.6321C7.54456 64.2762 6.46192 67.4963 6.45416 70.8084C6.45746 71.5057 6.5072 72.2019 6.60303 72.8925V73.6369L5.89591 73.8974C4.51291 74.4214 3.35801 75.4148 2.63297 76.7038C1.90793 77.9928 1.65886 79.4957 1.92928 80.9497C2.19969 82.4037 2.97239 83.7165 4.11239 84.6587C5.25238 85.6009 6.68718 86.1126 8.16612 86.1044H34.7759C35.0226 86.1044 35.2593 86.2024 35.4338 86.3769C35.6083 86.5514 35.7063 86.788 35.7063 87.0348C35.7063 87.2816 35.6083 87.5182 35.4338 87.6927C35.2593 87.8672 35.0226 87.9652 34.7759 87.9652Z" fill="#5C5D6F"/>
<path d="M66.3168 135.267C66.0715 135.263 65.8376 135.163 65.6641 134.99C65.4907 134.816 65.3911 134.582 65.3864 134.337V122.576C65.3864 122.33 65.4844 122.093 65.6589 121.919C65.8333 121.744 66.07 121.646 66.3168 121.646C66.5635 121.646 66.8002 121.744 66.9747 121.919C67.1492 122.093 67.2472 122.33 67.2472 122.576V134.374C67.2376 134.614 67.1353 134.842 66.9618 135.008C66.7884 135.175 66.5572 135.267 66.3168 135.267Z" fill="#5C5D6F"/>
<path d="M109.544 140.385H72.3273C72.0821 140.38 71.8482 140.28 71.6747 140.107C71.5012 139.933 71.4017 139.699 71.3969 139.454C71.3969 139.207 71.4949 138.971 71.6694 138.796C71.8439 138.622 72.0806 138.524 72.3273 138.524H109.544C109.791 138.524 110.027 138.622 110.202 138.796C110.376 138.971 110.474 139.207 110.474 139.454C110.474 139.701 110.376 139.938 110.202 140.112C110.027 140.287 109.791 140.385 109.544 140.385Z" fill="#5C5D6F"/>
<path d="M59.5621 140.385H23.1086C22.8618 140.385 22.6252 140.287 22.4507 140.112C22.2762 139.938 22.1782 139.701 22.1782 139.454C22.1782 139.207 22.2762 138.971 22.4507 138.796C22.6252 138.622 22.8618 138.524 23.1086 138.524H59.5621C59.8088 138.524 60.0455 138.622 60.22 138.796C60.3945 138.971 60.4925 139.207 60.4925 139.454C60.4925 139.701 60.3945 139.938 60.22 140.112C60.0455 140.287 59.8088 140.385 59.5621 140.385Z" fill="#5C5D6F"/>
<path d="M66.3168 146.879C64.9616 146.879 63.6369 146.477 62.5104 145.723C61.3839 144.97 60.5062 143.9 59.9885 142.647C59.4707 141.395 59.3362 140.017 59.6019 138.688C59.8677 137.359 60.5217 136.139 61.4813 135.182C62.4408 134.225 63.6627 133.575 64.9923 133.312C66.3219 133.05 67.6993 133.189 68.9503 133.71C70.2012 134.231 71.2694 135.112 72.0196 136.24C72.7698 137.369 73.1683 138.694 73.1646 140.05C73.1646 140.948 72.9874 141.838 72.643 142.667C72.2986 143.497 71.7939 144.251 71.1578 144.885C70.5217 145.52 69.7666 146.022 68.9359 146.364C68.1052 146.706 67.2152 146.881 66.3168 146.879ZM66.3168 135.063C65.3305 135.063 64.3663 135.355 63.5462 135.903C62.7261 136.451 62.0869 137.23 61.7094 138.141C61.332 139.052 61.2332 140.055 61.4256 141.023C61.618 141.99 62.093 142.878 62.7905 143.576C63.4879 144.273 64.3765 144.748 65.3439 144.941C66.3113 145.133 67.314 145.034 68.2252 144.657C69.1365 144.28 69.9154 143.64 70.4633 142.82C71.0113 142 71.3038 141.036 71.3038 140.05C71.3038 138.727 70.7784 137.459 69.8431 136.523C68.9079 135.588 67.6394 135.063 66.3168 135.063Z" fill="#5C5D6F"/>
<path d="M104.594 123.47H30.161C27.6138 123.471 25.0943 122.942 22.7624 121.917C20.4306 120.892 18.3374 119.393 16.616 117.516C14.8945 115.638 13.5824 113.423 12.7631 111.011C11.9437 108.6 11.6349 106.044 11.8564 103.506C12.0779 100.969 12.8248 98.505 14.0497 96.2717C15.2746 94.0383 16.9506 92.0842 18.9713 90.5334C20.9919 88.9826 23.3131 87.869 25.7873 87.2635C28.2615 86.658 30.8345 86.5738 33.343 87.0162C35.3063 82.9031 38.3916 79.4283 42.2434 76.9921C46.0953 74.5559 50.557 73.2574 55.1146 73.2461C55.7473 73.2461 56.3614 73.2461 56.9755 73.2461C60.932 68.0138 66.4343 64.1588 72.7031 62.2267C78.972 60.2946 85.6898 60.3835 91.9053 62.4807C98.1208 64.578 103.519 68.5773 107.336 73.9124C111.153 79.2475 113.195 85.6481 113.172 92.2079C113.172 92.6173 113.172 93.0267 113.172 93.4547C116.171 95.3147 118.481 98.1015 119.753 101.393C121.026 104.684 121.19 108.3 120.223 111.693C119.255 115.087 117.208 118.072 114.391 120.197C111.574 122.322 108.141 123.471 104.613 123.47H104.594ZM30.161 88.5979C25.7835 88.5979 21.5852 90.3369 18.4899 93.4323C15.3945 96.5276 13.6555 100.726 13.6555 105.103C13.6555 109.481 15.3945 113.679 18.4899 116.775C21.5852 119.87 25.7835 121.609 30.161 121.609H104.594C107.753 121.586 110.818 120.524 113.313 118.587C115.809 116.649 117.597 113.944 118.402 110.888C119.206 107.833 118.982 104.597 117.765 101.682C116.547 98.7664 114.404 96.3329 111.665 94.7572L111.163 94.4781V93.9013C111.163 93.343 111.163 92.7661 111.163 92.2079C111.157 86.0129 109.194 79.978 105.555 74.9646C101.916 69.9512 96.7857 66.2155 90.8973 64.2905C85.0089 62.3656 78.663 62.3498 72.7651 64.2454C66.8673 66.141 61.7189 69.8512 58.0547 74.8464L57.7384 75.2744H57.2174C56.4816 75.1997 55.7425 75.1624 55.003 75.1628C50.6764 75.1613 46.4436 76.423 42.8239 78.7931C39.2043 81.1632 36.3554 84.5386 34.627 88.5049L34.3106 89.1934L33.5663 89.0259C32.4607 88.771 31.3324 88.6276 30.1982 88.5979H30.161Z" fill="#5C5D6F"/>
<path d="M69.4803 112.026H63.1721C62.9432 112.028 62.7162 111.985 62.5041 111.899C62.292 111.813 62.099 111.686 61.9363 111.525C61.7737 111.364 61.6445 111.173 61.5564 110.962C61.4683 110.75 61.4229 110.524 61.4229 110.295V99.8373H56.1568C55.8235 99.8401 55.4966 99.7467 55.2151 99.5683C54.9337 99.3898 54.7098 99.1339 54.5702 98.8313C54.4307 98.5287 54.3815 98.1922 54.4286 97.8623C54.4757 97.5324 54.617 97.2231 54.8356 96.9716L64.9957 85.0809C65.169 84.9037 65.3759 84.7629 65.6044 84.6667C65.8329 84.5706 66.0783 84.5211 66.3262 84.5211C66.574 84.5211 66.8194 84.5706 67.0479 84.6667C67.2764 84.7629 67.4833 84.9037 67.6566 85.0809L77.8167 96.9716C78.0353 97.2231 78.1767 97.5324 78.2237 97.8623C78.2708 98.1922 78.2216 98.5287 78.0821 98.8313C77.9426 99.1339 77.7186 99.3898 77.4372 99.5683C77.1558 99.7467 76.8288 99.8401 76.4956 99.8373H71.2108V110.295C71.2108 110.754 71.0285 111.194 70.704 111.519C70.3794 111.843 69.9392 112.026 69.4803 112.026ZM63.3023 110.165H69.4803L69.35 97.9764H76.3095L66.3913 86.3835L56.4917 97.9764H63.2837L63.3023 110.165Z" fill="#5C5D6F"/>
<path d="M291.848 325.723H181.874C181.627 325.723 181.39 325.625 181.216 325.45C181.041 325.276 180.943 325.039 180.943 324.792C180.943 324.545 181.041 324.309 181.216 324.134C181.39 323.96 181.627 323.862 181.874 323.862H291.848C294.451 323.862 296.947 322.829 298.789 320.991C300.631 319.152 301.669 316.658 301.674 314.055V113.086C301.669 110.484 300.631 107.99 298.789 106.151C296.947 104.312 294.451 103.28 291.848 103.28H184.386C181.785 103.28 179.291 104.313 177.452 106.152C175.613 107.991 174.579 110.486 174.579 113.086V231.416C174.579 231.663 174.481 231.899 174.307 232.074C174.132 232.248 173.896 232.346 173.649 232.346C173.402 232.346 173.166 232.248 172.991 232.074C172.817 231.899 172.719 231.663 172.719 231.416V113.068C172.719 109.973 173.948 107.006 176.136 104.818C178.324 102.63 181.292 101.4 184.386 101.4H291.848C294.945 101.4 297.914 102.629 300.105 104.817C302.296 107.004 303.53 109.972 303.534 113.068V314.037C303.534 317.136 302.303 320.108 300.112 322.3C297.92 324.491 294.948 325.723 291.848 325.723Z" fill="#5C5D6F"/>
<path d="M281.428 313.85C279.739 313.85 278.087 313.349 276.683 312.411C275.278 311.472 274.183 310.138 273.537 308.578C272.89 307.017 272.721 305.3 273.051 303.643C273.38 301.986 274.194 300.464 275.388 299.27C276.583 298.075 278.105 297.262 279.762 296.932C281.418 296.603 283.136 296.772 284.696 297.418C286.257 298.065 287.591 299.159 288.53 300.564C289.468 301.969 289.969 303.62 289.969 305.309C289.969 307.574 289.069 309.747 287.467 311.349C285.866 312.95 283.693 313.85 281.428 313.85ZM281.428 298.647C280.106 298.647 278.814 299.04 277.715 299.775C276.616 300.509 275.759 301.554 275.254 302.776C274.749 303.997 274.618 305.342 274.877 306.638C275.137 307.934 275.775 309.125 276.711 310.058C277.647 310.992 278.839 311.626 280.136 311.882C281.433 312.138 282.777 312.003 283.997 311.494C285.218 310.986 286.26 310.127 286.991 309.026C287.723 307.925 288.112 306.631 288.108 305.309C288.108 304.433 287.935 303.565 287.599 302.756C287.263 301.946 286.771 301.211 286.151 300.592C285.53 299.973 284.793 299.483 283.983 299.149C283.173 298.815 282.304 298.645 281.428 298.647Z" fill="#5C5D6F"/>
<path d="M218.979 130.597C217.955 130.6 216.953 130.3 216.099 129.734C215.246 129.168 214.58 128.361 214.186 127.416C213.792 126.471 213.687 125.431 213.884 124.426C214.082 123.421 214.573 122.498 215.295 121.772C216.018 121.047 216.94 120.552 217.944 120.351C218.948 120.15 219.989 120.252 220.935 120.643C221.882 121.033 222.691 121.697 223.26 122.548C223.829 123.399 224.133 124.4 224.133 125.424C224.128 126.791 223.584 128.101 222.619 129.07C221.654 130.038 220.346 130.587 218.979 130.597ZM218.979 122.111C218.323 122.108 217.68 122.299 217.133 122.66C216.586 123.022 216.159 123.538 215.905 124.143C215.652 124.748 215.583 125.415 215.709 126.058C215.835 126.702 216.149 127.294 216.611 127.759C217.074 128.224 217.664 128.541 218.307 128.671C218.95 128.8 219.617 128.736 220.223 128.485C220.829 128.235 221.348 127.811 221.713 127.266C222.077 126.721 222.272 126.079 222.272 125.424C222.272 124.548 221.926 123.709 221.309 123.088C220.692 122.467 219.854 122.116 218.979 122.111Z" fill="#5C5D6F"/>
<path d="M236.88 130.597C235.856 130.6 234.854 130.3 234.001 129.734C233.147 129.168 232.482 128.361 232.087 127.416C231.693 126.471 231.588 125.431 231.785 124.426C231.983 123.421 232.474 122.498 233.197 121.772C233.919 121.047 234.841 120.552 235.845 120.351C236.849 120.15 237.89 120.252 238.836 120.643C239.783 121.033 240.592 121.697 241.161 122.548C241.73 123.399 242.034 124.4 242.034 125.424C242.034 126.792 241.492 128.105 240.526 129.075C239.559 130.045 238.248 130.592 236.88 130.597ZM236.88 122.111C236.224 122.108 235.582 122.299 235.034 122.66C234.487 123.022 234.06 123.538 233.806 124.143C233.553 124.748 233.485 125.415 233.61 126.058C233.736 126.702 234.05 127.294 234.512 127.759C234.975 128.224 235.565 128.541 236.208 128.671C236.851 128.8 237.518 128.736 238.124 128.485C238.731 128.235 239.249 127.811 239.614 127.266C239.979 126.721 240.173 126.079 240.173 125.424C240.173 124.548 239.827 123.709 239.21 123.088C238.593 122.467 237.755 122.116 236.88 122.111Z" fill="#5C5D6F"/>
<path d="M254.762 130.597C253.739 130.597 252.739 130.293 251.888 129.725C251.037 129.156 250.374 128.348 249.983 127.403C249.591 126.458 249.489 125.418 249.689 124.414C249.888 123.411 250.381 122.489 251.104 121.766C251.828 121.042 252.75 120.549 253.753 120.35C254.756 120.15 255.797 120.253 256.742 120.644C257.687 121.036 258.495 121.699 259.063 122.55C259.632 123.4 259.935 124.4 259.935 125.424C259.935 126.795 259.39 128.111 258.42 129.081C257.45 130.052 256.134 130.597 254.762 130.597ZM254.762 122.111C254.107 122.111 253.467 122.306 252.922 122.669C252.377 123.033 251.953 123.551 251.702 124.156C251.451 124.761 251.386 125.427 251.514 126.07C251.641 126.712 251.957 127.302 252.42 127.766C252.883 128.229 253.473 128.544 254.116 128.672C254.759 128.8 255.425 128.734 256.03 128.484C256.635 128.233 257.152 127.808 257.516 127.264C257.88 126.719 258.074 126.079 258.074 125.424C258.074 124.545 257.725 123.703 257.104 123.081C256.483 122.46 255.641 122.111 254.762 122.111Z" fill="#5C5D6F"/>
<path d="M266.541 158.695H209.712C209.465 158.695 209.228 158.597 209.054 158.423C208.879 158.248 208.781 158.011 208.781 157.765C208.781 157.518 208.879 157.281 209.054 157.107C209.228 156.932 209.465 156.834 209.712 156.834H266.541C266.788 156.834 267.025 156.932 267.199 157.107C267.374 157.281 267.472 157.518 267.472 157.765C267.472 158.011 267.374 158.248 267.199 158.423C267.025 158.597 266.788 158.695 266.541 158.695Z" fill="#5C5D6F"/>
<path d="M266.541 180.653H209.712C209.465 180.653 209.228 180.555 209.054 180.38C208.879 180.206 208.781 179.969 208.781 179.722C208.781 179.476 208.879 179.239 209.054 179.064C209.228 178.89 209.465 178.792 209.712 178.792H266.541C266.788 178.792 267.025 178.89 267.199 179.064C267.374 179.239 267.472 179.476 267.472 179.722C267.472 179.969 267.374 180.206 267.199 180.38C267.025 180.555 266.788 180.653 266.541 180.653Z" fill="#5C5D6F"/>
<path d="M257.527 245.158L217.342 204.974C217.168 204.799 217.07 204.563 217.07 204.316C217.07 204.069 217.168 203.832 217.342 203.658C217.517 203.483 217.753 203.385 218 203.385C218.247 203.385 218.483 203.483 218.658 203.658L258.842 243.842C259.012 244.019 259.107 244.255 259.107 244.5C259.107 244.746 259.012 244.981 258.842 245.158C258.668 245.333 258.431 245.431 258.185 245.431C257.938 245.431 257.701 245.333 257.527 245.158Z" fill="#5C5D6F"/>
<path d="M259.241 205.557L219.057 245.741C218.882 245.916 218.641 246.009 218.387 246.001C218.132 245.994 217.885 245.885 217.7 245.7C217.514 245.514 217.405 245.267 217.398 245.012C217.39 244.758 217.483 244.517 217.658 244.342L257.842 204.158C258.017 203.983 258.258 203.889 258.513 203.897C258.767 203.905 259.014 204.014 259.2 204.199C259.385 204.385 259.494 204.632 259.502 204.886C259.51 205.141 259.416 205.382 259.241 205.557Z" fill="#5C5D6F"/>
<path d="M135.372 215.059C135.125 215.059 134.888 214.961 134.714 214.787C134.539 214.612 134.441 214.376 134.441 214.129V138.542C134.456 136.394 135.311 134.337 136.823 132.811C137.572 132.059 138.462 131.463 139.443 131.057C140.423 130.651 141.475 130.444 142.536 130.448H171.639C171.886 130.448 172.123 130.546 172.297 130.72C172.472 130.895 172.57 131.131 172.57 131.378C172.57 131.625 172.472 131.862 172.297 132.036C172.123 132.211 171.886 132.309 171.639 132.309H142.536C141.715 132.314 140.902 132.481 140.146 132.8C139.389 133.12 138.703 133.585 138.126 134.169C136.959 135.344 136.292 136.924 136.265 138.58V214.129C136.265 214.369 136.172 214.601 136.006 214.774C135.839 214.948 135.612 215.05 135.372 215.059Z" fill="#5C5D6F"/>
<path d="M152.194 164.538C151.17 164.542 150.168 164.242 149.315 163.675C148.462 163.109 147.796 162.303 147.401 161.358C147.007 160.413 146.902 159.372 147.099 158.367C147.297 157.363 147.788 156.439 148.511 155.714C149.233 154.988 150.155 154.494 151.159 154.293C152.163 154.092 153.204 154.193 154.15 154.584C155.097 154.975 155.906 155.638 156.475 156.489C157.044 157.34 157.348 158.341 157.348 159.365C157.343 160.732 156.799 162.042 155.834 163.011C154.869 163.98 153.561 164.528 152.194 164.538ZM152.194 156.071C151.537 156.068 150.894 156.259 150.347 156.622C149.799 156.984 149.372 157.501 149.119 158.107C148.866 158.713 148.798 159.381 148.926 160.025C149.053 160.669 149.369 161.261 149.833 161.726C150.297 162.19 150.889 162.506 151.534 162.633C152.178 162.76 152.845 162.693 153.451 162.44C154.057 162.187 154.574 161.76 154.937 161.212C155.3 160.665 155.491 160.022 155.487 159.365C155.483 158.493 155.134 157.658 154.517 157.041C153.901 156.425 153.066 156.076 152.194 156.071Z" fill="#5C5D6F"/>
<path d="M340.863 258.044C340.616 258.044 340.379 257.946 340.205 257.772C340.03 257.597 339.932 257.361 339.932 257.114V138.542C339.932 136.889 339.275 135.303 338.106 134.134C336.937 132.965 335.352 132.309 333.698 132.309H304.595C304.35 132.304 304.116 132.204 303.942 132.031C303.769 131.857 303.669 131.623 303.665 131.378C303.665 131.131 303.763 130.895 303.937 130.72C304.112 130.546 304.348 130.448 304.595 130.448H333.698C335.845 130.448 337.904 131.301 339.422 132.819C340.94 134.337 341.793 136.396 341.793 138.542V257.114C341.793 257.361 341.695 257.597 341.52 257.772C341.346 257.946 341.109 258.044 340.863 258.044Z" fill="#5C5D6F"/>
<path d="M320.505 304.23H304.093C303.846 304.23 303.609 304.132 303.435 303.957C303.26 303.783 303.162 303.546 303.162 303.3C303.162 303.053 303.26 302.816 303.435 302.642C303.609 302.467 303.846 302.369 304.093 302.369H320.505C320.752 302.369 320.989 302.467 321.163 302.642C321.338 302.816 321.436 303.053 321.436 303.3C321.436 303.546 321.338 303.783 321.163 303.957C320.989 304.132 320.752 304.23 320.505 304.23Z" fill="#5C5D6F"/>
<path d="M324.059 164.538C323.036 164.538 322.036 164.235 321.185 163.666C320.334 163.098 319.671 162.29 319.28 161.345C318.888 160.399 318.786 159.359 318.986 158.356C319.185 157.352 319.678 156.431 320.401 155.707C321.125 154.984 322.047 154.491 323.05 154.291C324.053 154.092 325.094 154.194 326.039 154.586C326.984 154.977 327.792 155.64 328.36 156.491C328.929 157.342 329.232 158.342 329.232 159.365C329.232 160.737 328.687 162.053 327.717 163.023C326.747 163.993 325.431 164.538 324.059 164.538ZM324.059 156.071C323.403 156.071 322.762 156.266 322.217 156.631C321.672 156.996 321.247 157.514 320.997 158.12C320.747 158.727 320.683 159.394 320.812 160.037C320.941 160.68 321.259 161.27 321.724 161.732C322.189 162.195 322.781 162.509 323.424 162.634C324.068 162.76 324.735 162.692 325.34 162.438C325.945 162.185 326.461 161.757 326.822 161.21C327.184 160.663 327.375 160.021 327.371 159.365C327.371 158.931 327.286 158.501 327.119 158.1C326.952 157.699 326.708 157.335 326.4 157.029C326.092 156.723 325.727 156.481 325.325 156.317C324.924 156.152 324.493 156.069 324.059 156.071Z" fill="#5C5D6F"/>
<path d="M359.675 110.072C359.54 110.067 359.407 110.036 359.285 109.979C353.051 107.111 347.705 102.618 343.805 96.9728C339.906 91.3273 337.597 84.7365 337.121 77.8917C336.645 71.0469 338.02 64.2001 341.101 58.0693C344.182 51.9386 348.856 46.7497 354.632 43.0468C360.408 39.3439 367.075 37.2634 373.932 37.0234C380.789 36.7834 387.584 38.3929 393.605 41.6829C399.626 44.973 404.651 49.8225 408.153 55.7229C411.655 61.6233 413.505 68.3572 413.509 75.2186C413.509 75.4653 413.411 75.702 413.236 75.8765C413.062 76.051 412.825 76.149 412.579 76.149C412.332 76.149 412.095 76.051 411.921 75.8765C411.746 75.702 411.648 75.4653 411.648 75.2186C411.65 68.685 409.894 62.2712 406.563 56.6505C403.232 51.0297 398.45 46.4091 392.718 43.2737C386.986 40.1382 380.515 38.6035 373.985 38.8306C367.456 39.0576 361.108 41.0381 355.607 44.5642C350.107 48.0903 345.657 53.0319 342.725 58.8705C339.792 64.7091 338.486 71.2293 338.942 77.747C339.398 84.2646 341.6 90.5394 345.317 95.9127C349.034 101.286 354.128 105.56 360.066 108.285C360.178 108.337 360.278 108.411 360.361 108.502C360.444 108.593 360.509 108.699 360.55 108.815C360.592 108.931 360.61 109.054 360.603 109.178C360.597 109.301 360.566 109.421 360.513 109.532C360.441 109.694 360.323 109.831 360.174 109.926C360.026 110.022 359.852 110.073 359.675 110.072Z" fill="#5C5D6F"/>
<path d="M412.392 76.7631L403.814 70.5851C403.637 70.4337 403.524 70.2215 403.496 69.9904C403.468 69.7593 403.527 69.526 403.663 69.3368C403.798 69.1475 404 69.0159 404.228 68.9679C404.455 68.92 404.693 68.9592 404.893 69.0779L412.839 74.772L419.408 67.5334C419.585 67.3617 419.822 67.2657 420.068 67.2657C420.315 67.2657 420.552 67.3617 420.729 67.5334C420.816 67.6199 420.885 67.7228 420.933 67.8362C420.98 67.9496 421.004 68.0712 421.004 68.194C421.004 68.3168 420.98 68.4384 420.933 68.5518C420.885 68.6652 420.816 68.7681 420.729 68.8546L413.602 76.6886L412.392 76.7631Z" fill="#5C5D6F"/>
<path d="M375.511 73.4135C375.266 73.4088 375.032 73.3092 374.858 73.1358C374.685 72.9623 374.585 72.7284 374.581 72.4831V53.2236C374.585 52.9784 374.685 52.7445 374.858 52.571C375.032 52.3975 375.266 52.298 375.511 52.2932C375.758 52.2932 375.995 52.3912 376.169 52.5657C376.344 52.7402 376.442 52.9769 376.442 53.2236V72.4831C376.442 72.7299 376.344 72.9666 376.169 73.141C375.995 73.3155 375.758 73.4135 375.511 73.4135Z" fill="#5C5D6F"/>
<path d="M397.32 80.9127H381.912C381.665 80.9127 381.429 80.8147 381.254 80.6402C381.08 80.4657 380.982 80.2291 380.982 79.9823C380.982 79.7355 381.08 79.4989 381.254 79.3244C381.429 79.1499 381.665 79.0519 381.912 79.0519H397.32C397.567 79.0519 397.803 79.1499 397.978 79.3244C398.152 79.4989 398.25 79.7355 398.25 79.9823C398.25 80.2291 398.152 80.4657 397.978 80.6402C397.803 80.8147 397.567 80.9127 397.32 80.9127Z" fill="#5C5D6F"/>
<path d="M375.511 87.3139C374.061 87.3139 372.643 86.8839 371.438 86.0783C370.232 85.2727 369.292 84.1277 368.737 82.788C368.183 81.4483 368.037 79.9741 368.32 78.5519C368.603 77.1297 369.301 75.8234 370.327 74.798C371.352 73.7727 372.658 73.0744 374.081 72.7915C375.503 72.5086 376.977 72.6538 378.317 73.2087C379.656 73.7636 380.801 74.7034 381.607 75.909C382.413 77.1147 382.843 78.5322 382.843 79.9823C382.843 81.9267 382.07 83.7916 380.695 85.1665C379.32 86.5415 377.455 87.3139 375.511 87.3139ZM375.511 74.5301C374.428 74.5301 373.37 74.8514 372.47 75.4534C371.57 76.0553 370.868 76.9109 370.455 77.9116C370.041 78.9124 369.934 80.0133 370.147 81.0751C370.359 82.1368 370.882 83.1116 371.649 83.8759C372.416 84.6403 373.393 85.1599 374.455 85.3688C375.518 85.5778 376.618 85.4668 377.617 85.0499C378.617 84.633 379.47 83.9289 380.069 83.0268C380.668 82.1246 380.985 81.0651 380.982 79.9823C380.982 79.2647 380.84 78.5542 380.565 77.8915C380.29 77.2288 379.887 76.6269 379.378 76.1204C378.87 75.6139 378.267 75.2126 377.603 74.9397C376.94 74.6668 376.229 74.5276 375.511 74.5301Z" fill="#5C5D6F"/>
<path d="M421.79 129.369H410.625C410.378 129.369 410.141 129.271 409.967 129.096C409.792 128.922 409.694 128.685 409.694 128.438C409.694 128.191 409.792 127.955 409.967 127.78C410.141 127.606 410.378 127.508 410.625 127.508H421.79C422.036 127.508 422.273 127.606 422.448 127.78C422.622 127.955 422.72 128.191 422.72 128.438C422.72 128.685 422.622 128.922 422.448 129.096C422.273 129.271 422.036 129.369 421.79 129.369ZM399.46 129.369H388.295C388.048 129.369 387.811 129.271 387.637 129.096C387.463 128.922 387.365 128.685 387.365 128.438C387.365 128.191 387.463 127.955 387.637 127.78C387.811 127.606 388.048 127.508 388.295 127.508H399.46C399.707 127.508 399.943 127.606 400.118 127.78C400.292 127.955 400.39 128.191 400.39 128.438C400.39 128.685 400.292 128.922 400.118 129.096C399.943 129.271 399.707 129.369 399.46 129.369Z" fill="#5C5D6F"/>
<path d="M137.419 74.6976C136.681 74.7019 135.972 74.4142 135.446 73.8974L134.348 72.7995C133.829 72.2706 133.538 71.559 133.538 70.8178C133.538 70.0765 133.829 69.3649 134.348 68.836L135.446 67.7567C135.704 67.4956 136.011 67.2884 136.35 67.1469C136.689 67.0055 137.052 66.9326 137.419 66.9326C137.786 66.9326 138.149 67.0055 138.488 67.1469C138.826 67.2884 139.133 67.4956 139.391 67.7567L140.489 68.836C141.009 69.3649 141.3 70.0765 141.3 70.8178C141.3 71.559 141.009 72.2706 140.489 72.7995L139.391 73.8974C138.865 74.4142 138.156 74.7019 137.419 74.6976ZM137.419 68.7988C137.176 68.7973 136.942 68.8908 136.768 69.0593L135.67 70.1572C135.582 70.2437 135.513 70.3466 135.466 70.4599C135.419 70.5733 135.394 70.6949 135.394 70.8178C135.394 70.9406 135.419 71.0622 135.466 71.1756C135.513 71.2889 135.582 71.3919 135.67 71.4783L136.768 72.5762C136.941 72.7467 137.175 72.8422 137.419 72.8422C137.662 72.8422 137.896 72.7467 138.07 72.5762L139.168 71.4783C139.255 71.3919 139.324 71.2889 139.372 71.1756C139.419 71.0622 139.443 70.9406 139.443 70.8178C139.443 70.6949 139.419 70.5733 139.372 70.4599C139.324 70.3466 139.255 70.2437 139.168 70.1572L138.07 69.0593C137.895 68.8908 137.662 68.7973 137.419 68.7988Z" fill="#5C5D6F"/>
<path d="M147.951 74.7162C147.211 74.7155 146.502 74.421 145.979 73.8974L144.881 72.7995C144.361 72.2706 144.07 71.559 144.07 70.8178C144.07 70.0765 144.361 69.3649 144.881 68.836L145.979 67.7567C146.237 67.4956 146.544 67.2884 146.882 67.1469C147.221 67.0055 147.584 66.9326 147.951 66.9326C148.318 66.9326 148.681 67.0055 149.02 67.1469C149.359 67.2884 149.666 67.4956 149.924 67.7567L151.021 68.836C151.283 69.0955 151.491 69.4042 151.632 69.7443C151.774 70.0844 151.847 70.4493 151.847 70.8178C151.847 71.1862 151.774 71.5511 151.632 71.8912C151.491 72.2313 151.283 72.54 151.021 72.7995L149.924 73.8974C149.401 74.421 148.691 74.7155 147.951 74.7162ZM147.951 68.7988C147.708 68.7973 147.475 68.8908 147.3 69.0593L146.202 70.1572C146.115 70.2437 146.045 70.3466 145.998 70.4599C145.951 70.5733 145.927 70.6949 145.927 70.8178C145.927 70.9406 145.951 71.0622 145.998 71.1756C146.045 71.2889 146.115 71.3919 146.202 71.4783L147.3 72.5762C147.474 72.7467 147.708 72.8422 147.951 72.8422C148.195 72.8422 148.428 72.7467 148.602 72.5762L149.7 71.4783C149.787 71.3919 149.857 71.2889 149.904 71.1756C149.951 71.0622 149.975 70.9406 149.975 70.8178C149.975 70.6949 149.951 70.5733 149.904 70.4599C149.857 70.3466 149.787 70.2437 149.7 70.1572L148.602 69.0593C148.518 68.9723 148.417 68.9041 148.305 68.8592C148.192 68.8143 148.072 68.7937 147.951 68.7988Z" fill="#5C5D6F"/>
<path d="M158.483 74.7162C157.743 74.7155 157.034 74.421 156.511 73.8974L155.413 72.7995C154.894 72.2706 154.603 71.559 154.603 70.8178C154.603 70.0765 154.894 69.3649 155.413 68.836L156.511 67.7567C156.769 67.4956 157.076 67.2884 157.414 67.1469C157.753 67.0055 158.116 66.9326 158.483 66.9326C158.85 66.9326 159.214 67.0055 159.552 67.1469C159.891 67.2884 160.198 67.4956 160.456 67.7567L161.554 68.836C161.815 69.0955 162.023 69.4042 162.165 69.7443C162.306 70.0844 162.379 70.4493 162.379 70.8178C162.379 71.1862 162.306 71.5511 162.165 71.8912C162.023 72.2313 161.815 72.54 161.554 72.7995L160.456 73.8974C159.933 74.421 159.223 74.7155 158.483 74.7162ZM158.483 68.7988C158.241 68.7973 158.007 68.8908 157.832 69.0593L156.734 70.1572C156.647 70.2437 156.578 70.3466 156.53 70.4599C156.483 70.5733 156.459 70.6949 156.459 70.8178C156.459 70.9406 156.483 71.0622 156.53 71.1756C156.578 71.2889 156.647 71.3919 156.734 71.4783L157.832 72.5762C158.006 72.7467 158.24 72.8422 158.483 72.8422C158.727 72.8422 158.961 72.7467 159.135 72.5762L160.232 71.4783C160.32 71.3919 160.389 71.2889 160.436 71.1756C160.483 71.0622 160.508 70.9406 160.508 70.8178C160.508 70.6949 160.483 70.5733 160.436 70.4599C160.389 70.3466 160.32 70.2437 160.232 70.1572L159.135 69.0593C158.96 68.8908 158.726 68.7973 158.483 68.7988Z" fill="#5C5D6F"/>
</svg>
