<svg width="14" height="17" viewBox="0 0 14 17" fill="none" xmlns="http://www.w3.org/2000/svg">
<path d="M11.3876 7.78938H2.61183C2.4579 7.78938 2.31027 7.85052 2.20142 7.95937C2.09257 8.06822 2.03142 8.21585 2.03142 8.36978V13.3032C2.03142 13.4572 2.09257 13.6048 2.20142 13.7136C2.31027 13.8225 2.4579 13.8836 2.61183 13.8836H11.3876C11.5415 13.8836 11.6891 13.8225 11.798 13.7136C11.9068 13.6048 11.968 13.4572 11.968 13.3032V8.36978C11.968 8.21585 11.9068 8.06822 11.798 7.95937C11.6891 7.85052 11.5415 7.78938 11.3876 7.78938ZM10.8072 10.2532H7.58011V8.95019H10.8072V10.2532ZM6.4193 8.95019V10.2532H3.19224V8.95019H6.4193ZM3.19224 11.414H6.4193V12.7228H3.19224V11.414ZM7.58011 12.7228V11.4169H10.8072V12.7228H7.58011ZM13.9646 4.34466C13.9608 4.3363 13.9559 4.32849 13.9501 4.32144C13.9383 4.29539 13.9247 4.27018 13.9094 4.24599L13.8804 4.21117L13.834 4.15893L9.58542 0.151222L9.54769 0.1193L9.50706 0.0873772L9.45483 0.0583568L9.40839 0.0351406L9.34745 0.0177284L9.30102 0.00321822C9.26341 -0.00107274 9.22544 -0.00107274 9.18784 0.00321822H2.32163C1.70589 0.00321822 1.11538 0.247818 0.679989 0.683207C0.244599 1.1186 0 1.70911 0 2.32485V14.4263C0 15.0421 0.244599 15.6326 0.679989 16.068C1.11538 16.5034 1.70589 16.748 2.32163 16.748H11.6778C12.2935 16.748 12.884 16.5034 13.3194 16.068C13.7548 15.6326 13.9994 15.0421 13.9994 14.4263V4.57392C14.0029 4.49596 13.991 4.41808 13.9646 4.34466ZM9.76824 1.91856L11.9593 3.99351H9.76824V1.91856ZM11.6778 15.5871H2.32163C2.01376 15.5871 1.7185 15.4648 1.50081 15.2471C1.28311 15.0295 1.16081 14.7342 1.16081 14.4263V2.31324C1.16081 2.00537 1.28311 1.71011 1.50081 1.49242C1.7185 1.27472 2.01376 1.15242 2.32163 1.15242H8.60743V4.57392C8.60743 4.72786 8.66858 4.87548 8.77743 4.98433C8.88628 5.09318 9.03391 5.15433 9.18784 5.15433H12.8386V14.4263C12.8386 14.7342 12.7163 15.0295 12.4986 15.2471C12.2809 15.4648 11.9856 15.5871 11.6778 15.5871Z" fill="#28794E"/>
</svg>
