<svg width="26" height="26" viewBox="0 0 26 26" fill="none" xmlns="http://www.w3.org/2000/svg">
<path fill-rule="evenodd" clip-rule="evenodd" d="M24.5113 15.9826V11.0404L21.4416 10.7794C21.2963 10.3339 21.1167 9.90025 20.9044 9.48248L22.892 7.13413L19.3695 3.64231L17.0211 5.62996C16.607 5.40374 16.1728 5.2162 15.7242 5.06974L15.4709 2H10.5287L10.2677 5.06974C9.82094 5.21167 9.38705 5.39138 8.97076 5.60694L6.62242 3.64231L3.13059 7.13413L5.11057 9.48248C4.89622 9.90132 4.71158 10.3347 4.55802 10.7794L1.48828 11.0404V15.9826L4.55802 16.2436C4.7066 16.6879 4.88611 17.1213 5.09522 17.5405L3.13059 19.8889L6.62242 23.3807L8.97076 21.3931C9.38704 21.6087 9.82093 21.7884 10.2677 21.9303L10.5287 25H15.4709L15.7242 21.9303C16.172 21.7912 16.6061 21.6114 17.0211 21.3931L19.3695 23.3807L22.869 19.8889L20.8813 17.5405C21.0937 17.1228 21.2733 16.6891 21.4185 16.2436L24.5113 15.9826ZM12.9996 18.1159C10.4566 18.1159 8.39502 16.0544 8.39502 13.5113C8.39502 10.9683 10.4566 8.90673 12.9996 8.90673C15.5427 8.90673 17.6042 10.9683 17.6042 13.5113C17.6042 16.0544 15.5427 18.1159 12.9996 18.1159Z" fill="white"/>
</svg>
