<svg width="26" height="26" viewBox="0 0 26 26" fill="none" xmlns="http://www.w3.org/2000/svg">
<path d="M0.432339 14.7333H13.5518L10.695 17.5967C10.5275 17.7653 10.5275 18.0409 10.695 18.2095L12.5298 20.0478C12.6973 20.2164 12.9729 20.2164 13.1404 20.0478L19.866 13.3067C20.0335 13.1381 20.0335 12.8625 19.866 12.6939L13.1404 5.95292C12.9729 5.78431 12.6973 5.78431 12.5298 5.95292L10.695 7.7912C10.5275 7.95912 10.5275 8.23537 10.695 8.40398L13.5512 11.2667H0.432339C0.194553 11.2667 0 11.4617 0 11.7V14.3C0 14.539 0.194553 14.7333 0.432339 14.7333Z" fill="white"/>
<path d="M23.3463 0H2.59404C1.16732 0 0 1.17 0 2.6V9.1C0 9.33903 0.194553 9.53333 0.432339 9.53333H3.02638C3.26416 9.53333 3.45872 9.33903 3.45872 9.1V3.9C3.45872 3.66167 3.65327 3.46667 3.89106 3.46667H22.0493C22.2871 3.46667 22.4817 3.66167 22.4817 3.9V22.1C22.4817 22.339 22.2871 22.5333 22.0493 22.5333H3.89106C3.65327 22.5333 3.45872 22.339 3.45872 22.1V16.9C3.45872 16.6617 3.26416 16.4667 3.02638 16.4667H0.432339C0.194553 16.4667 0 16.6617 0 16.9V23.4C0 24.8307 1.16732 26 2.59404 26H23.3463C24.7731 26 25.9404 24.8307 25.9404 23.4V2.6C25.9404 1.17 24.7731 0 23.3463 0Z" fill="white"/>
</svg>
