<svg width="48" height="70" viewBox="0 0 48 70" fill="none" xmlns="http://www.w3.org/2000/svg">
<g clip-path="url(#clip0)">
<path d="M47.354 10.3559C47.1627 10.9438 46.5889 11.2813 46.074 11.1079C43.9431 10.3064 41.6923 9.96005 39.4492 9.78869L37.7597 9.7395C37.1952 9.72548 36.6332 9.80064 36.0683 9.82563L35.2291 9.88281C34.9473 9.89653 34.6698 9.96284 34.3895 10.0016L32.7117 10.2644C25.7407 11.7174 19.5352 15.6516 15.2489 21.3354C13.0281 24.3 11.3734 27.6486 10.3677 31.2134C9.3345 34.864 8.88151 38.6543 9.02528 42.4457C9.28115 49.4642 11.494 56.4424 15.4887 61.8626L13.9118 63.2953C9.60468 57.4501 7.25944 50.014 6.98298 42.5349C6.82826 38.4797 7.31289 34.4256 8.41907 30.5213C9.50402 26.6803 11.2888 23.0726 13.6837 19.8794C18.2605 13.8016 24.8908 9.59379 32.3406 8.03901L34.133 7.75608C34.4322 7.71624 34.7291 7.64697 35.0301 7.63029L35.9319 7.57783C36.5344 7.55075 37.136 7.47403 37.742 7.48701L39.5529 7.53639C41.9622 7.70987 44.382 8.0859 46.6856 8.94888C46.9597 9.04838 47.1836 9.25188 47.3088 9.51525C47.4339 9.77863 47.4501 10.0807 47.354 10.3559Z" fill="white"/>
<path d="M16.5535 65.549C16.9206 65.6676 17.2461 65.2747 17.1532 64.8604C17.0064 64.2132 16.8729 63.5778 16.7511 62.96C16.6922 62.6475 16.6277 62.348 16.5899 62.0413L16.4842 61.0924C16.4184 60.4679 16.3623 59.8585 16.3158 59.264C16.2773 58.6504 16.2997 58.0246 16.2981 57.4417C16.3028 57.0622 15.9038 56.8792 15.5681 57.0985L12.5147 59.1883L9.45447 61.2805C9.12641 61.5018 9.18534 62.086 9.55524 62.3227C10.1354 62.6868 10.6907 63.0441 11.2699 63.3667C11.849 63.6894 12.4582 63.9626 13.0384 64.2361L13.9012 64.6361C14.196 64.7556 14.5031 64.86 14.7997 64.9656C15.396 65.1749 15.9806 65.3694 16.5535 65.549Z" fill="white"/>
</g>
<defs>
<clipPath id="clip0">
<rect width="62.6183" height="32.2579" fill="white" transform="matrix(-0.263158 0.964753 0.964753 0.263158 16.5684 0.649017)"/>
</clipPath>
</defs>
</svg>
