<svg width="22" height="22" viewBox="0 0 22 22" fill="none" xmlns="http://www.w3.org/2000/svg">
<path d="M12.9378 10.9936L21.5838 2.34758C22.121 1.81087 22.121 0.940041 21.5838 0.403333C21.0467 -0.133834 20.1768 -0.133834 19.6396 0.403333L10.9936 9.04933L2.34713 0.403333C1.80996 -0.133834 0.940042 -0.133834 0.402875 0.403333C-0.134292 0.940041 -0.134292 1.81087 0.402875 2.34758L9.04933 10.9936L0.402875 19.6396C-0.134292 20.1763 -0.134292 21.0471 0.402875 21.5838C0.671458 21.852 1.02346 21.9862 1.375 21.9862C1.72654 21.9862 2.07854 21.852 2.34713 21.5834L10.9936 12.9374L19.6396 21.5834C19.9082 21.852 20.2602 21.9862 20.6117 21.9862C20.9632 21.9862 21.3153 21.852 21.5838 21.5834C22.121 21.0467 22.121 20.1758 21.5838 19.6391L12.9378 10.9936Z" fill="#333238" fill-opacity="0.524513"/>
</svg>
