<?xml version="1.0" standalone="no"?>
<!DOCTYPE svg PUBLIC "-//W3C//DTD SVG 20010904//EN"
 "http://www.w3.org/TR/2001/REC-SVG-20010904/DTD/svg10.dtd">
<svg version="1.0" xmlns="http://www.w3.org/2000/svg"
 width="512.000000pt" height="512.000000pt" viewBox="0 0 512.000000 512.000000"
 preserveAspectRatio="xMidYMid meet">

<g transform="translate(0.000000,512.000000) scale(0.100000,-0.100000)"
fill="#00ADB5" stroke="none">
<path d="M78 5099 c-23 -12 -46 -35 -58 -59 -20 -39 -20 -51 -18 -2089 l3
-2050 21 -27 c11 -15 33 -37 48 -48 27 -20 41 -21 457 -24 l429 -3 0 -322 c0
-177 5 -339 9 -361 18 -76 98 -126 178 -112 34 7 84 53 433 402 l395 394 1522
2 c1519 3 1522 3 1549 24 15 11 37 33 48 48 l21 27 3 2050 c2 2039 2 2050 -18
2089 -13 26 -34 47 -60 60 -39 20 -53 20 -2482 20 -2413 -1 -2443 -1 -2480
-21z m2672 -646 c231 -56 438 -229 534 -448 46 -102 59 -172 65 -335 l6 -155
435 -5 c491 -6 470 -2 510 -84 l20 -43 -109 -829 c-81 -605 -115 -838 -128
-864 -10 -19 -33 -45 -52 -57 l-35 -24 -830 3 -831 3 -78 37 c-98 47 -181 127
-223 215 -23 48 -34 62 -51 62 -22 1 -23 -2 -23 -101 0 -119 -14 -159 -69
-195 l-34 -23 -469 0 c-525 0 -517 -1 -560 69 l-23 36 0 845 0 845 23 36 c43
70 35 69 560 69 l469 0 34 -23 c44 -29 69 -80 69 -139 l0 -48 93 0 92 0 133
265 132 265 0 259 c0 160 4 271 11 288 14 37 47 72 84 90 36 16 146 10 245
-14z"/>
<path d="M2710 3953 l-1 -198 -182 -359 c-164 -325 -185 -362 -217 -378 -29
-15 -60 -18 -192 -18 l-158 0 0 -385 0 -385 98 0 c84 0 106 -4 142 -23 49 -26
80 -75 80 -126 0 -55 36 -118 84 -146 l43 -25 706 0 706 0 6 33 c10 55 165
1230 165 1249 0 17 -23 18 -402 18 -451 0 -459 2 -509 71 -23 33 -24 41 -29
274 -5 211 -8 247 -27 297 -49 131 -174 257 -290 293 l-23 6 0 -198z"/>
<path d="M1100 2560 l0 -650 280 0 280 0 0 650 0 650 -280 0 -280 0 0 -650z"/>
</g>
</svg>
