<svg width="19" height="19" viewBox="0 0 19 19" fill="none" xmlns="http://www.w3.org/2000/svg">
<path fill-rule="evenodd" clip-rule="evenodd" d="M15.0415 12.7273L18.7416 16.4267C19.0867 16.7755 19.0867 17.3395 18.7379 17.6883L17.6876 18.7384C17.3425 19.0872 16.7784 19.0872 16.4295 18.7384L12.7294 15.039C12.5624 14.872 12.4697 14.6456 12.4697 14.4082V13.8033C11.1596 14.8275 9.51183 15.436 7.71932 15.436C3.45514 15.436 0 11.9814 0 7.718C0 3.45455 3.45514 0 7.71932 0C11.9835 0 15.4386 3.45455 15.4386 7.718C15.4386 9.5102 14.83 11.1577 13.8057 12.4675H14.4106C14.6481 12.4675 14.8745 12.5603 15.0415 12.7273ZM2.96896 7.718C2.96896 10.3451 5.09548 12.4675 7.71931 12.4675C10.3468 12.4675 12.4697 10.3414 12.4697 7.718C12.4697 5.09091 10.3431 2.96846 7.71931 2.96846C5.09177 2.96846 2.96896 5.09462 2.96896 7.718Z" fill="#BEE5D1"/>
</svg>
