<svg width="41" height="56" viewBox="0 0 41 56" fill="none" xmlns="http://www.w3.org/2000/svg">
<g clip-path="url(#clip0)">
<path d="M24.8568 54.9086C24.9968 54.4359 24.7722 53.9549 24.3556 53.8362C22.5935 53.4 20.9581 52.6106 19.407 51.7097L18.2747 50.9787C17.8975 50.7328 17.5622 50.4295 17.2024 50.1579L16.6768 49.7411C16.4979 49.6048 16.3455 49.4358 16.1789 49.2837L15.1953 48.353C11.2718 44.2487 8.97225 38.8601 8.7242 33.1892C8.60455 30.238 9.03035 27.2903 9.98024 24.4938C10.9508 21.6285 12.3658 18.9336 14.1732 16.5075C17.5125 12.0119 22.1192 8.42696 27.1927 6.67067L26.804 5.01696C21.3333 6.91122 16.4326 10.7372 12.8717 15.5262C10.9379 18.1205 9.42455 21.0031 8.38728 24.0681C7.36465 27.0819 6.90722 30.2586 7.03797 33.4386C7.29889 39.4996 9.75389 45.2599 13.946 49.6474L14.9958 50.6432C15.1744 50.8045 15.3381 50.9842 15.5284 51.1311L16.0972 51.5731C16.4808 51.8631 16.8414 52.1853 17.2454 52.4506L18.4575 53.2363C20.1188 54.2109 21.8786 55.0572 23.7819 55.531C24.007 55.5895 24.246 55.557 24.4472 55.4404C24.6485 55.3239 24.7956 55.1328 24.8568 54.9086Z" fill="white"/>
<path d="M29.5587 4.73028C29.8535 4.81818 29.8898 5.22334 29.6416 5.4536C29.2527 5.81253 28.878 6.16967 28.5188 6.52051C28.3389 6.69919 28.1612 6.86688 27.9978 7.0513L27.4996 7.62698C27.1743 8.00753 26.862 8.3826 26.5629 8.75218C26.2603 9.1379 25.9923 9.55917 25.7279 9.94144C25.5595 10.1929 25.2147 10.1328 25.0932 9.83709L24.0313 7.08443L22.966 4.3272C22.8505 4.03357 23.1531 3.6764 23.5031 3.68798C24.0488 3.71092 24.5751 3.72706 25.1014 3.77676C25.6276 3.82645 26.1513 3.92219 26.6561 4.00462L27.4037 4.13164C27.6514 4.18631 27.9003 4.25653 28.1429 4.32114C28.6292 4.45305 29.1012 4.58943 29.5587 4.73028Z" fill="white"/>
</g>
<defs>
<clipPath id="clip0">
<rect width="49.9302" height="25.7216" fill="white" transform="translate(0.245117 47.377) rotate(-70.7415)"/>
</clipPath>
</defs>
</svg>
