<svg width="29" height="35" viewBox="0 0 29 35" fill="none" xmlns="http://www.w3.org/2000/svg">
<path d="M14.502 29.5557C14.7801 29.5448 15.1014 29.4303 15.3041 29.2397L21.9156 23.0174C22.2945 22.5958 22.4509 21.7873 22.0128 21.316C21.5813 20.8519 20.7445 20.8657 20.3113 21.3281L15.6687 25.7031L15.6687 1.16663C15.6687 0.522317 15.1463 -4.04226e-05 14.502 -4.03944e-05C13.8576 -4.03662e-05 13.3353 0.522318 13.3353 1.16663L13.3353 25.7031L8.69268 21.3281C8.29388 20.93 7.42763 20.8564 6.99122 21.316C6.55484 21.7756 6.69427 22.6131 7.08849 23.0174L13.6999 29.2397C13.9261 29.4526 14.1916 29.5564 14.502 29.5557Z" fill="#5C5D6F"/>
<path d="M27.3453 24.1113C27.4996 24.1129 27.652 24.145 27.7937 24.2057C27.9355 24.2664 28.0637 24.3546 28.1711 24.4651C28.2784 24.5756 28.3628 24.7062 28.4192 24.8494C28.4756 24.9926 28.503 25.1456 28.4998 25.2994L28.4998 33.0585C28.4998 33.3672 28.3769 33.6632 28.1581 33.8815C27.9393 34.0997 27.6426 34.2224 27.3332 34.2224L1.66676 34.2224C1.35736 34.2224 1.06063 34.0997 0.841844 33.8815C0.62306 33.6632 0.500146 33.3672 0.500117 33.0585L0.500117 25.2994C0.497928 25.1452 0.52647 24.9921 0.584118 24.849C0.641766 24.7058 0.727358 24.5756 0.83591 24.4657C0.944461 24.3559 1.07381 24.2687 1.21644 24.2092C1.35908 24.1496 1.51215 24.119 1.66676 24.119C1.82138 24.119 1.97445 24.1496 2.11708 24.2092C2.25972 24.2687 2.38907 24.3559 2.49762 24.4657C2.60617 24.5756 2.69176 24.7058 2.74941 24.849C2.80706 24.9921 2.8356 25.1452 2.83341 25.2994L2.83341 31.8947L26.1665 31.8947L26.1665 25.2994C26.1633 25.1435 26.1915 24.9886 26.2494 24.8438C26.3073 24.699 26.3939 24.5672 26.5038 24.4564C26.6138 24.3456 26.7449 24.258 26.8895 24.1987C27.034 24.1394 27.1891 24.1097 27.3453 24.1113Z" fill="#5C5D6F"/>
</svg>
