<svg width="12" height="9" viewBox="0 0 12 9" fill="none" xmlns="http://www.w3.org/2000/svg">
<path d="M11.7596 1.30666C11.7596 1.67986 11.4571 1.9825 11.0837 1.9825H0.675838C0.302505 1.9825 0 1.67986 0 1.30666V0.675838C0 0.30264 0.302505 0 0.675838 0H11.0837C11.4571 0 11.7596 0.30264 11.7596 0.675838V1.30666Z" fill="#A7A9AC"/>
<path d="M9.73214 4.81533C9.73214 5.18867 9.42963 5.49117 9.0563 5.49117H2.70343C2.33009 5.49117 2.02759 5.18867 2.02759 4.81533V4.18464C2.02759 3.81131 2.33009 3.5088 2.70343 3.5088H9.0563C9.42963 3.5088 9.73214 3.81131 9.73214 4.18464V4.81533Z" fill="#A7A9AC"/>
<path d="M7.70458 8.32417C7.70458 8.69736 7.40207 9 7.02874 9H4.73089C4.35756 9 4.05505 8.69736 4.05505 8.32417V7.69334C4.05505 7.32014 4.35756 7.0175 4.73089 7.0175H7.02874C7.40207 7.0175 7.70458 7.32014 7.70458 7.69334V8.32417Z" fill="#A7A9AC"/>
</svg>
