<svg width="13" height="11" viewBox="0 0 13 11" fill="none" xmlns="http://www.w3.org/2000/svg">
<path d="M6.50002 7.98322C7.88942 7.98322 9.01956 6.86926 9.01956 5.49976C9.01956 5.07387 8.90002 4.67873 8.7075 4.3276L12.0797 1.0037L11.0614 0L9.67969 1.36193C8.72574 0.861734 7.64361 0.578275 6.50002 0.578275C3.5071 0.578275 0.907861 2.47305 0.0316863 5.29202C-0.0105621 5.42783 -0.0105621 5.57217 0.0316863 5.70798C0.421044 6.96012 1.15271 8.02581 2.10618 8.82745L0.920344 9.9963L1.93863 11L5.31082 7.6761C5.66705 7.86492 6.06793 7.98322 6.50002 7.98322ZM5.42076 5.49976C5.42076 4.91344 5.9047 4.43597 6.50002 4.43597C6.51922 4.43597 6.53651 4.4407 6.55523 4.44164L5.42652 5.55466C5.42556 5.53573 5.42076 5.51822 5.42076 5.49976ZM7.57927 5.49976C7.57927 6.08608 7.09534 6.56356 6.50002 6.56356C6.48082 6.56356 6.46353 6.55883 6.44481 6.55788L7.57351 5.44487C7.57447 5.4638 7.57927 5.48131 7.57927 5.49976ZM1.47822 5.49976C2.22765 3.3963 4.2186 1.99794 6.50002 1.99794C7.24369 1.99794 7.95471 2.14937 8.60284 2.42336L7.68922 3.3239C7.33347 3.13461 6.93259 3.0163 6.50002 3.0163C5.11062 3.0163 3.98048 4.13026 3.98048 5.49976C3.98048 5.92566 4.10002 6.3208 4.29254 6.67193L3.13167 7.81618C2.3928 7.22181 1.81044 6.43343 1.47822 5.49976Z" fill="#A7A9AC"/>
<path d="M12.9683 5.29202C12.7139 4.47335 12.3101 3.7356 11.7974 3.09581L10.7714 4.10708C11.0849 4.52399 11.3403 4.99058 11.5218 5.49977C10.7719 7.60323 8.78139 9.0016 6.49998 9.0016C6.27961 9.0016 6.06309 8.98503 5.84897 8.95901L4.63 10.1605C5.22676 10.328 5.85329 10.4213 6.49998 10.4213C9.4929 10.4213 12.0921 8.52696 12.9683 5.70751C13.0106 5.5717 13.0106 5.42784 12.9683 5.29202Z" fill="#A7A9AC"/>
</svg>
