<svg width="12" height="12" viewBox="0 0 12 12" fill="none" xmlns="http://www.w3.org/2000/svg">
<path d="M6.39373 6.10322L11.0138 6.10322C11.3007 6.10334 11.5334 5.88125 11.5333 5.60737C11.5333 5.33338 11.3008 5.11152 11.0138 5.11152L6.39373 5.11152L6.39361 0.701345C6.39361 0.427353 6.16118 0.205494 5.87415 0.205494C5.58723 0.205377 5.35456 0.42747 5.35468 0.701345L5.3548 5.11152L0.73462 5.11141C0.447704 5.11129 0.215035 5.33338 0.215157 5.60726C0.21528 5.74414 0.273447 5.86816 0.367372 5.95781C0.461296 6.04747 0.591224 6.10299 0.734743 6.10299L5.35493 6.10311L5.35493 10.5132C5.35493 10.6502 5.41309 10.7742 5.50702 10.8638C5.60094 10.9535 5.73087 11.009 5.87439 11.009C6.16131 11.0091 6.39398 10.787 6.39385 10.5132L6.39373 6.10322Z" fill="white"/>
</svg>
