<svg width="16" height="18" viewBox="0 0 16 18" fill="none" xmlns="http://www.w3.org/2000/svg">
<path d="M16 3.36C16 1.1552 11.9744 0 8 0C4.0256 0 0 1.1552 0 3.36C0 3.3984 0 3.4368 0 3.4784C0 3.52 0 3.52 0 3.52V14.08C0.000602318 14.1589 0.015791 14.237 0.0448 14.3104C0.4864 16.2624 4.2656 17.28 8 17.28C11.7344 17.28 15.5136 16.2624 15.9552 14.3104C15.9842 14.237 15.9994 14.1589 16 14.08V3.52C16 3.504 16 3.4912 16 3.4784C16 3.4656 16 3.3984 16 3.36ZM14.72 8.7776V10.4C14.72 10.6784 14.3616 11.136 13.3504 11.5744C12.0288 12.16 10.08 12.48 8 12.48C5.92 12.48 3.9712 12.16 2.6496 11.5744C1.6384 11.136 1.28 10.6784 1.28 10.4V8.7776H1.2992C1.3632 8.8192 1.4336 8.8608 1.5072 8.9024L1.6 8.96L1.7824 9.0528L1.8688 9.0976C1.9584 9.1392 2.0512 9.184 2.1504 9.2256C3.616 9.872 5.76 10.24 8 10.24C10.24 10.24 12.384 9.872 13.8624 9.2256C13.9616 9.184 14.0544 9.1392 14.1472 9.0944L14.224 9.056L14.416 8.9568L14.4864 8.9152C14.5632 8.8736 14.6368 8.832 14.704 8.7872L14.72 8.7776ZM14.72 6.88C14.72 7.1584 14.3616 7.616 13.3504 8.0544C12.0288 8.64 10.08 8.96 8 8.96C5.92 8.96 3.9712 8.64 2.6496 8.0544C1.6384 7.616 1.28 7.1584 1.28 6.88V5.2576C1.55345 5.42959 1.84023 5.5794 2.1376 5.7056C3.616 6.352 5.76 6.72 8 6.72C8.2816 6.72 8.56 6.72 8.8384 6.704C9.4784 6.6752 10.1184 6.6144 10.7264 6.528C11.1488 6.4672 11.5616 6.3968 11.952 6.3104C12.6098 6.1704 13.2527 5.96788 13.872 5.7056C14.1662 5.57913 14.4497 5.42932 14.72 5.2576V6.88ZM8 1.28C12.1024 1.28 14.72 2.512 14.72 3.36C14.72 3.6384 14.3616 4.096 13.3504 4.5344C12.0288 5.12 10.08 5.44 8 5.44C7.7408 5.44 7.4816 5.44 7.2288 5.424C6.976 5.408 6.6592 5.3952 6.3808 5.3696C5.75073 5.31761 5.12447 5.22677 4.5056 5.0976C4.29227 5.0528 4.08747 5.0048 3.8912 4.9536L3.7504 4.9184C3.37509 4.8158 3.00729 4.68749 2.6496 4.5344C1.6384 4.096 1.28 3.6384 1.28 3.36C1.28 2.512 3.8976 1.28 8 1.28ZM8 16C3.8976 16 1.28 14.768 1.28 13.92V12.2976H1.2992C1.3632 12.3392 1.4336 12.3808 1.5072 12.4224L1.6 12.48L1.7824 12.5728L1.8688 12.6176C1.9584 12.6592 2.0512 12.704 2.1504 12.7456C3.616 13.392 5.76 13.76 8 13.76C10.24 13.76 12.384 13.392 13.8624 12.7456C13.9616 12.704 14.0544 12.6592 14.1472 12.6144L14.224 12.576L14.416 12.4768L14.4864 12.4352C14.5632 12.3936 14.6368 12.352 14.704 12.3072V13.92C14.72 14.768 12.1024 16 8 16Z" fill="#5C5D6F"/>
</svg>
