<svg width="8" height="6" viewBox="0 0 8 6" fill="none" xmlns="http://www.w3.org/2000/svg">
<path d="M3.29485 5.64314L0.191029 1.51048C0.0874326 1.37276 0.0230023 1.20734 0.00510605 1.03315C-0.0127902 0.858956 0.0165701 0.683014 0.0898297 0.525442C0.163089 0.36787 0.277291 0.235028 0.419375 0.142109C0.561459 0.0491897 0.725691 -5.71337e-05 0.89329 4.97427e-08H7.10671C7.27431 -5.71337e-05 7.43854 0.0491897 7.58063 0.142109C7.72271 0.235028 7.83691 0.36787 7.91017 0.525442C7.98343 0.683014 8.01279 0.858956 7.99489 1.03315C7.977 1.20734 7.91257 1.37276 7.80897 1.51048L4.69937 5.64314C4.61582 5.75434 4.50918 5.84424 4.38753 5.90606C4.26588 5.96788 4.13238 6 3.99711 6C3.86184 6 3.72834 5.96788 3.60669 5.90606C3.48503 5.84424 3.3784 5.75434 3.29485 5.64314Z" fill="#A7A9AC"/>
</svg>
