<svg width="407" height="294" viewBox="0 0 407 294" fill="none" xmlns="http://www.w3.org/2000/svg">
<g clip-path="url(#clip0)">
<path d="M321.705 242.583C377.062 187.09 377.062 97.1176 321.705 41.6246C266.347 -13.8684 176.595 -13.8684 121.237 41.6246C65.8796 97.1176 65.8796 187.09 121.237 242.583C176.595 298.076 266.347 298.076 321.705 242.583Z" fill="#F1F1F3"/>
<path d="M251.843 163.158L211.658 122.974C211.484 122.799 211.386 122.563 211.386 122.316C211.386 122.069 211.484 121.832 211.658 121.658C211.833 121.483 212.069 121.385 212.316 121.385C212.563 121.385 212.799 121.483 212.974 121.658L253.158 161.842C253.328 162.019 253.423 162.255 253.423 162.5C253.423 162.746 253.328 162.981 253.158 163.158C252.984 163.333 252.747 163.431 252.5 163.431C252.254 163.431 252.017 163.333 251.843 163.158Z" fill="#5C5D6F"/>
<path d="M253.557 123.557L213.373 163.741C213.198 163.916 212.957 164.009 212.703 164.001C212.448 163.994 212.201 163.885 212.015 163.7C211.83 163.514 211.721 163.267 211.713 163.012C211.706 162.758 211.799 162.517 211.974 162.342L252.158 122.158C252.333 121.983 252.574 121.889 252.828 121.897C253.083 121.905 253.33 122.014 253.516 122.199C253.701 122.385 253.81 122.632 253.818 122.886C253.825 123.141 253.732 123.382 253.557 123.557Z" fill="#5C5D6F"/>
<path d="M314.253 204.674H167.761C167.515 204.669 167.281 204.569 167.107 204.395C166.933 204.22 166.833 203.985 166.828 203.739C166.828 203.49 166.926 203.253 167.101 203.077C167.276 202.902 167.514 202.803 167.761 202.803H314.253C314.501 202.803 314.738 202.902 314.913 203.077C315.088 203.253 315.186 203.49 315.186 203.739C315.186 203.987 315.088 204.224 314.913 204.4C314.738 204.575 314.501 204.674 314.253 204.674Z" fill="#5C5D6F"/>
<path d="M365.236 169.841C364.988 169.841 364.751 169.743 364.576 169.567C364.401 169.392 364.303 169.154 364.303 168.906V60.9476C364.303 60.6995 364.401 60.4616 364.576 60.2862C364.751 60.1108 364.988 60.0122 365.236 60.0122C365.482 60.017 365.716 60.1171 365.89 60.2915C366.064 60.4659 366.164 60.701 366.169 60.9476V168.906C366.169 169.154 366.071 169.392 365.896 169.567C365.721 169.743 365.483 169.841 365.236 169.841Z" fill="#5C5D6F"/>
<path d="M100.767 101.561C100.52 101.561 100.282 101.462 100.107 101.287C99.9323 101.111 99.834 100.873 99.834 100.625V35.4312C99.834 34.1908 100.326 33.0012 101.2 32.1242C102.075 31.2471 103.262 30.7544 104.499 30.7544H324.704C324.951 30.7544 325.189 30.8529 325.364 31.0284C325.539 31.2038 325.637 31.4417 325.637 31.6897C325.632 31.9363 325.532 32.1715 325.358 32.3458C325.184 32.5202 324.95 32.6203 324.704 32.6251H104.499C103.757 32.6251 103.045 32.9207 102.52 33.447C101.995 33.9732 101.7 34.6869 101.7 35.4312V100.625C101.7 100.873 101.602 101.111 101.427 101.287C101.252 101.462 101.015 101.561 100.767 101.561Z" fill="#5C5D6F"/>
<path d="M319.478 181.084H168.079C167.831 181.084 167.594 180.986 167.419 180.81C167.244 180.635 167.146 180.397 167.146 180.149C167.146 179.901 167.244 179.663 167.419 179.487C167.594 179.312 167.831 179.214 168.079 179.214H319.478C319.726 179.214 319.963 179.312 320.138 179.487C320.313 179.663 320.412 179.901 320.412 180.149C320.412 180.397 320.313 180.635 320.138 180.81C319.963 180.986 319.726 181.084 319.478 181.084Z" fill="#5C5D6F"/>
<path d="M351.109 170.777C350.862 170.777 350.625 170.678 350.45 170.503C350.275 170.327 350.176 170.089 350.176 169.841V62.5937C350.176 62.3456 350.275 62.1077 350.45 61.9323C350.625 61.7569 350.862 61.6584 351.109 61.6584C351.357 61.6584 351.594 61.7569 351.769 61.9323C351.944 62.1077 352.042 62.3456 352.042 62.5937V169.841C352.042 170.089 351.944 170.327 351.769 170.503C351.594 170.678 351.357 170.777 351.109 170.777Z" fill="#5C5D6F"/>
<path d="M114.856 101.448C114.608 101.448 114.371 101.35 114.196 101.174C114.021 100.999 113.923 100.761 113.923 100.513V47.3476C113.923 47.0995 114.021 46.8616 114.196 46.6862C114.371 46.5107 114.608 46.4122 114.856 46.4122H341.237C341.485 46.4122 341.722 46.5107 341.897 46.6862C342.072 46.8616 342.17 47.0995 342.17 47.3476C342.17 47.5956 342.072 47.8335 341.897 48.0089C341.722 48.1844 341.485 48.2829 341.237 48.2829H115.789V100.513C115.789 100.761 115.691 100.999 115.516 101.174C115.341 101.35 115.103 101.448 114.856 101.448Z" fill="#5C5D6F"/>
<path d="M302.03 250.861H163.935C163.193 250.861 162.481 250.566 161.956 250.04C161.431 249.513 161.136 248.8 161.136 248.055V234.96C161.136 234.216 161.431 233.503 161.956 232.976C162.481 232.45 163.193 232.154 163.935 232.154H302.03C302.772 232.154 303.484 232.45 304.009 232.976C304.534 233.503 304.829 234.216 304.829 234.96V248.055C304.829 248.8 304.534 249.513 304.009 250.04C303.484 250.566 302.772 250.861 302.03 250.861ZM163.935 234.025C163.688 234.025 163.451 234.124 163.276 234.299C163.101 234.474 163.002 234.712 163.002 234.96V248.055C163.002 248.303 163.101 248.541 163.276 248.717C163.451 248.892 163.688 248.991 163.935 248.991H302.03C302.277 248.991 302.515 248.892 302.69 248.717C302.864 248.541 302.963 248.303 302.963 248.055V234.96C302.963 234.712 302.864 234.474 302.69 234.299C302.515 234.124 302.277 234.025 302.03 234.025H163.935Z" fill="#5C5D6F"/>
<path d="M351.109 105.975H114.856C114.608 105.975 114.371 105.877 114.196 105.701C114.021 105.526 113.923 105.288 113.923 105.04V47.3476C113.923 47.0995 114.021 46.8616 114.196 46.6862C114.371 46.5107 114.608 46.4122 114.856 46.4122H339.371C339.619 46.4122 339.856 46.5107 340.031 46.6862C340.206 46.8616 340.304 47.0995 340.304 47.3476C340.304 47.5956 340.206 47.8335 340.031 48.0089C339.856 48.1844 339.619 48.2829 339.371 48.2829H115.789V104.105H350.176V61.4153C350.176 61.1672 350.274 60.9293 350.449 60.7539C350.624 60.5785 350.862 60.4799 351.109 60.4799C351.357 60.4799 351.594 60.5785 351.769 60.7539C351.944 60.9293 352.042 61.1672 352.042 61.4153V105.04C352.042 105.288 351.944 105.526 351.769 105.701C351.594 105.877 351.357 105.975 351.109 105.975Z" fill="#5C5D6F"/>
<path d="M260.863 234.063H201.016C200.77 234.058 200.535 233.958 200.361 233.783C200.187 233.609 200.087 233.374 200.083 233.127V203.739C200.083 203.49 200.181 203.253 200.356 203.077C200.531 202.902 200.768 202.803 201.016 202.803H218.389C218.521 202.802 218.651 202.83 218.77 202.885C218.889 202.94 218.995 203.021 219.08 203.121C219.169 203.218 219.236 203.334 219.275 203.46C219.314 203.587 219.324 203.72 219.304 203.851V204.131C219.232 204.583 219.188 205.039 219.173 205.497C219.11 207.095 219.369 208.69 219.936 210.186C220.502 211.681 221.364 213.046 222.47 214.2C223.576 215.353 224.902 216.271 226.371 216.897C227.839 217.524 229.418 217.847 231.014 217.847C232.61 217.847 234.189 217.524 235.657 216.897C237.125 216.271 238.452 215.353 239.558 214.2C240.663 213.046 241.525 211.681 242.092 210.186C242.658 208.69 242.918 207.095 242.854 205.497C242.849 205.039 242.805 204.582 242.724 204.131V203.851C242.704 203.72 242.714 203.587 242.753 203.46C242.791 203.334 242.858 203.218 242.948 203.121C243.036 203.02 243.145 202.94 243.268 202.885C243.39 202.83 243.523 202.802 243.657 202.803H261.012C261.259 202.803 261.497 202.902 261.672 203.077C261.847 203.253 261.945 203.49 261.945 203.739V233.127C261.947 233.264 261.919 233.399 261.863 233.523C261.807 233.648 261.724 233.759 261.621 233.848C261.518 233.937 261.397 234.002 261.266 234.039C261.135 234.077 260.997 234.084 260.863 234.063ZM201.874 232.192H259.93V204.674H244.571C244.571 204.936 244.571 205.216 244.571 205.497C244.639 207.344 244.335 209.186 243.677 210.912C243.019 212.639 242.02 214.215 240.74 215.546C239.461 216.876 237.927 217.935 236.23 218.658C234.533 219.381 232.708 219.754 230.864 219.754C229.021 219.754 227.196 219.381 225.499 218.658C223.802 217.935 222.268 216.876 220.989 215.546C219.709 214.215 218.71 212.639 218.052 210.912C217.394 209.186 217.09 207.344 217.158 205.497C217.139 205.223 217.139 204.948 217.158 204.674H201.874V232.192Z" fill="#5C5D6F"/>
<path d="M360.72 273.254C337.897 273.254 314.813 269.943 314.813 263.601V241.695C314.813 241.447 314.911 241.209 315.086 241.034C315.261 240.858 315.499 240.76 315.746 240.76C315.994 240.76 316.231 240.858 316.406 241.034C316.581 241.209 316.679 241.447 316.679 241.695V263.601C316.679 266.856 333.474 271.383 360.72 271.383C387.966 271.383 404.742 266.856 404.742 263.601V241.695C404.742 241.447 404.841 241.209 405.016 241.034C405.191 240.858 405.428 240.76 405.675 240.76C405.923 240.76 406.16 240.858 406.335 241.034C406.51 241.209 406.608 241.447 406.608 241.695V263.601C406.608 269.943 383.524 273.254 360.72 273.254Z" fill="#5C5D6F"/>
<path d="M360.72 251.329C337.897 251.329 314.813 248.018 314.813 241.695C314.813 239.993 316.306 238.534 319.404 237.224C319.515 237.175 319.635 237.148 319.757 237.146C319.878 237.144 319.999 237.166 320.112 237.212C320.225 237.257 320.328 237.324 320.415 237.41C320.501 237.496 320.57 237.598 320.617 237.71C320.666 237.823 320.693 237.945 320.695 238.068C320.697 238.192 320.675 238.314 320.63 238.429C320.585 238.544 320.518 238.648 320.432 238.737C320.347 238.826 320.244 238.896 320.131 238.945C317.967 239.862 316.679 240.816 316.679 241.695C316.679 244.931 333.474 249.459 360.72 249.459C387.966 249.459 404.742 244.931 404.742 241.695C404.742 241.358 404.462 240.199 400.767 238.739C400.567 238.626 400.415 238.444 400.338 238.228C400.261 238.011 400.265 237.773 400.35 237.559C400.434 237.345 400.592 237.168 400.796 237.062C400.999 236.956 401.235 236.927 401.458 236.981C404.929 238.365 406.608 239.899 406.608 241.695C406.608 248.018 383.524 251.329 360.72 251.329Z" fill="#5C5D6F"/>
<path d="M360.72 244.127C337.897 244.127 314.813 240.816 314.813 234.493V212.568C314.813 212.32 314.911 212.082 315.086 211.907C315.261 211.731 315.499 211.633 315.746 211.633C315.994 211.633 316.231 211.731 316.406 211.907C316.581 212.082 316.679 212.32 316.679 212.568V234.493C316.679 237.729 333.474 242.256 360.72 242.256C387.966 242.256 404.742 237.729 404.742 234.493V212.568C404.742 212.32 404.841 212.082 405.016 211.907C405.191 211.731 405.428 211.633 405.675 211.633C405.923 211.633 406.16 211.731 406.335 211.907C406.51 212.082 406.608 212.32 406.608 212.568V234.493C406.608 240.816 383.524 244.127 360.72 244.127Z" fill="#5C5D6F"/>
<path d="M360.72 222.221C337.897 222.221 314.813 218.891 314.813 212.568C314.813 211.184 315.858 209.931 317.911 208.827C318.126 208.73 318.371 208.718 318.595 208.795C318.818 208.872 319.005 209.03 319.116 209.239C319.227 209.449 319.255 209.692 319.194 209.921C319.134 210.15 318.988 210.347 318.788 210.473C317.444 211.203 316.679 211.97 316.679 212.587C316.679 215.823 333.474 220.369 360.72 220.369C387.966 220.369 404.742 215.823 404.742 212.587C404.742 211.951 403.94 211.165 402.522 210.417C402.412 210.36 402.315 210.281 402.236 210.186C402.156 210.091 402.097 209.981 402.06 209.863C402.024 209.745 402.011 209.62 402.023 209.497C402.035 209.374 402.071 209.254 402.13 209.145C402.252 208.93 402.451 208.77 402.687 208.697C402.922 208.624 403.177 208.643 403.399 208.752C405.526 209.893 406.608 211.184 406.608 212.493C406.608 218.872 383.524 222.221 360.72 222.221Z" fill="#5C5D6F"/>
<path d="M351.539 236.027C350.939 236.016 350.357 235.828 349.864 235.486C349.371 235.144 348.99 234.664 348.769 234.106C348.547 233.548 348.495 232.937 348.618 232.349C348.742 231.761 349.036 231.223 349.463 230.802C349.891 230.381 350.433 230.097 351.021 229.983C351.61 229.87 352.219 229.934 352.771 230.166C353.324 230.399 353.796 230.789 354.127 231.289C354.459 231.79 354.636 232.377 354.636 232.978C354.627 233.793 354.295 234.571 353.715 235.143C353.134 235.714 352.352 236.032 351.539 236.027ZM351.539 231.799C351.218 231.794 350.908 231.914 350.675 232.134C350.441 232.354 350.303 232.657 350.288 232.978C350.273 233.228 350.334 233.477 350.462 233.693C350.59 233.909 350.779 234.081 351.006 234.187C351.233 234.294 351.486 234.33 351.734 234.29C351.981 234.25 352.21 234.137 352.393 233.965C352.575 233.794 352.702 233.571 352.757 233.326C352.811 233.081 352.791 232.825 352.699 232.592C352.607 232.358 352.447 232.158 352.24 232.017C352.033 231.875 351.789 231.799 351.539 231.799Z" fill="#5C5D6F"/>
<path d="M360.72 236.027C360.121 236.016 359.538 235.828 359.045 235.486C358.552 235.144 358.171 234.664 357.95 234.106C357.728 233.548 357.676 232.937 357.799 232.349C357.923 231.761 358.217 231.223 358.645 230.802C359.072 230.381 359.614 230.097 360.203 229.983C360.791 229.87 361.4 229.934 361.952 230.166C362.505 230.399 362.977 230.789 363.309 231.289C363.64 231.79 363.817 232.377 363.818 232.978C363.808 233.793 363.476 234.571 362.896 235.143C362.316 235.714 361.533 236.032 360.72 236.027ZM360.72 231.799C360.399 231.794 360.09 231.914 359.856 232.134C359.623 232.354 359.484 232.657 359.469 232.978C359.454 233.228 359.515 233.477 359.643 233.693C359.771 233.909 359.961 234.081 360.187 234.187C360.414 234.294 360.667 234.33 360.915 234.29C361.162 234.25 361.392 234.137 361.574 233.965C361.756 233.794 361.883 233.571 361.938 233.326C361.992 233.081 361.972 232.825 361.88 232.592C361.788 232.358 361.628 232.158 361.421 232.017C361.215 231.875 360.97 231.799 360.72 231.799Z" fill="#5C5D6F"/>
<path d="M360.72 264.368C360.12 264.357 359.537 264.168 359.043 263.826C358.55 263.483 358.169 263.002 357.948 262.443C357.727 261.884 357.676 261.272 357.801 260.683C357.926 260.095 358.222 259.557 358.651 259.137C359.081 258.717 359.624 258.434 360.214 258.322C360.804 258.211 361.413 258.278 361.965 258.513C362.517 258.748 362.988 259.142 363.318 259.644C363.647 260.147 363.821 260.736 363.817 261.337C363.803 262.15 363.469 262.923 362.889 263.49C362.31 264.058 361.53 264.373 360.72 264.368ZM360.72 260.159C360.49 260.17 360.268 260.248 360.082 260.384C359.897 260.52 359.755 260.708 359.674 260.924C359.594 261.14 359.578 261.375 359.63 261.6C359.681 261.825 359.797 262.029 359.964 262.189C360.13 262.348 360.34 262.455 360.566 262.496C360.793 262.537 361.026 262.511 361.238 262.42C361.449 262.329 361.63 262.178 361.756 261.986C361.883 261.794 361.951 261.568 361.951 261.337C361.942 261.018 361.807 260.716 361.576 260.495C361.346 260.275 361.038 260.154 360.72 260.159Z" fill="#5C5D6F"/>
<path d="M369.901 264.368C369.301 264.357 368.718 264.168 368.225 263.826C367.732 263.483 367.351 263.002 367.13 262.443C366.909 261.884 366.857 261.272 366.982 260.683C367.108 260.095 367.403 259.557 367.833 259.137C368.262 258.717 368.806 258.434 369.396 258.322C369.985 258.211 370.595 258.278 371.147 258.513C371.699 258.748 372.17 259.142 372.499 259.644C372.829 260.147 373.003 260.736 372.999 261.337C372.984 262.15 372.651 262.923 372.071 263.49C371.491 264.058 370.712 264.373 369.901 264.368ZM369.901 260.159C369.671 260.17 369.45 260.248 369.264 260.384C369.078 260.52 368.936 260.708 368.856 260.924C368.775 261.14 368.76 261.375 368.811 261.6C368.863 261.825 368.979 262.029 369.146 262.189C369.312 262.348 369.521 262.455 369.748 262.496C369.974 262.537 370.208 262.511 370.419 262.42C370.631 262.329 370.811 262.178 370.938 261.986C371.065 261.794 371.133 261.568 371.133 261.337C371.123 261.018 370.989 260.716 370.758 260.495C370.528 260.275 370.22 260.154 369.901 260.159Z" fill="#5C5D6F"/>
<path d="M360.72 215.842C337.897 215.842 314.813 212.531 314.813 206.189V184.264C314.813 184.016 314.911 183.778 315.086 183.603C315.261 183.428 315.499 183.329 315.746 183.329C315.992 183.334 316.227 183.434 316.401 183.608C316.575 183.783 316.674 184.018 316.679 184.264V206.189C316.679 209.444 333.474 213.971 360.72 213.971C387.966 213.971 404.742 209.444 404.742 206.189V184.264C404.747 184.018 404.847 183.783 405.021 183.608C405.195 183.434 405.429 183.334 405.675 183.329C405.923 183.329 406.16 183.428 406.335 183.603C406.51 183.778 406.608 184.016 406.608 184.264V206.189C406.608 212.531 383.524 215.842 360.72 215.842Z" fill="#5C5D6F"/>
<path d="M360.72 193.917C337.897 193.917 314.813 190.606 314.813 184.264C314.813 180.018 325.002 177.623 333.474 176.389C333.595 176.37 333.717 176.376 333.835 176.406C333.953 176.435 334.064 176.488 334.162 176.561C334.259 176.635 334.341 176.726 334.402 176.832C334.464 176.937 334.503 177.053 334.519 177.174C334.552 177.419 334.488 177.667 334.342 177.866C334.196 178.065 333.979 178.199 333.736 178.241C320.206 180.111 316.604 182.955 316.604 184.264C316.604 187.519 333.4 192.046 360.645 192.046C387.891 192.046 404.668 187.519 404.668 184.264C404.668 182.936 400.935 180.13 387.033 178.166C386.785 178.131 386.562 177.999 386.411 177.799C386.261 177.599 386.196 177.348 386.23 177.1C386.265 176.851 386.396 176.627 386.596 176.477C386.795 176.326 387.046 176.26 387.294 176.295C396.065 177.53 406.534 179.924 406.534 184.246C406.608 190.606 383.524 193.917 360.72 193.917Z" fill="#5C5D6F"/>
<path d="M351.539 206.881C350.939 206.87 350.357 206.682 349.864 206.34C349.371 205.999 348.99 205.519 348.769 204.961C348.547 204.402 348.495 203.791 348.618 203.203C348.742 202.616 349.036 202.078 349.463 201.657C349.891 201.236 350.433 200.951 351.021 200.838C351.61 200.725 352.219 200.788 352.771 201.021C353.324 201.253 353.796 201.644 354.127 202.144C354.459 202.644 354.636 203.231 354.636 203.832C354.627 204.647 354.295 205.426 353.715 205.997C353.134 206.568 352.352 206.886 351.539 206.881ZM351.539 202.672C351.308 202.683 351.086 202.762 350.9 202.899C350.713 203.036 350.571 203.225 350.492 203.442C350.412 203.659 350.397 203.895 350.45 204.12C350.503 204.345 350.621 204.55 350.79 204.708C350.958 204.867 351.169 204.972 351.397 205.011C351.624 205.05 351.858 205.021 352.069 204.928C352.281 204.834 352.46 204.68 352.584 204.486C352.709 204.291 352.774 204.063 352.77 203.832C352.756 203.516 352.619 203.218 352.389 203.002C352.159 202.785 351.854 202.667 351.539 202.672Z" fill="#5C5D6F"/>
<path d="M369.901 206.881C369.302 206.87 368.72 206.682 368.227 206.34C367.734 205.999 367.353 205.519 367.131 204.961C366.91 204.402 366.857 203.791 366.981 203.203C367.105 202.616 367.399 202.078 367.826 201.657C368.254 201.236 368.796 200.951 369.384 200.838C369.973 200.725 370.581 200.788 371.134 201.021C371.686 201.253 372.158 201.644 372.49 202.144C372.822 202.644 372.999 203.231 372.999 203.832C372.989 204.647 372.658 205.426 372.078 205.997C371.497 206.568 370.715 206.886 369.901 206.881ZM369.901 202.672C369.671 202.683 369.448 202.762 369.262 202.899C369.076 203.036 368.934 203.225 368.854 203.442C368.775 203.659 368.76 203.895 368.813 204.12C368.866 204.345 368.984 204.55 369.153 204.708C369.321 204.867 369.532 204.972 369.759 205.011C369.987 205.05 370.221 205.021 370.432 204.928C370.643 204.834 370.823 204.68 370.947 204.486C371.072 204.291 371.136 204.063 371.133 203.832C371.118 203.516 370.982 203.218 370.752 203.002C370.522 202.785 370.217 202.667 369.901 202.672Z" fill="#5C5D6F"/>
<path d="M360.72 189.727C349.337 189.727 327.801 188.305 327.801 182.899C327.801 181.29 329.667 179.981 333.288 178.877C333.405 178.84 333.529 178.827 333.652 178.839C333.774 178.851 333.893 178.888 334.001 178.948C334.11 179.007 334.205 179.088 334.281 179.185C334.357 179.282 334.413 179.394 334.445 179.513C334.515 179.748 334.489 180.002 334.374 180.219C334.259 180.436 334.063 180.599 333.829 180.673C330.414 181.683 329.667 182.543 329.667 182.899C329.667 184.582 340.622 187.856 360.72 187.856C380.818 187.856 391.754 184.582 391.754 182.899C391.754 182.599 390.895 181.571 386.977 180.504C386.741 180.43 386.542 180.269 386.421 180.054C386.3 179.839 386.265 179.585 386.323 179.344C386.393 179.106 386.553 178.904 386.769 178.781C386.985 178.659 387.24 178.626 387.48 178.69C391.679 179.831 393.62 181.178 393.62 182.899C393.62 188.305 372.103 189.727 360.72 189.727Z" fill="#5C5D6F"/>
<path d="M360.16 189.727C340.211 189.727 334.034 187.089 333.81 186.977C333.648 186.904 333.511 186.786 333.415 186.637C333.319 186.487 333.268 186.313 333.269 186.135V175.472C333.269 175.224 333.367 174.986 333.542 174.811C333.717 174.635 333.955 174.537 334.202 174.537C334.448 174.542 334.683 174.642 334.857 174.816C335.031 174.99 335.13 175.226 335.135 175.472V185.462C337.001 186.079 343.943 187.856 360.16 187.856C376.377 187.856 384.215 185.985 386.286 185.443V175.472C386.286 175.224 386.384 174.986 386.559 174.811C386.734 174.635 386.972 174.537 387.219 174.537C387.465 174.542 387.7 174.642 387.874 174.816C388.048 174.99 388.147 175.226 388.152 175.472V186.135C388.151 186.325 388.091 186.509 387.981 186.664C387.87 186.818 387.715 186.934 387.536 186.996C387.256 187.071 380.165 189.727 360.16 189.727Z" fill="#5C5D6F"/>
<path d="M360.72 181.458C351.221 181.458 333.269 180.186 333.269 175.379C333.269 170.571 351.221 169.299 360.72 169.299C370.219 169.299 388.171 170.571 388.171 175.379C388.171 180.186 370.2 181.458 360.72 181.458ZM360.72 171.169C344.167 171.169 335.135 173.957 335.135 175.379C335.135 176.8 344.167 179.588 360.72 179.588C377.273 179.588 386.305 176.8 386.305 175.379C386.305 173.957 377.273 171.132 360.72 171.132V171.169Z" fill="#5C5D6F"/>
<path d="M351.538 266.052C350.614 266.026 349.718 265.728 348.962 265.194C348.206 264.661 347.624 263.916 347.288 263.053C346.952 262.189 346.877 261.246 347.073 260.34C347.269 259.434 347.727 258.607 348.39 257.961C349.052 257.314 349.89 256.878 350.799 256.707C351.707 256.535 352.646 256.636 353.497 256.996C354.349 257.356 355.076 257.96 355.587 258.733C356.098 259.505 356.371 260.411 356.372 261.337C356.352 262.604 355.832 263.812 354.926 264.695C354.02 265.579 352.802 266.067 351.538 266.052ZM351.538 258.569C350.984 258.594 350.449 258.783 350 259.11C349.551 259.438 349.208 259.891 349.013 260.412C348.818 260.933 348.78 261.5 348.904 262.043C349.028 262.586 349.307 263.08 349.709 263.465C350.11 263.849 350.616 264.107 351.162 264.207C351.708 264.306 352.272 264.243 352.783 264.025C353.293 263.806 353.729 263.442 354.035 262.978C354.341 262.513 354.505 261.969 354.506 261.412C354.508 261.024 354.433 260.638 354.284 260.279C354.135 259.92 353.916 259.595 353.639 259.323C353.362 259.051 353.033 258.837 352.673 258.695C352.312 258.552 351.926 258.484 351.538 258.494V258.569Z" fill="#5C5D6F"/>
<path d="M369.901 237.692C368.976 237.67 368.078 237.375 367.32 236.843C366.561 236.312 365.976 235.568 365.637 234.705C365.298 233.842 365.221 232.898 365.415 231.991C365.609 231.084 366.065 230.255 366.727 229.607C367.389 228.958 368.227 228.52 369.136 228.347C370.045 228.174 370.985 228.274 371.838 228.634C372.691 228.994 373.418 229.598 373.93 230.371C374.442 231.143 374.716 232.05 374.716 232.978C374.696 234.241 374.179 235.446 373.277 236.329C372.375 237.212 371.162 237.702 369.901 237.692ZM369.901 230.209C369.346 230.231 368.809 230.416 368.357 230.742C367.906 231.067 367.559 231.519 367.362 232.04C367.164 232.561 367.124 233.129 367.245 233.673C367.367 234.217 367.646 234.713 368.047 235.099C368.447 235.486 368.953 235.746 369.5 235.847C370.047 235.948 370.611 235.885 371.123 235.667C371.635 235.449 372.071 235.085 372.378 234.62C372.685 234.155 372.849 233.61 372.85 233.052C372.857 232.662 372.786 232.274 372.641 231.912C372.495 231.55 372.278 231.221 372.003 230.945C371.728 230.669 371.4 230.452 371.039 230.306C370.677 230.16 370.291 230.089 369.901 230.097V230.209Z" fill="#5C5D6F"/>
<path d="M360.72 208.546C359.796 208.52 358.9 208.222 358.144 207.689C357.388 207.155 356.806 206.41 356.47 205.547C356.134 204.684 356.059 203.74 356.255 202.835C356.451 201.929 356.909 201.101 357.571 200.455C358.234 199.809 359.072 199.373 359.98 199.201C360.889 199.029 361.827 199.13 362.679 199.49C363.531 199.851 364.258 200.455 364.769 201.227C365.28 201.999 365.553 202.905 365.553 203.832C365.534 205.099 365.014 206.306 364.108 207.19C363.202 208.073 361.984 208.561 360.72 208.546ZM360.72 201.063C360.165 201.089 359.63 201.277 359.181 201.605C358.732 201.932 358.389 202.385 358.194 202.906C358 203.428 357.962 203.995 358.085 204.537C358.209 205.08 358.489 205.574 358.891 205.959C359.292 206.344 359.797 206.602 360.344 206.701C360.89 206.801 361.453 206.737 361.964 206.519C362.475 206.3 362.91 205.936 363.217 205.472C363.523 205.008 363.687 204.463 363.687 203.907C363.69 203.518 363.614 203.133 363.466 202.774C363.317 202.415 363.097 202.09 362.82 201.817C362.544 201.545 362.215 201.331 361.854 201.189C361.493 201.047 361.108 200.978 360.72 200.988V201.063Z" fill="#5C5D6F"/>
<path d="M382.031 77.84C381.663 77.845 381.297 77.7745 380.957 77.633C380.617 77.4915 380.309 77.2818 380.053 77.0169L378.952 75.9132C378.69 75.6539 378.482 75.3452 378.34 75.0048C378.199 74.6644 378.125 74.2991 378.125 73.9302C378.125 73.5613 378.199 73.1961 378.34 72.8557C378.482 72.5153 378.69 72.2065 378.952 71.9473L380.053 70.8436C380.58 70.3226 381.291 70.0306 382.031 70.0306C382.771 70.0306 383.482 70.3226 384.009 70.8436L385.11 71.9473C385.63 72.4758 385.921 73.1881 385.921 73.9302C385.921 74.6724 385.63 75.3847 385.11 75.9132L384.009 77.0169C383.751 77.2801 383.443 77.4886 383.104 77.63C382.764 77.7714 382.399 77.8428 382.031 77.84ZM382.031 71.9099C381.907 71.9067 381.784 71.9282 381.669 71.9732C381.554 72.0181 381.448 72.0856 381.359 72.1718L380.258 73.2755C380.086 73.4535 379.99 73.6917 379.99 73.9396C379.99 74.1875 380.086 74.4257 380.258 74.6037L381.359 75.7074C381.537 75.88 381.774 75.9765 382.022 75.9765C382.269 75.9765 382.507 75.88 382.684 75.7074L383.785 74.6037C383.873 74.5167 383.942 74.4133 383.99 74.2993C384.037 74.1853 384.061 74.0631 384.061 73.9396C384.061 73.8161 384.037 73.6939 383.99 73.5799C383.942 73.4659 383.873 73.3624 383.785 73.2755L382.684 72.1718C382.598 72.0871 382.496 72.0203 382.384 71.9753C382.272 71.9304 382.152 71.9081 382.031 71.9099Z" fill="#5C5D6F"/>
<path d="M392.537 77.84C392.169 77.845 391.804 77.7745 391.464 77.633C391.124 77.4915 390.816 77.2818 390.559 77.0169L389.458 75.9132C389.196 75.6539 388.989 75.3452 388.847 75.0048C388.705 74.6644 388.632 74.2991 388.632 73.9302C388.632 73.5613 388.705 73.1961 388.847 72.8557C388.989 72.5153 389.196 72.2065 389.458 71.9473L390.559 70.8436C391.087 70.3226 391.797 70.0306 392.537 70.0306C393.278 70.0306 393.988 70.3226 394.516 70.8436L395.617 71.9473C396.136 72.4758 396.428 73.1881 396.428 73.9302C396.428 74.6724 396.136 75.3847 395.617 75.9132L394.516 77.0169C394.258 77.2801 393.95 77.4886 393.61 77.63C393.27 77.7714 392.905 77.8428 392.537 77.84ZM392.537 71.8912C392.285 71.8918 392.044 71.9927 391.866 72.1718L390.765 73.2755C390.592 73.4535 390.496 73.6917 390.496 73.9396C390.496 74.1875 390.592 74.4257 390.765 74.6037L391.866 75.7074C392.043 75.88 392.281 75.9765 392.528 75.9765C392.775 75.9765 393.013 75.88 393.191 75.7074L394.292 74.6037C394.379 74.5167 394.448 74.4133 394.496 74.2993C394.543 74.1853 394.568 74.0631 394.568 73.9396C394.568 73.8161 394.543 73.6939 394.496 73.5799C394.448 73.4659 394.379 73.3624 394.292 73.2755L393.191 72.1718C393.106 72.0837 393.004 72.0135 392.892 71.9653C392.78 71.9171 392.659 71.8919 392.537 71.8912Z" fill="#5C5D6F"/>
<path d="M403.1 77.84C402.732 77.845 402.366 77.7745 402.026 77.633C401.686 77.4915 401.378 77.2818 401.122 77.0169L400.021 75.9132C399.759 75.6539 399.551 75.3452 399.409 75.0048C399.267 74.6644 399.194 74.2991 399.194 73.9302C399.194 73.5613 399.267 73.1961 399.409 72.8557C399.551 72.5153 399.759 72.2065 400.021 71.9473L401.122 70.8436C401.649 70.3226 402.36 70.0306 403.1 70.0306C403.84 70.0306 404.551 70.3226 405.078 70.8436L406.179 71.9473C406.699 72.4758 406.99 73.1881 406.99 73.9302C406.99 74.6724 406.699 75.3847 406.179 75.9132L405.078 77.0169C404.82 77.2801 404.512 77.4886 404.172 77.63C403.833 77.7714 403.468 77.8428 403.1 77.84ZM403.1 71.9099C402.976 71.9067 402.853 71.9282 402.738 71.9732C402.622 72.0181 402.517 72.0856 402.428 72.1718L401.327 73.2755C401.155 73.4535 401.059 73.6917 401.059 73.9396C401.059 74.1875 401.155 74.4257 401.327 74.6037L402.428 75.7074C402.606 75.88 402.843 75.9765 403.091 75.9765C403.338 75.9765 403.575 75.88 403.753 75.7074L404.854 74.6037C404.941 74.5167 405.011 74.4133 405.058 74.2993C405.106 74.1853 405.13 74.0631 405.13 73.9396C405.13 73.8161 405.106 73.6939 405.058 73.5799C405.011 73.4659 404.941 73.3624 404.854 73.2755L403.753 72.1718C403.668 72.0853 403.566 72.0174 403.454 71.9723C403.341 71.9272 403.221 71.906 403.1 71.9099Z" fill="#5C5D6F"/>
<path d="M403.118 152.874C402.929 152.885 402.743 152.825 402.596 152.706L396.475 148.44C396.272 148.297 396.133 148.08 396.088 147.835C396.042 147.591 396.094 147.338 396.232 147.131C396.303 147.03 396.393 146.944 396.497 146.878C396.601 146.811 396.717 146.767 396.839 146.746C396.96 146.725 397.084 146.728 397.205 146.756C397.325 146.784 397.438 146.835 397.538 146.906L403.659 151.172C403.76 151.243 403.846 151.333 403.912 151.437C403.978 151.541 404.023 151.658 404.044 151.78C404.064 151.901 404.061 152.026 404.033 152.146C404.006 152.267 403.955 152.381 403.883 152.481C403.799 152.606 403.685 152.707 403.551 152.776C403.417 152.844 403.268 152.878 403.118 152.874Z" fill="#5C5D6F"/>
<path d="M392.687 144.175C392.441 144.17 392.206 144.07 392.032 143.896C391.859 143.722 391.759 143.486 391.754 143.24V135.757C391.754 135.509 391.852 135.271 392.027 135.096C392.202 134.92 392.44 134.822 392.687 134.822C392.934 134.822 393.172 134.92 393.347 135.096C393.522 135.271 393.62 135.509 393.62 135.757V143.24C393.62 143.488 393.522 143.726 393.347 143.901C393.172 144.077 392.934 144.175 392.687 144.175Z" fill="#5C5D6F"/>
<path d="M382.255 152.874C382.058 152.872 381.866 152.806 381.708 152.688C381.549 152.569 381.433 152.403 381.375 152.214C381.317 152.024 381.32 151.822 381.384 151.634C381.449 151.447 381.571 151.285 381.733 151.172L387.854 146.906C387.952 146.835 388.064 146.784 388.183 146.757C388.302 146.73 388.425 146.726 388.544 146.747C388.664 146.768 388.779 146.813 388.881 146.879C388.984 146.945 389.072 147.03 389.141 147.131C389.213 147.231 389.264 147.345 389.291 147.466C389.319 147.586 389.322 147.711 389.301 147.832C389.281 147.954 389.236 148.071 389.17 148.175C389.104 148.279 389.018 148.37 388.917 148.44L382.796 152.706C382.641 152.823 382.45 152.882 382.255 152.874Z" fill="#5C5D6F"/>
<path d="M314.328 290.782C314.135 290.781 313.946 290.723 313.787 290.614L307.666 286.33C307.477 286.183 307.351 285.969 307.315 285.732C307.279 285.495 307.335 285.254 307.471 285.057C307.608 284.86 307.814 284.723 308.048 284.675C308.282 284.626 308.526 284.67 308.729 284.796L314.85 289.08C314.953 289.149 315.04 289.239 315.108 289.342C315.176 289.446 315.222 289.562 315.245 289.684C315.267 289.806 315.266 289.931 315.239 290.052C315.213 290.173 315.164 290.288 315.093 290.389C315.004 290.509 314.889 290.607 314.756 290.675C314.623 290.744 314.477 290.78 314.328 290.782Z" fill="#5C5D6F"/>
<path d="M303.896 282.065C303.648 282.065 303.411 281.966 303.236 281.791C303.061 281.615 302.963 281.378 302.963 281.129V273.647C302.963 273.399 303.061 273.161 303.236 272.985C303.411 272.81 303.648 272.711 303.896 272.711C304.143 272.711 304.381 272.81 304.556 272.985C304.731 273.161 304.829 273.399 304.829 273.647V281.129C304.829 281.378 304.731 281.615 304.556 281.791C304.381 281.966 304.143 282.065 303.896 282.065Z" fill="#5C5D6F"/>
<path d="M293.464 290.782C293.315 290.78 293.169 290.744 293.036 290.676C292.903 290.607 292.788 290.51 292.699 290.39C292.559 290.185 292.505 289.934 292.546 289.689C292.588 289.445 292.723 289.226 292.923 289.08L299.044 284.796C299.145 284.725 299.258 284.674 299.378 284.647C299.498 284.62 299.622 284.616 299.744 284.637C299.865 284.658 299.981 284.703 300.085 284.768C300.189 284.834 300.279 284.92 300.35 285.021C300.421 285.121 300.472 285.235 300.499 285.355C300.526 285.476 300.53 285.6 300.509 285.722C300.488 285.843 300.444 285.96 300.378 286.064C300.312 286.168 300.227 286.259 300.126 286.33L294.005 290.614C293.846 290.723 293.657 290.781 293.464 290.782Z" fill="#5C5D6F"/>
<path d="M350.158 294C349.789 294.006 349.424 293.936 349.083 293.795C348.743 293.653 348.435 293.443 348.18 293.177L347.079 292.073C346.815 291.815 346.607 291.507 346.466 291.166C346.324 290.825 346.254 290.459 346.257 290.09C346.255 289.721 346.326 289.356 346.467 289.015C346.608 288.674 346.816 288.366 347.079 288.107L348.18 287.003C348.438 286.741 348.746 286.533 349.086 286.392C349.425 286.251 349.79 286.179 350.158 286.18C350.899 286.185 351.609 286.48 352.136 287.003L353.237 288.107C353.753 288.637 354.042 289.349 354.039 290.09C354.042 290.457 353.973 290.822 353.835 291.162C353.698 291.502 353.494 291.812 353.237 292.073L352.136 293.177C351.878 293.44 351.57 293.649 351.23 293.79C350.89 293.931 350.526 294.003 350.158 294ZM350.158 288.051C349.906 288.056 349.666 288.156 349.486 288.332L348.385 289.435C348.216 289.611 348.122 289.846 348.124 290.09C348.121 290.34 348.215 290.581 348.385 290.764L349.486 291.867C349.668 292.038 349.909 292.132 350.158 292.129C350.4 292.127 350.633 292.033 350.811 291.867L351.912 290.764C352.082 290.581 352.176 290.34 352.173 290.09C352.175 289.846 352.081 289.611 351.912 289.435L350.811 288.332C350.63 288.174 350.398 288.087 350.158 288.088V288.051Z" fill="#5C5D6F"/>
<path d="M360.72 294C360.352 294.005 359.987 293.934 359.646 293.793C359.306 293.651 358.999 293.442 358.742 293.177L357.641 292.073C357.378 291.815 357.169 291.507 357.028 291.166C356.887 290.825 356.816 290.459 356.82 290.09C356.817 289.721 356.888 289.356 357.029 289.015C357.171 288.674 357.379 288.366 357.641 288.107L358.742 287.004C359.269 286.483 359.98 286.191 360.72 286.191C361.461 286.191 362.171 286.483 362.698 287.004L363.799 288.107C364.321 288.635 364.616 289.347 364.62 290.09C364.62 290.834 364.324 291.547 363.799 292.073L362.698 293.177C362.44 293.439 362.132 293.647 361.792 293.788C361.452 293.93 361.088 294.002 360.72 294ZM360.72 288.051C360.468 288.052 360.226 288.153 360.048 288.332L358.947 289.435C358.778 289.611 358.685 289.846 358.686 290.09C358.684 290.34 358.777 290.581 358.947 290.764L360.048 291.867C360.226 292.04 360.464 292.136 360.711 292.136C360.958 292.136 361.196 292.04 361.373 291.867L362.474 290.764C362.65 290.583 362.75 290.342 362.754 290.09C362.749 289.844 362.649 289.609 362.474 289.435L361.373 288.332C361.195 288.169 360.961 288.082 360.72 288.089V288.051Z" fill="#5C5D6F"/>
<path d="M371.283 294C370.914 294.005 370.549 293.934 370.209 293.793C369.869 293.651 369.561 293.442 369.304 293.177L368.203 292.073C367.942 291.814 367.734 291.505 367.592 291.165C367.45 290.824 367.377 290.459 367.377 290.09C367.377 289.721 367.45 289.356 367.592 289.016C367.734 288.675 367.942 288.366 368.203 288.107L369.304 287.004C369.832 286.483 370.542 286.191 371.283 286.191C372.023 286.191 372.733 286.483 373.261 287.004L374.362 288.107C374.881 288.636 375.173 289.348 375.173 290.09C375.173 290.832 374.881 291.545 374.362 292.073L373.261 293.177C373.002 293.439 372.694 293.647 372.354 293.788C372.015 293.93 371.65 294.002 371.283 294ZM371.283 288.051C371.03 288.052 370.789 288.153 370.611 288.332L369.51 289.435C369.338 289.613 369.241 289.852 369.241 290.1C369.241 290.347 369.338 290.586 369.51 290.764L370.611 291.867C370.788 292.04 371.026 292.136 371.273 292.136C371.521 292.136 371.758 292.04 371.936 291.867L373.037 290.764C373.209 290.586 373.305 290.347 373.305 290.1C373.305 289.852 373.209 289.613 373.037 289.435L371.936 288.332C371.757 288.169 371.523 288.082 371.283 288.089V288.051Z" fill="#5C5D6F"/>
<path d="M351.494 39.7115C351.247 39.7115 351.009 39.6129 350.834 39.4375C350.659 39.2621 350.561 39.0242 350.561 38.7761V30.2457C350.561 29.9976 350.659 29.7597 350.834 29.5843C351.009 29.4089 351.247 29.3104 351.494 29.3104C351.742 29.3104 351.979 29.4089 352.154 29.5843C352.329 29.7597 352.427 29.9976 352.427 30.2457V38.7574C352.427 39.0072 352.33 39.2471 352.155 39.4255C351.981 39.6039 351.743 39.7066 351.494 39.7115Z" fill="#5C5D6F"/>
<path d="M351.494 18.4228C351.247 18.4228 351.009 18.3243 350.834 18.1489C350.659 17.9734 350.561 17.7355 350.561 17.4875V-6.06471C350.561 -6.31278 350.659 -6.55069 350.834 -6.7261C351.009 -6.90152 351.247 -7.00006 351.494 -7.00006C351.74 -6.99527 351.975 -6.89519 352.149 -6.7208C352.323 -6.54642 352.422 -6.31128 352.427 -6.06471V17.4875C352.422 17.734 352.323 17.9692 352.149 18.1436C351.975 18.3179 351.74 18.418 351.494 18.4228Z" fill="#5C5D6F"/>
<path d="M351.494 30.5449C350.21 30.5449 348.954 30.1631 347.886 29.4478C346.818 28.7325 345.986 27.7157 345.494 26.5262C345.003 25.3366 344.874 24.0277 345.125 22.7648C345.375 21.502 345.994 20.342 346.902 19.4316C347.81 18.5211 348.967 17.9011 350.227 17.6499C351.487 17.3987 352.793 17.5277 353.979 18.0204C355.166 18.5131 356.18 19.3475 356.894 20.4181C357.608 21.4887 357.988 22.7473 357.988 24.0349C357.988 25.7615 357.304 27.4173 356.086 28.6382C354.868 29.8591 353.217 30.5449 351.494 30.5449ZM351.494 19.3207C350.579 19.3207 349.684 19.5928 348.923 20.1026C348.162 20.6124 347.569 21.3369 347.218 22.1847C346.868 23.0324 346.777 23.9652 346.955 24.8652C347.134 25.7651 347.574 26.5918 348.222 27.2406C348.869 27.8894 349.694 28.3313 350.591 28.5103C351.489 28.6893 352.42 28.5974 353.265 28.2463C354.111 27.8951 354.834 27.3005 355.342 26.5376C355.851 25.7746 356.122 24.8776 356.122 23.9601C356.098 22.7442 355.6 21.5861 354.735 20.7332C353.871 19.8802 352.707 19.4002 351.494 19.3956V19.3207Z" fill="#5C5D6F"/>
<path d="M370.753 3.5133C370.506 3.5133 370.269 3.41476 370.094 3.23934C369.919 3.06393 369.82 2.82602 369.82 2.57795V-6.06471C369.82 -6.31278 369.919 -6.55069 370.094 -6.7261C370.269 -6.90152 370.506 -7.00006 370.753 -7.00006C370.999 -6.99527 371.234 -6.89519 371.408 -6.7208C371.582 -6.54642 371.682 -6.31128 371.686 -6.06471V2.57795C371.686 2.82602 371.588 3.06393 371.413 3.23934C371.238 3.41476 371.001 3.5133 370.753 3.5133Z" fill="#5C5D6F"/>
<path d="M370.753 39.7115C370.506 39.7115 370.269 39.613 370.094 39.4376C369.919 39.2621 369.82 39.0242 369.82 38.7762V15.1492C369.82 14.9011 369.919 14.6632 370.094 14.4878C370.269 14.3124 370.506 14.2138 370.753 14.2138C371.001 14.2138 371.238 14.3124 371.413 14.4878C371.588 14.6632 371.686 14.9011 371.686 15.1492V38.7762C371.682 39.0227 371.582 39.2579 371.408 39.4323C371.234 39.6066 370.999 39.7067 370.753 39.7115Z" fill="#5C5D6F"/>
<path d="M370.753 15.2802C369.469 15.2802 368.213 14.8984 367.145 14.183C366.077 13.4677 365.245 12.451 364.753 11.2614C364.262 10.0719 364.133 8.76291 364.384 7.50008C364.634 6.23725 365.253 5.07727 366.161 4.16682C367.069 3.25638 368.226 2.63635 369.486 2.38516C370.746 2.13397 372.052 2.26289 373.238 2.75562C374.425 3.24835 375.439 4.08276 376.153 5.15334C376.866 6.22391 377.247 7.48256 377.247 8.77013C377.242 10.4952 376.556 12.1482 375.34 13.368C374.123 14.5878 372.474 15.2752 370.753 15.2802ZM370.753 4.05595C369.838 4.05595 368.943 4.32804 368.182 4.83782C367.421 5.3476 366.827 6.07217 366.477 6.9199C366.127 7.76763 366.035 8.70045 366.214 9.60039C366.392 10.5003 366.833 11.327 367.48 11.9758C368.128 12.6246 368.952 13.0665 369.85 13.2455C370.748 13.4245 371.678 13.3326 372.524 12.9815C373.37 12.6304 374.092 12.0357 374.601 11.2728C375.11 10.5098 375.381 9.61288 375.381 8.6953C375.381 7.46487 374.893 6.28483 374.025 5.41479C373.158 4.54474 371.98 4.05595 370.753 4.05595Z" fill="#5C5D6F"/>
<path d="M390.012 39.6928C389.764 39.6928 389.527 39.5943 389.352 39.4189C389.177 39.2434 389.079 39.0055 389.079 38.7575V30.6012C389.079 30.3531 389.177 30.1152 389.352 29.9398C389.527 29.7644 389.764 29.6658 390.012 29.6658C390.258 29.6706 390.492 29.7707 390.666 29.9451C390.84 30.1195 390.94 30.3546 390.945 30.6012V38.7575C390.945 39.0055 390.846 39.2434 390.671 39.4189C390.497 39.5943 390.259 39.6928 390.012 39.6928Z" fill="#5C5D6F"/>
<path d="M390.012 18.5912C389.764 18.5912 389.527 18.4926 389.352 18.3172C389.177 18.1418 389.079 17.9039 389.079 17.6558V-6.06471C389.079 -6.31278 389.177 -6.55069 389.352 -6.7261C389.527 -6.90152 389.764 -7.00006 390.012 -7.00006C390.258 -6.99527 390.492 -6.89519 390.666 -6.7208C390.84 -6.54642 390.94 -6.31128 390.945 -6.06471V17.6558C390.945 17.9039 390.846 18.1418 390.671 18.3172C390.497 18.4926 390.259 18.5912 390.012 18.5912Z" fill="#5C5D6F"/>
<path d="M390.012 30.5449C388.727 30.5449 387.472 30.1631 386.404 29.4478C385.336 28.7325 384.503 27.7157 384.012 26.5262C383.52 25.3366 383.392 24.0277 383.642 22.7648C383.893 21.502 384.511 20.342 385.42 19.4316C386.328 18.5211 387.485 17.9011 388.745 17.6499C390.005 17.3987 391.31 17.5277 392.497 18.0204C393.684 18.5131 394.698 19.3475 395.412 20.4181C396.125 21.4887 396.506 22.7473 396.506 24.0349C396.506 25.7615 395.822 27.4173 394.604 28.6382C393.386 29.8591 391.734 30.5449 390.012 30.5449ZM390.012 19.3207C389.096 19.3207 388.202 19.5928 387.441 20.1026C386.68 20.6124 386.086 21.3369 385.736 22.1847C385.386 23.0324 385.294 23.9652 385.473 24.8652C385.651 25.7651 386.092 26.5918 386.739 27.2406C387.387 27.8894 388.211 28.3313 389.109 28.5103C390.007 28.6893 390.937 28.5974 391.783 28.2463C392.629 27.8951 393.351 27.3005 393.86 26.5376C394.368 25.7746 394.64 24.8776 394.64 23.9601C394.615 22.7442 394.118 21.5861 393.253 20.7332C392.388 19.8802 391.225 19.4002 390.012 19.3956V19.3207Z" fill="#5C5D6F"/>
<path d="M131.969 263.377H117.618C117.301 263.377 116.997 263.25 116.773 263.026C116.549 262.801 116.424 262.497 116.424 262.179C116.424 261.862 116.549 261.557 116.773 261.333C116.997 261.108 117.301 260.982 117.618 260.982H131.969C132.285 260.982 132.589 261.108 132.813 261.333C133.037 261.557 133.163 261.862 133.163 262.179C133.163 262.497 133.037 262.801 132.813 263.026C132.589 263.25 132.285 263.377 131.969 263.377ZM103.398 263.377H89.0474C88.7306 263.377 88.4268 263.25 88.2028 263.026C87.9789 262.801 87.853 262.497 87.853 262.179C87.853 261.862 87.9789 261.557 88.2028 261.333C88.4268 261.108 88.7306 260.982 89.0474 260.982H103.323C103.64 260.982 103.944 261.108 104.168 261.333C104.392 261.557 104.518 261.862 104.518 262.179C104.518 262.497 104.392 262.801 104.168 263.026C103.944 263.25 103.64 263.377 103.323 263.377H103.398Z" fill="#5C5D6F"/>
<path d="M44.4571 149.996H10.4373C8.06859 149.997 5.76994 149.19 3.91946 147.708C2.06899 146.225 0.776883 144.156 0.255674 141.839C-0.265536 139.523 0.0151884 137.098 1.05167 134.963C2.08816 132.827 3.81868 131.11 5.9586 130.091C5.9218 129.4 5.9218 128.706 5.9586 128.015C5.95133 123.311 7.44985 118.728 10.2338 114.941C13.0178 111.154 16.9404 108.362 21.4249 106.976C25.9094 105.59 30.7192 105.682 35.1473 107.24C39.5753 108.798 43.3879 111.739 46.0246 115.631C46.8096 115.518 47.6016 115.462 48.3946 115.462C51.7809 115.467 55.0837 116.516 57.8547 118.467C60.6257 120.418 62.7306 123.177 63.8836 126.369C66.082 125.699 68.4239 125.664 70.6415 126.266C72.8592 126.868 74.8631 128.083 76.424 129.773C76.5358 129.883 76.6245 130.014 76.6851 130.159C76.7457 130.303 76.7769 130.458 76.7769 130.615C76.7769 130.772 76.7457 130.927 76.6851 131.072C76.6245 131.216 76.5358 131.347 76.424 131.457C76.2005 131.679 75.8987 131.803 75.5843 131.803C75.2698 131.803 74.9681 131.679 74.7445 131.457C73.3572 129.912 71.5191 128.846 69.4921 128.409C67.465 127.973 65.3522 128.188 63.4544 129.025L62.1667 129.586L61.8122 128.239C60.9925 125.256 59.2204 122.623 56.7669 120.745C54.3135 118.867 51.3138 117.846 48.2267 117.838C47.3124 117.841 46.4003 117.929 45.5021 118.1L44.7183 118.268L44.2704 117.576C41.998 114.012 38.6367 111.281 34.6883 109.789C30.74 108.298 26.4163 108.126 22.3628 109.301C18.3093 110.475 14.7432 112.932 12.1971 116.305C9.65093 119.677 8.26118 123.785 8.23529 128.015C8.24174 128.903 8.30407 129.791 8.42191 130.671L8.55254 131.625L7.65679 131.962C5.88601 132.621 4.40224 133.882 3.46436 135.526C2.52649 137.169 2.19407 139.091 2.5251 140.955C2.85614 142.819 3.82962 144.507 5.27567 145.725C6.72172 146.944 8.54853 147.614 10.4373 147.62H44.4571C44.6252 147.599 44.7958 147.614 44.9577 147.664C45.1197 147.714 45.2691 147.797 45.3961 147.91C45.5232 148.022 45.625 148.16 45.6946 148.315C45.7643 148.47 45.8004 148.638 45.8004 148.808C45.8004 148.978 45.7643 149.145 45.6946 149.3C45.625 149.455 45.5232 149.593 45.3961 149.706C45.2691 149.818 45.1197 149.902 44.9577 149.952C44.7958 150.002 44.6252 150.017 44.4571 149.996Z" fill="#5C5D6F"/>
<path d="M84.8032 210.625C84.4865 210.625 84.1827 210.499 83.9587 210.274C83.7347 210.05 83.6089 209.745 83.6089 209.428V194.312C83.6089 193.995 83.7347 193.69 83.9587 193.466C84.1827 193.241 84.4865 193.115 84.8032 193.115C85.12 193.115 85.4238 193.241 85.6477 193.466C85.8717 193.69 85.9976 193.995 85.9976 194.312V209.428C85.9976 209.745 85.8717 210.05 85.6477 210.274C85.4238 210.499 85.12 210.625 84.8032 210.625Z" fill="#5C5D6F"/>
<path d="M140.078 217.247H92.3608C92.0441 217.247 91.7403 217.121 91.5163 216.897C91.2923 216.672 91.1665 216.368 91.1665 216.05C91.1665 215.733 91.2923 215.428 91.5163 215.203C91.7403 214.979 92.0441 214.853 92.3608 214.853H140.078C140.395 214.853 140.699 214.979 140.923 215.203C141.147 215.428 141.272 215.733 141.272 216.05C141.272 216.368 141.147 216.672 140.923 216.897C140.699 217.121 140.395 217.247 140.078 217.247Z" fill="#5C5D6F"/>
<path d="M76.2375 217.247H29.584C29.2672 217.247 28.9634 217.121 28.7395 216.897C28.5155 216.672 28.3896 216.368 28.3896 216.05C28.3896 215.733 28.5155 215.428 28.7395 215.203C28.9634 214.979 29.2672 214.853 29.584 214.853H76.2375C76.5542 214.853 76.858 214.979 77.082 215.203C77.306 215.428 77.4318 215.733 77.4318 216.05C77.4318 216.368 77.306 216.672 77.082 216.897C76.858 217.121 76.5542 217.247 76.2375 217.247Z" fill="#5C5D6F"/>
<path d="M84.803 225.535C83.072 225.535 81.3798 225.02 79.9405 224.056C78.5012 223.092 77.3794 221.722 76.717 220.119C76.0546 218.515 75.8813 216.751 76.219 215.049C76.5567 213.347 77.3902 211.784 78.6142 210.557C79.8383 209.33 81.3978 208.495 83.0955 208.156C84.7933 207.817 86.5531 207.991 88.1523 208.655C89.7516 209.319 91.1185 210.444 92.0802 211.887C93.0419 213.33 93.5552 215.026 93.5552 216.761C93.5503 219.086 92.6266 221.315 90.9863 222.959C89.346 224.604 87.1227 225.53 84.803 225.535ZM84.803 210.382C83.5444 210.382 82.3141 210.756 81.2676 211.457C80.2211 212.158 79.4055 213.154 78.9238 214.32C78.4422 215.486 78.3162 216.768 78.5617 218.006C78.8073 219.243 79.4133 220.38 80.3033 221.272C81.1932 222.164 82.3271 222.771 83.5615 223.018C84.7959 223.264 86.0754 223.137 87.2382 222.655C88.401 222.172 89.3948 221.354 90.0941 220.305C90.7933 219.256 91.1665 218.023 91.1665 216.761C91.1665 215.069 90.4961 213.447 89.3027 212.25C88.1093 211.054 86.4907 210.382 84.803 210.382Z" fill="#5C5D6F"/>
<path d="M133.733 195.51H38.5602C32.446 195.337 26.6402 192.781 22.3765 188.385C18.1129 183.988 15.7275 178.099 15.7275 171.967C15.7275 165.836 18.1129 159.946 22.3765 155.549C26.6402 151.153 32.446 148.597 38.5602 148.424C39.9241 148.419 41.2858 148.538 42.6283 148.78C45.1425 143.503 49.0986 139.049 54.0371 135.937C58.9755 132.824 64.6936 131.18 70.5271 131.195C71.3109 131.195 72.1133 131.195 72.9158 131.195C77.9813 124.507 85.015 119.583 93.0233 117.119C101.032 114.655 109.61 114.775 117.546 117.463C125.482 120.151 132.376 125.27 137.253 132.098C142.13 138.926 144.743 147.117 144.725 155.514C144.725 156.038 144.725 156.562 144.725 157.104C148.561 159.489 151.516 163.062 153.143 167.283C154.77 171.503 154.981 176.14 153.742 180.491C152.504 184.842 149.884 188.669 146.28 191.393C142.676 194.117 138.284 195.588 133.771 195.585L133.733 195.51ZM38.5602 150.8C33.0687 150.964 27.8568 153.266 24.0302 157.217C20.2036 161.169 18.0632 166.46 18.0632 171.967C18.0632 177.474 20.2036 182.765 24.0302 186.717C27.8568 190.669 33.0687 192.97 38.5602 193.134H133.733C137.787 193.138 141.729 191.798 144.945 189.323C148.16 186.848 150.47 183.377 151.513 179.449C152.556 175.522 152.275 171.359 150.713 167.609C149.151 163.859 146.396 160.731 142.877 158.713L142.243 158.339V157.609C142.243 156.88 142.243 156.15 142.243 155.439C142.244 147.494 139.739 139.753 135.087 133.32C130.435 126.888 123.874 122.095 116.341 119.625C108.808 117.156 100.689 117.137 93.1442 119.571C85.5998 122.005 79.0161 126.768 74.334 133.178L73.9235 133.72H73.2517C72.3186 133.72 71.3855 133.571 70.4338 133.571C64.8932 133.559 59.4697 135.169 54.8288 138.203C50.1879 141.237 46.5314 145.563 44.3079 150.65L43.916 151.548L42.9642 151.343C41.531 151.012 40.0678 150.83 38.5975 150.8H38.5602Z" fill="#5C5D6F"/>
<path d="M88.8338 180.844H80.7721C80.1831 180.844 79.6182 180.609 79.2018 180.192C78.7853 179.774 78.5514 179.208 78.5514 178.617V165.223H71.7959C71.3592 165.234 70.929 165.115 70.5594 164.881C70.1897 164.648 69.8968 164.311 69.7176 163.911C69.5383 163.512 69.4805 163.068 69.5515 162.636C69.6224 162.204 69.8189 161.802 70.1164 161.482L83.1794 146.235C83.3944 146.001 83.6554 145.814 83.9461 145.687C84.2368 145.559 84.5508 145.493 84.8682 145.493C85.1857 145.493 85.4996 145.559 85.7903 145.687C86.081 145.814 86.3421 146.001 86.5571 146.235L99.6201 161.482C99.8956 161.805 100.072 162.201 100.128 162.623C100.185 163.044 100.118 163.473 99.9373 163.858C99.7601 164.245 99.4764 164.574 99.1195 164.806C98.7626 165.038 98.3472 165.163 97.9219 165.167H91.0545V178.561C91.062 178.858 91.01 179.154 90.9018 179.43C90.7935 179.707 90.6311 179.959 90.4242 180.172C90.2172 180.384 89.9699 180.553 89.6967 180.669C89.4236 180.784 89.1302 180.844 88.8338 180.844ZM80.9214 178.449H88.8338L88.6845 162.829H97.474L84.8029 148.031L72.1318 162.885H80.9214V178.449Z" fill="#5C5D6F"/>
</g>
<defs>
<clipPath id="clip0">
<rect width="407" height="294" fill="white"/>
</clipPath>
</defs>
</svg>
