<svg width="29" height="35" viewBox="0 0 29 35" fill="none" xmlns="http://www.w3.org/2000/svg">
<path d="M28.2729 25.5241L28.2729 33.3776C28.2728 33.9944 27.7116 34.5556 27.0948 34.5557L1.17804 34.5557C0.561236 34.5556 6.2804e-05 33.9944 -5.14936e-08 33.3776L-3.94784e-07 25.5241C6.24068e-05 24.9073 0.561235 24.3461 1.17804 24.346L5.4975 24.346C6.11987 24.3374 6.69231 24.9016 6.69231 25.5241C6.69231 26.1465 6.11987 26.7109 5.4975 26.7021L2.35607 26.7021L2.35607 32.1996L25.9168 32.1996L25.9168 26.7021L22.7754 26.7021C22.153 26.7107 21.5805 26.1465 21.5805 25.5241C21.5805 24.9016 22.153 24.3372 22.7754 24.346L27.0948 24.346C27.738 24.3499 28.2751 24.9647 28.2729 25.5241Z" fill="#5C5D6F"/>
<path d="M14.1383 3.78036e-05C14.4191 0.0110317 14.7436 0.126598 14.9483 0.319088L21.6241 6.60194C22.0067 7.02768 22.1646 7.84406 21.7223 8.31991C21.2866 8.78861 20.4417 8.77467 20.0043 8.30774L15.3164 3.8901L15.3164 28.6656C15.3164 29.3162 14.789 29.8436 14.1383 29.8436C13.4877 29.8436 12.9603 29.3162 12.9603 28.6656L12.9603 3.8901L8.27243 8.30774C7.86974 8.70972 6.99506 8.78402 6.55439 8.31991C6.11377 7.85592 6.25453 7.01021 6.65259 6.60194L13.3284 0.319088C13.5569 0.104097 13.8249 -0.000669809 14.1383 3.78036e-05Z" fill="#5C5D6F"/>
</svg>
