<svg width="12" height="9" viewBox="0 0 12 9" fill="none" xmlns="http://www.w3.org/2000/svg">
<path d="M11.7596 1.30666C11.7596 1.67986 11.4571 1.9825 11.0837 1.9825H0.675838C0.302505 1.9825 0 1.67986 0 1.30666V0.675838C0 0.30264 0.302505 0 0.675838 0H11.0837C11.4571 0 11.7596 0.30264 11.7596 0.675838V1.30666Z" fill="#A7A9AC"/>
<path d="M9.73214 4.81532C9.73214 5.18865 9.42963 5.49116 9.0563 5.49116H2.70343C2.33009 5.49116 2.02759 5.18865 2.02759 4.81532V4.18463C2.02759 3.81129 2.33009 3.50879 2.70343 3.50879H9.0563C9.42963 3.50879 9.73214 3.81129 9.73214 4.18463V4.81532Z" fill="#A7A9AC"/>
<path d="M7.70458 8.32412C7.70458 8.69732 7.40207 8.99996 7.02874 8.99996H4.73089C4.35756 8.99996 4.05505 8.69732 4.05505 8.32412V7.69329C4.05505 7.3201 4.35756 7.01746 4.73089 7.01746H7.02874C7.40207 7.01746 7.70458 7.3201 7.70458 7.69329V8.32412Z" fill="#A7A9AC"/>
</svg>
